<?xml version="1.0" encoding="UTF-8" standalone="no"?><!DOCTYPE svg PUBLIC "-//W3C//DTD SVG 1.1//EN" "http://www.w3.org/Graphics/SVG/1.1/DTD/svg11.dtd"><svg width="100%" height="100%" viewBox="0 0 1772 2481" version="1.1" xmlns="http://www.w3.org/2000/svg" xmlns:xlink="http://www.w3.org/1999/xlink" xml:space="preserve" xmlns:serif="http://www.serif.com/" style="fill-rule:evenodd;clip-rule:evenodd;stroke-linejoin:round;stroke-miterlimit:2;"><rect x="0" y="0" width="1771.654" height="2480.315" style="fill:#fff;"/><g transform="matrix(0.5,0,0,0.5,260.333333,167.9172)"><text x="71px" y="99.796px" style="font-family:'STSongti-TC-Light', 'Songti TC';font-weight:300;font-size:75px;">部<tspan x="144.545px 218.09px 291.635px 365.18px 438.725px 512.27px 585.815px 659.36px 732.905px 806.45px 879.995px 953.54px 1027.085px 1100.63px 1174.175px " y="99.796px 99.796px 99.796px 99.796px 99.796px 99.796px 99.796px 99.796px 99.796px 99.796px 99.796px 99.796px 99.796px 99.796px 99.796px ">拿來處理活動，使書店經營慘澹，</tspan></text><text x="71px" y="208.129px" style="font-family:'STSongti-TC-Light', 'Songti TC';font-weight:300;font-size:75px;">且<tspan x="149.795px 228.59px 307.385px 386.18px 464.975px 543.77px 622.565px 701.36px 780.155px 858.95px 937.745px 1016.54px 1095.335px 1174.13px " y="208.129px 208.129px 208.129px 208.129px 208.129px 208.129px 208.129px 208.129px 208.129px 208.129px 208.129px 208.129px 208.129px 208.129px ">持續無聞（這也是為什麼後來決</tspan></text><text x="71px" y="316.462px" style="font-family:'STSongti-TC-Light', 'Songti TC';font-weight:300;font-size:75px;">定<tspan x="149.795px 228.59px 307.385px 386.18px 464.975px 543.77px 622.565px 701.36px 780.155px 858.95px 937.745px 1016.54px 1095.335px 1174.13px " y="316.462px 316.462px 316.462px 316.462px 316.462px 316.462px 316.462px 316.462px 316.462px 316.462px 316.462px 316.462px 316.462px 316.462px ">「再次開幕」的理由），同時也</tspan></text><text x="71px" y="424.796px" style="font-family:'STSongti-TC-Light', 'Songti TC';font-weight:300;font-size:75px;">就<tspan x="149.795px 228.59px 307.385px 386.18px 464.975px 543.77px 622.565px 701.36px 780.155px 858.95px 937.745px 1016.54px 1095.335px 1174.13px " y="424.796px 424.796px 424.796px 424.796px 424.796px 424.796px 424.796px 424.796px 424.796px 424.796px 424.796px 424.796px 424.796px 424.796px ">成為了「節．⼀元」計畫最⼤的</tspan></text><text x="71px" y="533.129px" style="font-family:'STSongti-TC-Light', 'Songti TC';font-weight:300;font-size:75px;">敗<tspan x="149.795px 228.59px 307.385px 386.18px 464.975px 543.77px 622.565px 701.36px 780.155px 858.95px 937.745px 1016.54px 1095.335px 1174.13px " y="533.129px 533.129px 533.129px 533.129px 533.129px 533.129px 533.129px 533.129px 533.129px 533.129px 533.129px 533.129px 533.129px 533.129px ">筆：節慶本身以「⼈的參與」為</tspan></text><text x="71px" y="641.462px" style="font-family:'STSongti-TC-Light', 'Songti TC';font-weight:300;font-size:75px;">基礎，但偏偏最缺乏的就是⼈！</text><text x="71px" y="858.129px" style="font-family:'STSongti-TC-Light', 'Songti TC';font-weight:300;font-size:75px;">這<tspan x="149.795px 228.59px 307.385px 386.18px 464.975px 543.77px 622.565px 701.36px 780.155px 858.95px 937.745px 1016.54px 1095.335px 1174.13px " y="858.129px 858.129px 858.129px 858.129px 858.129px 858.129px 858.129px 858.129px 858.129px 858.129px 858.129px 858.129px 858.129px 858.129px ">⼀年，很多理念想要傳遞，是為</tspan></text><text x="71px" y="966.462px" style="font-family:'STSongti-TC-Light', 'Songti TC';font-weight:300;font-size:75px;">了<tspan x="149.795px 228.59px 307.385px 386.18px 464.975px 543.77px 622.565px 701.36px 780.155px 858.95px 937.745px 1016.54px 1095.335px 1174.13px " y="966.462px 966.462px 966.462px 966.462px 966.462px 966.462px 966.462px 966.462px 966.462px 966.462px 966.462px 966.462px 966.462px 966.462px ">回到書店作為知識實踐場域的根</tspan></text><text x="71px" y="1074.796px" style="font-family:'STSongti-TC-Light', 'Songti TC';font-weight:300;font-size:75px;">本<tspan x="149.795px 228.59px 307.385px 386.18px 464.975px 543.77px 622.565px 701.36px 780.155px 858.95px 937.745px 1016.54px 1095.335px 1174.13px " y="1074.796px 1074.796px 1074.796px 1074.796px 1074.796px 1074.796px 1074.796px 1074.796px 1074.796px 1074.796px 1074.796px 1074.796px 1074.796px 1074.796px ">，但確實操之過急，總是按耐不</tspan></text><text x="71px" y="1183.129px" style="font-family:'STSongti-TC-Light', 'Songti TC';font-weight:300;font-size:75px;">住<tspan x="149.795px 228.59px 307.385px 386.18px 464.975px 543.77px 622.565px 701.36px 780.155px 858.95px 937.745px 1016.54px 1095.335px 1174.13px " y="1183.129px 1183.129px 1183.129px 1183.129px 1183.129px 1183.129px 1183.129px 1183.129px 1183.129px 1183.129px 1183.129px 1183.129px 1183.129px 1183.129px ">⼼中那想要脫繮的⾺，常常奔到</tspan></text><text x="71px" y="1291.462px" style="font-family:'STSongti-TC-Light', 'Songti TC';font-weight:300;font-size:75px;">⼀<tspan x="149.795px 228.59px 307.385px 386.18px 464.975px 543.77px 622.565px 701.36px 780.155px 858.95px 937.745px 1016.54px 1095.335px 1174.13px " y="1291.462px 1291.462px 1291.462px 1291.462px 1291.462px 1291.462px 1291.462px 1291.462px 1291.462px 1291.462px 1291.462px 1291.462px 1291.462px 1291.462px ">個地⽅後，才驚覺空山，雖有幽</tspan></text><text x="71px" y="1399.796px" style="font-family:'STSongti-TC-Light', 'Songti TC';font-weight:300;font-size:75px;">蘭<tspan x="149.795px 228.59px 307.385px 386.18px 464.975px 543.77px 622.565px 701.36px 780.155px 858.95px 937.745px 1016.54px 1095.335px 1174.13px " y="1399.796px 1399.796px 1399.796px 1399.796px 1399.796px 1399.796px 1399.796px 1399.796px 1399.796px 1399.796px 1399.796px 1399.796px 1399.796px 1399.796px ">但渺無⼈煙。計畫結束後的三個</tspan></text><text x="71px" y="1508.129px" style="font-family:'STSongti-TC-Light', 'Songti TC';font-weight:300;font-size:75px;">⽉<tspan x="149.795px 228.59px 307.385px 386.18px 464.975px 543.77px 622.565px 701.36px 780.155px 858.95px 937.745px 1016.54px 1095.335px 1174.13px " y="1508.129px 1508.129px 1508.129px 1508.129px 1508.129px 1508.129px 1508.129px 1508.129px 1508.129px 1508.129px 1508.129px 1508.129px 1508.129px 1508.129px ">間，持續反省與再思量開始的問</tspan></text><text x="71px" y="1616.462px" style="font-family:'STSongti-TC-Light', 'Songti TC';font-weight:300;font-size:75px;">題<tspan x="149.795px 228.59px 307.385px 386.18px 464.975px 543.77px 622.565px 701.36px 780.155px 858.95px 937.745px 1016.54px 1095.335px 1174.13px " y="1616.462px 1616.462px 1616.462px 1616.462px 1616.462px 1616.462px 1616.462px 1616.462px 1616.462px 1616.462px 1616.462px 1616.462px 1616.462px 1616.462px ">：⾃⼰所感受到的，只是⼀次性</tspan></text><text x="71px" y="1724.796px" style="font-family:'STSongti-TC-Light', 'Songti TC';font-weight:300;font-size:75px;">的幻想，還是可守護的真實︖</text><text x="71px" y="1941.462px" style="font-family:'STSongti-TC-Light', 'Songti TC';font-weight:300;font-size:75px;">過<tspan x="149.795px 228.59px 307.385px 386.18px 464.975px 543.77px 622.565px 701.36px 780.155px 858.95px 937.745px 1016.54px 1095.335px 1174.13px " y="1941.462px 1941.462px 1941.462px 1941.462px 1941.462px 1941.462px 1941.462px 1941.462px 1941.462px 1941.462px 1941.462px 1941.462px 1941.462px 1941.462px ">程讓答案積累，成為了⼀匹裝上</tspan></text><text x="71px" y="2049.796px" style="font-family:'STSongti-TC-Light', 'Songti TC';font-weight:300;font-size:75px;">鞍<tspan x="149.795px 228.59px 307.385px 386.18px 464.975px 543.77px 622.565px 701.36px 780.155px 858.95px 937.745px 1016.54px 1095.335px 1174.13px " y="2049.796px 2049.796px 2049.796px 2049.796px 2049.796px 2049.796px 2049.796px 2049.796px 2049.796px 2049.796px 2049.796px 2049.796px 2049.796px 2049.796px ">的⾺，嘶吼著要引領至更遠的地</tspan></text><text x="71px" y="2158.129px" style="font-family:'STSongti-TC-Light', 'Songti TC';font-weight:300;font-size:75px;">⽅<tspan x="149.795px 228.59px 307.385px 386.18px 464.975px 543.77px 622.565px 701.36px 780.155px 858.95px 937.745px 1016.54px 1095.335px 1174.13px " y="2158.129px 2158.129px 2158.129px 2158.129px 2158.129px 2158.129px 2158.129px 2158.129px 2158.129px 2158.129px 2158.129px 2158.129px 2158.129px 2158.129px ">。在此階段得到的結論是要再作</tspan></text><text x="71px" y="2266.462px" style="font-family:'STSongti-TC-Light', 'Songti TC';font-weight:300;font-size:75px;">⼀<tspan x="149.795px 228.59px 307.385px 386.18px 464.975px 543.77px 622.565px 701.36px 780.155px 858.95px 937.745px 1016.54px 1095.335px 1174.13px " y="2266.462px 2266.462px 2266.462px 2266.462px 2266.462px 2266.462px 2266.462px 2266.462px 2266.462px 2266.462px 2266.462px 2266.462px 2266.462px 2266.462px ">次上元，為此寫下了這篇不知道</tspan></text><text x="71px" y="2374.796px" style="font-family:'STSongti-TC-Light', 'Songti TC';font-weight:300;font-size:75px;">算<tspan x="149.795px 228.59px 307.385px 386.18px 464.975px 543.77px 622.565px 701.36px 780.155px 858.95px 937.745px 1016.54px 1095.335px 1174.13px " y="2374.796px 2374.796px 2374.796px 2374.796px 2374.796px 2374.796px 2374.796px 2374.796px 2374.796px 2374.796px 2374.796px 2374.796px 2374.796px 2374.796px ">不算回顧的⽂，不⽌希望更多⼈</tspan></text><text x="71px" y="2483.129px" style="font-family:'STSongti-TC-Light', 'Songti TC';font-weight:300;font-size:75px;">可<tspan x="149.795px 228.59px 307.385px 386.18px 464.975px 543.77px 622.565px 701.36px 780.155px 858.95px 937.745px 1016.54px 1095.335px 1174.13px " y="2483.129px 2483.129px 2483.129px 2483.129px 2483.129px 2483.129px 2483.129px 2483.129px 2483.129px 2483.129px 2483.129px 2483.129px 2483.129px 2483.129px ">以了解，更希望能願意參與、協</tspan></text><text x="71px" y="2591.462px" style="font-family:'STSongti-TC-Light', 'Songti TC';font-weight:300;font-size:75px;">助<tspan x="149.795px 228.59px 307.385px 386.18px 464.975px 543.77px 622.565px 701.36px 780.155px 858.95px 937.745px 1016.54px 1095.335px 1174.13px " y="2591.462px 2591.462px 2591.462px 2591.462px 2591.462px 2591.462px 2591.462px 2591.462px 2591.462px 2591.462px 2591.462px 2591.462px 2591.462px 2591.462px ">——即使只是⼀個單純想過節的</tspan></text><text x="71px" y="2699.796px" style="font-family:'STSongti-TC-Light', 'Songti TC';font-weight:300;font-size:75px;">願<tspan x="144.545px 218.09px 291.635px 365.18px 438.725px 512.27px 585.815px 659.36px 732.905px 806.45px 879.995px 953.54px 1027.085px 1100.63px 1174.175px " y="2699.796px 2699.796px 2699.796px 2699.796px 2699.796px 2699.796px 2699.796px 2699.796px 2699.796px 2699.796px 2699.796px 2699.796px 2699.796px 2699.796px 2699.796px ">望，⼀個對未來想像風景的渴求，</tspan></text><text x="71px" y="2808.129px" style="font-family:'STSongti-TC-Light', 'Songti TC';font-weight:300;font-size:75px;">或僅僅⼀次想雪恥的任性。</text><text x="71px" y="3024.796px" style="font-family:'STSongti-TC-Light', 'Songti TC';font-weight:300;font-size:75px;">不<tspan x="144.545px 218.09px 291.635px 365.18px 438.725px 512.27px 585.815px 659.36px 732.905px 806.45px 879.995px 953.54px 1027.085px 1100.63px 1174.175px " y="3024.796px 3024.796px 3024.796px 3024.796px 3024.796px 3024.796px 3024.796px 3024.796px 3024.796px 3024.796px 3024.796px 3024.796px 3024.796px 3024.796px 3024.796px ">論如何，最後還是說⼀聲：「節」</tspan></text><text x="71px" y="3133.129px" style="font-family:'STSongti-TC-Light', 'Songti TC';font-weight:300;font-size:75px;">是<tspan x="149.795px 228.59px 307.385px 386.18px 464.975px 543.77px 622.565px 701.36px 780.155px 858.95px 937.745px 1016.54px 1095.335px 1174.13px " y="3133.129px 3133.129px 3133.129px 3133.129px 3133.129px 3133.129px 3133.129px 3133.129px 3133.129px 3133.129px 3133.129px 3133.129px 3133.129px 3133.129px ">值得守護的真實。因為「節」是</tspan></text><text x="71px" y="3241.462px" style="font-family:'STSongti-TC-Light', 'Songti TC';font-weight:300;font-size:75px;">城<tspan x="149.795px 228.59px 307.385px 386.18px 464.975px 543.77px 622.565px 701.36px 780.155px 858.95px 937.745px 1016.54px 1095.335px 1174.13px " y="3241.462px 3241.462px 3241.462px 3241.462px 3241.462px 3241.462px 3241.462px 3241.462px 3241.462px 3241.462px 3241.462px 3241.462px 3241.462px 3241.462px ">市的反省、是虛無的回聲、是⼈</tspan></text><text x="71px" y="3349.796px" style="font-family:'STSongti-TC-Light', 'Songti TC';font-weight:300;font-size:75px;">與<tspan x="149.795px 228.59px 307.385px 386.18px 464.975px 543.77px 622.565px 701.36px 780.155px 858.95px 937.745px 1016.54px 1095.335px 1174.13px " y="3349.796px 3349.796px 3349.796px 3349.796px 3349.796px 3349.796px 3349.796px 3349.796px 3349.796px 3349.796px 3349.796px 3349.796px 3349.796px 3349.796px ">⼈⾛向純粹的途徑。⽽「節」需</tspan></text><text x="71px" y="3458.129px" style="font-family:'STSongti-TC-Light', 'Songti TC';font-weight:300;font-size:75px;">要<tspan x="149.795px 228.59px 307.385px 386.18px 464.975px 543.77px 622.565px 701.36px 780.155px 858.95px 937.745px 1016.54px 1095.335px 1174.13px " y="3458.129px 3458.129px 3458.129px 3458.129px 3458.129px 3458.129px 3458.129px 3458.129px 3458.129px 3458.129px 3458.129px 3458.129px 3458.129px 3458.129px ">⼈步伐的參與、需要⼈眼神的⾒</tspan></text><text x="71px" y="3566.462px" style="font-family:'STSongti-TC-Light', 'Songti TC';font-weight:300;font-size:75px;">證、需要⼈聲⾳的傳遞。</text><text x="71px" y="3783.129px" style="font-family:'STKaitiTC-Bold', 'Kaiti TC';font-size:75px;">——我們都應該嘗試如何活得更美</text><g transform="matrix(75,0,0,75,371,3891.462267)"></g><text x="71px" y="3891.462px" style="font-family:'STKaitiTC-Bold', 'Kaiti TC';font-size:75px;">更真實。</text></g><g transform="matrix(0.5,0,0,0.5,832.333333,167.9172)"><text x="227px" y="99.796px" style="font-family:'STSongti-TC-Bold', 'Songti TC';font-weight:700;font-size:75px;">以美拓展⼗七年⼈⽣對城市的夢想</text><text x="227px" y="208.129px" style="font-family:'STSongti-TC-Light', 'Songti TC';font-weight:300;font-size:75px;">⽂／謝廷威</text><text x="227px" y="424.796px" style="font-family:'STSongti-TC-Light', 'Songti TC';font-weight:300;font-size:75px;">因<tspan x="311.855px 396.71px 481.565px 566.42px 651.275px 736.13px 820.985px 905.84px 990.695px 1075.55px 1160.405px 1245.26px 1330.115px " y="424.796px 424.796px 424.796px 424.796px 424.796px 424.796px 424.796px 424.796px 424.796px 424.796px 424.796px 424.796px 424.796px ">為喜歡創作的緣故，我參加了</tspan></text><text x="227px" y="533.129px" style="font-family:'STSongti-TC-Light', 'Songti TC';font-weight:300;font-size:75px;">節</text><text x="305.795px" y="533.129px" style="font-family:'PingFangTC-Light', 'PingFang TC', sans-serif;font-weight:300;font-size:75px;">・</text><text x="384.59px" y="533.129px" style="font-family:'STSongti-TC-Light', 'Songti TC';font-weight:300;font-size:75px;">⼀<tspan x="463.386px 542.181px 620.976px 699.771px 778.566px 857.362px 936.157px 1014.952px 1093.747px 1172.542px 1251.338px 1330.133px " y="533.129px 533.129px 533.129px 533.129px 533.129px 533.129px 533.129px 533.129px 533.129px 533.129px 533.129px 533.129px ">元計畫。原本是想讓⾃⼰多</tspan></text><text x="227px" y="641.462px" style="font-family:'STSongti-TC-Light', 'Songti TC';font-weight:300;font-size:75px;">創<tspan x="305.795px 384.59px 463.385px 542.18px 620.975px 699.77px 778.565px 857.36px 936.155px 1014.95px 1093.745px 1172.54px 1251.335px 1330.13px " y="641.462px 641.462px 641.462px 641.462px 641.462px 641.462px 641.462px 641.462px 641.462px 641.462px 641.462px 641.462px 641.462px 641.462px ">作⼀點，同時多思考、多實踐⼀</tspan></text><text x="227px" y="749.796px" style="font-family:'STSongti-TC-Light', 'Songti TC';font-weight:300;font-size:75px;">點<tspan x="305.795px 384.59px 463.385px 542.18px 620.975px 699.77px 778.565px 857.36px 936.155px 1014.95px 1093.745px 1172.54px 1251.335px 1330.13px " y="749.796px 749.796px 749.796px 749.796px 749.796px 749.796px 749.796px 749.796px 749.796px 749.796px 749.796px 749.796px 749.796px 749.796px ">，那時的我相信不斷的創造能夠</tspan></text><text x="227px" y="858.129px" style="font-family:'STSongti-TC-Light', 'Songti TC';font-weight:300;font-size:75px;">使⾃⼰成長。</text><text x="227px" y="1074.796px" style="font-family:'STSongti-TC-Light', 'Songti TC';font-weight:300;font-size:75px;">經<tspan x="305.795px 384.59px 463.385px 542.18px 620.975px 699.77px 778.565px 857.36px 936.155px 1014.95px 1093.745px 1172.54px 1251.335px 1330.13px " y="1074.796px 1074.796px 1074.796px 1074.796px 1074.796px 1074.796px 1074.796px 1074.796px 1074.796px 1074.796px 1074.796px 1074.796px 1074.796px 1074.796px ">過了⼀兩次活動，漸漸的，我發</tspan></text><text x="227px" y="1183.129px" style="font-family:'STSongti-TC-Light', 'Songti TC';font-weight:300;font-size:75px;">現<tspan x="300.545px 374.09px 447.635px 521.18px 594.725px 668.27px 741.815px 815.36px 888.905px 962.45px 1035.995px 1109.54px 1183.085px 1256.63px 1330.175px " y="1183.129px 1183.129px 1183.129px 1183.129px 1183.129px 1183.129px 1183.129px 1183.129px 1183.129px 1183.129px 1183.129px 1183.129px 1183.129px 1183.129px 1183.129px ">⾃⼰的態度有所轉變，我慢慢地，</tspan></text><text x="227px" y="1291.462px" style="font-family:'STSongti-TC-Light', 'Songti TC';font-weight:300;font-size:75px;">建築出了⾃⼰的信仰。</text><text x="227px" y="1508.129px" style="font-family:'STSongti-TC-Light', 'Songti TC';font-weight:300;font-size:75px;">身<tspan x="305.795px 384.59px 463.385px 542.18px 620.975px 699.77px 778.565px 857.36px 936.155px 1014.95px 1093.745px 1172.54px 1251.335px 1330.13px " y="1508.129px 1508.129px 1508.129px 1508.129px 1508.129px 1508.129px 1508.129px 1508.129px 1508.129px 1508.129px 1508.129px 1508.129px 1508.129px 1508.129px ">為⼀個⾼中⽣，我在創作初期遇</tspan></text><text x="227px" y="1616.462px" style="font-family:'STSongti-TC-Light', 'Songti TC';font-weight:300;font-size:75px;">到<tspan x="305.795px 384.59px 463.385px 542.18px 620.975px 699.77px 778.565px 857.36px 936.155px 1014.95px 1093.745px 1172.54px 1251.335px 1330.13px " y="1616.462px 1616.462px 1616.462px 1616.462px 1616.462px 1616.462px 1616.462px 1616.462px 1616.462px 1616.462px 1616.462px 1616.462px 1616.462px 1616.462px ">課業與活動失衡的狀態，在⾼⼀</tspan></text><text x="227px" y="1724.796px" style="font-family:'STSongti-TC-Light', 'Songti TC';font-weight:300;font-size:75px;">的<tspan x="300.545px 374.09px 447.635px 521.18px 594.725px 668.27px 741.815px 815.36px 888.905px 962.45px 1035.995px 1109.54px 1183.085px 1256.63px 1330.175px " y="1724.796px 1724.796px 1724.796px 1724.796px 1724.796px 1724.796px 1724.796px 1724.796px 1724.796px 1724.796px 1724.796px 1724.796px 1724.796px 1724.796px 1724.796px ">第⼀次段考⼤⼤挫敗。在那之後，</tspan></text><text x="227px" y="1833.129px" style="font-family:'STSongti-TC-Light', 'Songti TC';font-weight:300;font-size:75px;">重<tspan x="305.795px 384.59px 463.385px 542.18px 620.975px 699.77px 778.565px 857.36px 936.155px 1014.95px 1093.745px 1172.54px 1251.335px 1330.13px " y="1833.129px 1833.129px 1833.129px 1833.129px 1833.129px 1833.129px 1833.129px 1833.129px 1833.129px 1833.129px 1833.129px 1833.129px 1833.129px 1833.129px ">陽節的活動上，我在風箏上畫了</tspan></text><text x="227px" y="1941.462px" style="font-family:'STSongti-TC-Light', 'Songti TC';font-weight:300;font-size:75px;">切<tspan x="305.795px 384.59px 463.385px 542.18px 620.975px 699.77px 778.565px 857.36px 936.155px 1014.95px 1093.745px 1172.54px 1251.335px 1330.13px " y="1941.462px 1941.462px 1941.462px 1941.462px 1941.462px 1941.462px 1941.462px 1941.462px 1941.462px 1941.462px 1941.462px 1941.462px 1941.462px 1941.462px ">．格瓦拉的頭像，期許⾃⼰發起</tspan></text><text x="227px" y="2049.796px" style="font-family:'STSongti-TC-Light', 'Songti TC';font-weight:300;font-size:75px;">⼀<tspan x="300.545px 374.09px 447.635px 521.18px 594.725px 668.27px 741.815px 815.36px 888.905px 962.45px 1035.995px 1109.54px 1183.085px 1256.63px 1330.175px " y="2049.796px 2049.796px 2049.796px 2049.796px 2049.796px 2049.796px 2049.796px 2049.796px 2049.796px 2049.796px 2049.796px 2049.796px 2049.796px 2049.796px 2049.796px ">場「對⾃⼰的⾰命」。到了上元，</tspan></text><text x="227px" y="2158.129px" style="font-family:'STSongti-TC-Light', 'Songti TC';font-weight:300;font-size:75px;">我<tspan x="305.795px 384.59px 463.385px 542.18px 620.975px 699.77px 778.565px 857.36px 936.155px 1014.95px 1093.745px 1172.54px 1251.335px 1330.13px " y="2158.129px 2158.129px 2158.129px 2158.129px 2158.129px 2158.129px 2158.129px 2158.129px 2158.129px 2158.129px 2158.129px 2158.129px 2158.129px 2158.129px ">開始在社群書寫、分享活動⼤⼤</tspan></text><text x="227px" y="2266.462px" style="font-family:'STSongti-TC-Light', 'Songti TC';font-weight:300;font-size:75px;">⼩<tspan x="305.795px 384.59px 463.385px 542.18px 620.975px 699.77px 778.565px 857.36px 936.155px 1014.95px 1093.745px 1172.54px 1251.335px 1330.13px " y="2266.462px 2266.462px 2266.462px 2266.462px 2266.462px 2266.462px 2266.462px 2266.462px 2266.462px 2266.462px 2266.462px 2266.462px 2266.462px 2266.462px ">⼩的事，想要以⽂字的⼒量產⽣</tspan></text><text x="227px" y="2374.796px" style="font-family:'STSongti-TC-Light', 'Songti TC';font-weight:300;font-size:75px;">影<tspan x="305.795px 384.59px 463.385px 542.18px 620.975px 699.77px 778.565px 857.36px 936.155px 1014.95px 1093.745px 1172.54px 1251.335px 1330.13px " y="2374.796px 2374.796px 2374.796px 2374.796px 2374.796px 2374.796px 2374.796px 2374.796px 2374.796px 2374.796px 2374.796px 2374.796px 2374.796px 2374.796px ">響，讓周遭的⼈開始⾯對所謂⽂</tspan></text><text x="227px" y="2483.129px" style="font-family:'STSongti-TC-Light', 'Songti TC';font-weight:300;font-size:75px;">化<tspan x="305.795px 384.59px 463.385px 542.18px 620.975px 699.77px 778.565px 857.36px 936.155px 1014.95px 1093.745px 1172.54px 1251.335px 1330.13px " y="2483.129px 2483.129px 2483.129px 2483.129px 2483.129px 2483.129px 2483.129px 2483.129px 2483.129px 2483.129px 2483.129px 2483.129px 2483.129px 2483.129px ">、所謂藝術、所謂⽣命、以及所</tspan></text><text x="227px" y="2591.462px" style="font-family:'STSongti-TC-Light', 'Songti TC';font-weight:300;font-size:75px;">謂「⼀位⾼中⽣的夢想」。</text><text x="227px" y="2808.129px" style="font-family:'STSongti-TC-Light', 'Songti TC';font-weight:300;font-size:75px;">國<tspan x="305.795px 384.59px 463.385px 542.18px 620.975px 699.77px 778.565px 857.36px 936.155px 1014.95px 1093.745px 1172.54px 1251.335px 1330.13px " y="2808.129px 2808.129px 2808.129px 2808.129px 2808.129px 2808.129px 2808.129px 2808.129px 2808.129px 2808.129px 2808.129px 2808.129px 2808.129px 2808.129px ">⼩時期去過幾個國家，受到了⼀</tspan></text><text x="227px" y="2916.462px" style="font-family:'STSongti-TC-Light', 'Songti TC';font-weight:300;font-size:75px;">些<tspan x="305.795px 384.59px 463.385px 542.18px 620.975px 699.77px 778.565px 857.36px 936.155px 1014.95px 1093.745px 1172.54px 1251.335px 1330.13px " y="2916.462px 2916.462px 2916.462px 2916.462px 2916.462px 2916.462px 2916.462px 2916.462px 2916.462px 2916.462px 2916.462px 2916.462px 2916.462px 2916.462px ">藝術的薰陶，那些經驗或許都成</tspan></text><text x="227px" y="3024.796px" style="font-family:'STSongti-TC-Light', 'Songti TC';font-weight:300;font-size:75px;">為<tspan x="305.795px 384.59px 463.385px 542.18px 620.975px 699.77px 778.565px 857.36px 936.155px 1014.95px 1093.745px 1172.54px 1251.335px 1330.13px " y="3024.796px 3024.796px 3024.796px 3024.796px 3024.796px 3024.796px 3024.796px 3024.796px 3024.796px 3024.796px 3024.796px 3024.796px 3024.796px 3024.796px ">了助長我的養分，我依然記得⼣</tspan></text><text x="227px" y="3133.129px" style="font-family:'STSongti-TC-Light', 'Songti TC';font-weight:300;font-size:75px;">陽<tspan x="305.795px 384.59px 463.385px 542.18px 620.975px 699.77px 778.565px 857.36px 936.155px 1014.95px 1093.745px 1172.54px 1251.335px 1330.13px " y="3133.129px 3133.129px 3133.129px 3133.129px 3133.129px 3133.129px 3133.129px 3133.129px 3133.129px 3133.129px 3133.129px 3133.129px 3133.129px 3133.129px ">時分的塞納河畔，看著河岸旁相</tspan></text><text x="227px" y="3241.462px" style="font-family:'STSongti-TC-Light', 'Songti TC';font-weight:300;font-size:75px;">對<tspan x="305.795px 384.59px 463.385px 542.18px 620.975px 699.77px 778.565px 857.36px 936.155px 1014.95px 1093.745px 1172.54px 1251.335px 1330.13px " y="3241.462px 3241.462px 3241.462px 3241.462px 3241.462px 3241.462px 3241.462px 3241.462px 3241.462px 3241.462px 3241.462px 3241.462px 3241.462px 3241.462px ">的羅浮宮和奧塞美術館在陽光的</tspan></text><text x="227px" y="3349.796px" style="font-family:'STSongti-TC-Light', 'Songti TC';font-weight:300;font-size:75px;">照<tspan x="305.795px 384.59px 463.385px 542.18px 620.975px 699.77px 778.565px 857.36px 936.155px 1014.95px 1093.745px 1172.54px 1251.335px 1330.13px " y="3349.796px 3349.796px 3349.796px 3349.796px 3349.796px 3349.796px 3349.796px 3349.796px 3349.796px 3349.796px 3349.796px 3349.796px 3349.796px 3349.796px ">耀下閃閃發光︔在凱旋⾨頂樓看</tspan></text><text x="227px" y="3458.129px" style="font-family:'STSongti-TC-Light', 'Songti TC';font-weight:300;font-size:75px;">著<tspan x="305.795px 384.59px 463.385px 542.18px 620.975px 699.77px 778.565px 857.36px 936.155px 1014.95px 1093.745px 1172.54px 1251.335px 1330.13px " y="3458.129px 3458.129px 3458.129px 3458.129px 3458.129px 3458.129px 3458.129px 3458.129px 3458.129px 3458.129px 3458.129px 3458.129px 3458.129px 3458.129px ">整齊的街道從我腳下放射狀的漫</tspan></text><text x="227px" y="3566.462px" style="font-family:'STSongti-TC-Light', 'Songti TC';font-weight:300;font-size:75px;">佈<tspan x="305.795px 384.59px 463.385px 542.18px 620.975px 699.77px 778.565px 857.36px 936.155px 1014.95px 1093.745px 1172.54px 1251.335px 1330.13px " y="3566.462px 3566.462px 3566.462px 3566.462px 3566.462px 3566.462px 3566.462px 3566.462px 3566.462px 3566.462px 3566.462px 3566.462px 3566.462px 3566.462px ">巴黎市區。反觀我們的城市，好</tspan></text><text x="227px" y="3674.796px" style="font-family:'STSongti-TC-Light', 'Songti TC';font-weight:300;font-size:75px;">似<tspan x="305.795px 384.59px 463.385px 542.18px 620.975px 699.77px 778.565px 857.36px 936.155px 1014.95px 1093.745px 1172.54px 1251.335px 1330.13px " y="3674.796px 3674.796px 3674.796px 3674.796px 3674.796px 3674.796px 3674.796px 3674.796px 3674.796px 3674.796px 3674.796px 3674.796px 3674.796px 3674.796px ">缺少了些美的記憶。我因此多了</tspan></text><text x="227px" y="3783.129px" style="font-family:'STSongti-TC-Light', 'Songti TC';font-weight:300;font-size:75px;">⼀<tspan x="305.795px 384.59px 463.385px 542.18px 620.975px 699.77px 778.565px 857.36px 936.155px 1014.95px 1093.745px 1172.54px 1251.335px 1330.13px " y="3783.129px 3783.129px 3783.129px 3783.129px 3783.129px 3783.129px 3783.129px 3783.129px 3783.129px 3783.129px 3783.129px 3783.129px 3783.129px 3783.129px ">個創作的動⼒，想在節慶時刻，</tspan></text><text x="227px" y="3891.462px" style="font-family:'STSongti-TC-Light', 'Songti TC';font-weight:300;font-size:75px;">讓<tspan x="305.795px 384.59px 463.385px 542.18px 620.975px 699.77px 778.565px 857.36px 936.155px 1014.95px 1093.745px 1172.54px 1251.335px 1330.13px " y="3891.462px 3891.462px 3891.462px 3891.462px 3891.462px 3891.462px 3891.462px 3891.462px 3891.462px 3891.462px 3891.462px 3891.462px 3891.462px 3891.462px ">⾼雄的街道有其無可取代的⼈⽂</tspan></text><text x="227px" y="3999.796px" style="font-family:'STSongti-TC-Light', 'Songti TC';font-weight:300;font-size:75px;">美<tspan x="305.795px 384.59px 463.385px 542.18px 620.975px 699.77px 778.565px 857.36px 936.155px 1014.95px 1093.745px 1172.54px 1251.335px 1330.13px " y="3999.796px 3999.796px 3999.796px 3999.796px 3999.796px 3999.796px 3999.796px 3999.796px 3999.796px 3999.796px 3999.796px 3999.796px 3999.796px 3999.796px ">景，⼀群⼈推著⾃⼰做的燈籠，</tspan></text><g transform="matrix(75,0,0,75,1352,4108.128933)"></g><text x="227px" y="4108.129px" style="font-family:'STSongti-TC-Light', 'Songti TC';font-weight:300;font-size:75px;">充滿著笑容，在夜空下點亮城市。</text></g></svg>