<?xml version="1.0" encoding="UTF-8" standalone="no"?><!DOCTYPE svg PUBLIC "-//W3C//DTD SVG 1.1//EN" "http://www.w3.org/Graphics/SVG/1.1/DTD/svg11.dtd"><svg width="100%" height="100%" viewBox="0 0 1772 2481" version="1.1" xmlns="http://www.w3.org/2000/svg" xmlns:xlink="http://www.w3.org/1999/xlink" xml:space="preserve" xmlns:serif="http://www.serif.com/" style="fill-rule:evenodd;clip-rule:evenodd;stroke-linejoin:round;stroke-miterlimit:2;"><rect x="0" y="0" width="1771.654" height="2480.315" style="fill:#fff;"/><g transform="matrix(0.5,0,0,0.5,260.333333,167.9172)"><text x="71px" y="99.796px" style="font-family:'STSongti-TC-Light', 'Songti TC';font-weight:300;font-size:75px;">不<tspan x="149.795px 228.59px 307.385px 386.18px 464.975px 543.77px 622.565px 701.36px 780.155px 858.95px 937.745px 1016.54px 1095.335px 1174.13px " y="99.796px 99.796px 99.796px 99.796px 99.796px 99.796px 99.796px 99.796px 99.796px 99.796px 99.796px 99.796px 99.796px 99.796px ">只是想讓城市美麗，我在創作的</tspan></text><text x="71px" y="208.129px" style="font-family:'STSongti-TC-Light', 'Songti TC';font-weight:300;font-size:75px;">同<tspan x="144.545px 218.09px 291.635px 365.18px 438.725px 512.27px 585.815px 659.36px 732.905px 806.45px 879.995px 953.54px 1027.085px 1100.63px 1174.175px " y="208.129px 208.129px 208.129px 208.129px 208.129px 208.129px 208.129px 208.129px 208.129px 208.129px 208.129px 208.129px 208.129px 208.129px 208.129px ">時，也在對「身為台灣⼈這件事」</tspan></text><text x="71px" y="316.462px" style="font-family:'STSongti-TC-Light', 'Songti TC';font-weight:300;font-size:75px;">做<tspan x="144.545px 218.09px 291.635px 365.18px 438.725px 512.27px 585.815px 659.36px 732.905px 806.45px 879.995px 953.54px 1027.085px 1100.63px 1174.175px " y="316.462px 316.462px 316.462px 316.462px 316.462px 316.462px 316.462px 316.462px 316.462px 316.462px 316.462px 316.462px 316.462px 316.462px 316.462px ">更進⼀步的探索。⼩時候學鋼琴、</tspan></text><text x="71px" y="424.796px" style="font-family:'STSongti-TC-Light', 'Songti TC';font-weight:300;font-size:75px;">看<tspan x="149.795px 228.59px 307.385px 386.18px 464.975px 543.77px 622.565px 701.36px 780.155px 858.95px 937.745px 1016.54px 1095.335px 1174.13px " y="424.796px 424.796px 424.796px 424.796px 424.796px 424.796px 424.796px 424.796px 424.796px 424.796px 424.796px 424.796px 424.796px 424.796px ">西洋美術、學西畫，國中聽著英</tspan></text><text x="71px" y="533.129px" style="font-family:'STSongti-TC-Light', 'Songti TC';font-weight:300;font-size:75px;">⽂<tspan x="149.795px 228.59px 307.385px 386.18px 464.975px 543.77px 622.565px 701.36px 780.155px 858.95px 937.745px 1016.54px 1095.335px 1174.13px " y="533.129px 533.129px 533.129px 533.129px 533.129px 533.129px 533.129px 533.129px 533.129px 533.129px 533.129px 533.129px 533.129px 533.129px ">歌、學英⽂、看洋⽚，我可以說</tspan></text><text x="71px" y="641.462px" style="font-family:'STSongti-TC-Light', 'Songti TC';font-weight:300;font-size:75px;">是<tspan x="149.795px 228.59px 307.385px 386.18px 464.975px 543.77px 622.565px 701.36px 780.155px 858.95px 937.745px 1016.54px 1095.335px 1174.13px " y="641.462px 641.462px 641.462px 641.462px 641.462px 641.462px 641.462px 641.462px 641.462px 641.462px 641.462px 641.462px 641.462px 641.462px ">喝著洋墨⽔長⼤的。然⽽，這樣</tspan></text><text x="71px" y="749.796px" style="font-family:'STSongti-TC-Light', 'Songti TC';font-weight:300;font-size:75px;">的<tspan x="149.795px 228.59px 307.385px 386.18px 464.975px 543.77px 622.565px 701.36px 780.155px 858.95px 937.745px 1016.54px 1095.335px 1174.13px " y="749.796px 749.796px 749.796px 749.796px 749.796px 749.796px 749.796px 749.796px 749.796px 749.796px 749.796px 749.796px 749.796px 749.796px ">我對於「台灣」的概念很模糊，</tspan></text><text x="71px" y="858.129px" style="font-family:'STSongti-TC-Light', 'Songti TC';font-weight:300;font-size:75px;">什<tspan x="149.795px 228.59px 307.385px 386.18px 464.975px 543.77px 622.565px 701.36px 780.155px 858.95px 937.745px 1016.54px 1095.335px 1174.13px " y="858.129px 858.129px 858.129px 858.129px 858.129px 858.129px 858.129px 858.129px 858.129px 858.129px 858.129px 858.129px 858.129px 858.129px ">麼是我⽣活的這塊⼟地所具有的</tspan></text><text x="71px" y="966.462px" style="font-family:'STSongti-TC-Light', 'Songti TC';font-weight:300;font-size:75px;">⽂<tspan x="149.795px 228.59px 307.385px 386.18px 464.975px 543.77px 622.565px 701.36px 780.155px 858.95px 937.745px 1016.54px 1095.335px 1174.13px " y="966.462px 966.462px 966.462px 966.462px 966.462px 966.462px 966.462px 966.462px 966.462px 966.462px 966.462px 966.462px 966.462px 966.462px ">化︖在歷史的影響以及全球化的</tspan></text><text x="71px" y="1074.796px" style="font-family:'STSongti-TC-Light', 'Songti TC';font-weight:300;font-size:75px;">吞<tspan x="149.795px 228.59px 307.385px 386.18px 464.975px 543.77px 622.565px 701.36px 780.155px 858.95px 937.745px 1016.54px 1095.335px 1174.13px " y="1074.796px 1074.796px 1074.796px 1074.796px 1074.796px 1074.796px 1074.796px 1074.796px 1074.796px 1074.796px 1074.796px 1074.796px 1074.796px 1074.796px ">噬下，台灣⼈所認同的「臺灣⽂</tspan></text><text x="71px" y="1183.129px" style="font-family:'STSongti-TC-Light', 'Songti TC';font-weight:300;font-size:75px;">化<tspan x="149.795px 228.59px 307.385px 386.18px 464.975px 543.77px 622.565px 701.36px 780.155px 858.95px 937.745px 1016.54px 1095.335px 1174.13px " y="1183.129px 1183.129px 1183.129px 1183.129px 1183.129px 1183.129px 1183.129px 1183.129px 1183.129px 1183.129px 1183.129px 1183.129px 1183.129px 1183.129px ">」或許也就被模糊掉了。⽣活只</tspan></text><text x="71px" y="1291.462px" style="font-family:'STSongti-TC-Light', 'Songti TC';font-weight:300;font-size:75px;">有<tspan x="149.795px 228.59px 307.385px 386.18px 464.975px 543.77px 622.565px 701.36px 780.155px 858.95px 937.745px 1016.54px 1095.335px 1174.13px " y="1291.462px 1291.462px 1291.462px 1291.462px 1291.462px 1291.462px 1291.462px 1291.462px 1291.462px 1291.462px 1291.462px 1291.462px 1291.462px 1291.462px ">課業、升學、⼯作、賺錢的都市</tspan></text><text x="71px" y="1399.796px" style="font-family:'STSongti-TC-Light', 'Songti TC';font-weight:300;font-size:75px;">⼩<tspan x="149.795px 228.59px 307.385px 386.18px 464.975px 543.77px 622.565px 701.36px 780.155px 858.95px 937.745px 1016.54px 1095.335px 1174.13px " y="1399.796px 1399.796px 1399.796px 1399.796px 1399.796px 1399.796px 1399.796px 1399.796px 1399.796px 1399.796px 1399.796px 1399.796px 1399.796px 1399.796px ">孩，要如何訴說⾃家的故事、家</tspan></text><text x="71px" y="1508.129px" style="font-family:'STSongti-TC-Light', 'Songti TC';font-weight:300;font-size:75px;">鄉<tspan x="149.795px 228.59px 307.385px 386.18px 464.975px 543.77px 622.565px 701.36px 780.155px 858.95px 937.745px 1016.54px 1095.335px 1174.13px " y="1508.129px 1508.129px 1508.129px 1508.129px 1508.129px 1508.129px 1508.129px 1508.129px 1508.129px 1508.129px 1508.129px 1508.129px 1508.129px 1508.129px ">的故事︖我發現⾃⼰對家鄉的印</tspan></text><text x="71px" y="1616.462px" style="font-family:'STSongti-TC-Light', 'Songti TC';font-weight:300;font-size:75px;">象<tspan x="149.795px 228.59px 307.385px 386.18px 464.975px 543.77px 622.565px 701.36px 780.155px 858.95px 937.745px 1016.54px 1095.335px 1174.13px " y="1616.462px 1616.462px 1616.462px 1616.462px 1616.462px 1616.462px 1616.462px 1616.462px 1616.462px 1616.462px 1616.462px 1616.462px 1616.462px 1616.462px ">是空⽩的，為此，我在書房的牆</tspan></text><text x="71px" y="1724.796px" style="font-family:'STSongti-TC-Light', 'Songti TC';font-weight:300;font-size:75px;">上<tspan x="149.795px 228.59px 307.385px 386.18px 464.975px 543.77px 622.565px 701.36px 780.155px 858.95px 937.745px 1016.54px 1095.335px 1174.13px " y="1724.796px 1724.796px 1724.796px 1724.796px 1724.796px 1724.796px 1724.796px 1724.796px 1724.796px 1724.796px 1724.796px 1724.796px 1724.796px 1724.796px ">寫下「找尋⽂化」四字，在活動</tspan></text><text x="71px" y="1833.129px" style="font-family:'STSongti-TC-Light', 'Songti TC';font-weight:300;font-size:75px;">中<tspan x="149.795px 228.59px 307.385px 386.18px 464.975px 543.77px 622.565px 701.36px 780.155px 858.95px 937.745px 1016.54px 1095.335px 1174.13px " y="1833.129px 1833.129px 1833.129px 1833.129px 1833.129px 1833.129px 1833.129px 1833.129px 1833.129px 1833.129px 1833.129px 1833.129px 1833.129px 1833.129px ">期盼能夠更溯源找尋這⽚⼟地的</tspan></text><text x="71px" y="1941.462px" style="font-family:'STSongti-TC-Light', 'Songti TC';font-weight:300;font-size:75px;">⽂化，甚至是建⽴新的⽂化秩序。</text><text x="71px" y="2158.129px" style="font-family:'STSongti-TC-Light', 'Songti TC';font-weight:300;font-size:75px;">電<tspan x="149.795px 228.59px 307.385px 386.18px 464.975px 543.77px 622.565px 701.36px 780.155px 858.95px 937.745px 1016.54px 1095.335px 1174.13px " y="2158.129px 2158.129px 2158.129px 2158.129px 2158.129px 2158.129px 2158.129px 2158.129px 2158.129px 2158.129px 2158.129px 2158.129px 2158.129px 2158.129px ">視新聞常常播著各國元⾸之間的</tspan></text><text x="71px" y="2266.462px" style="font-family:'STSongti-TC-Light', 'Songti TC';font-weight:300;font-size:75px;">政<tspan x="149.795px 228.59px 307.385px 386.18px 464.975px 543.77px 622.565px 701.36px 780.155px 858.95px 937.745px 1016.54px 1095.335px 1174.13px " y="2266.462px 2266.462px 2266.462px 2266.462px 2266.462px 2266.462px 2266.462px 2266.462px 2266.462px 2266.462px 2266.462px 2266.462px 2266.462px 2266.462px ">治角⼒，為了促進經濟成長⽽做</tspan></text><text x="71px" y="2374.796px" style="font-family:'STSongti-TC-Light', 'Songti TC';font-weight:300;font-size:75px;">了<tspan x="149.795px 228.59px 307.385px 386.18px 464.975px 543.77px 622.565px 701.36px 780.155px 858.95px 937.745px 1016.54px 1095.335px 1174.13px " y="2374.796px 2374.796px 2374.796px 2374.796px 2374.796px 2374.796px 2374.796px 2374.796px 2374.796px 2374.796px 2374.796px 2374.796px 2374.796px 2374.796px ">不道德的事情。國家內開始有內</tspan></text><text x="71px" y="2483.129px" style="font-family:'STSongti-TC-Light', 'Songti TC';font-weight:300;font-size:75px;">戰<tspan x="149.795px 228.59px 307.385px 386.18px 464.975px 543.77px 622.565px 701.36px 780.155px 858.95px 937.745px 1016.54px 1095.335px 1174.13px " y="2483.129px 2483.129px 2483.129px 2483.129px 2483.129px 2483.129px 2483.129px 2483.129px 2483.129px 2483.129px 2483.129px 2483.129px 2483.129px 2483.129px ">發⽣，難民開始逃竄︔為了拚經</tspan></text><text x="71px" y="2591.462px" style="font-family:'STSongti-TC-Light', 'Songti TC';font-weight:300;font-size:75px;">濟<tspan x="149.795px 228.59px 307.385px 386.18px 464.975px 543.77px 622.565px 701.36px 780.155px 858.95px 937.745px 1016.54px 1095.335px 1174.13px " y="2591.462px 2591.462px 2591.462px 2591.462px 2591.462px 2591.462px 2591.462px 2591.462px 2591.462px 2591.462px 2591.462px 2591.462px 2591.462px 2591.462px ">，開採⽯油、煤礦，氣候變遷變</tspan></text><text x="71px" y="2699.796px" style="font-family:'STSongti-TC-Light', 'Songti TC';font-weight:300;font-size:75px;">得<tspan x="149.795px 228.59px 307.385px 386.18px 464.975px 543.77px 622.565px 701.36px 780.155px 858.95px 937.745px 1016.54px 1095.335px 1174.13px " y="2699.796px 2699.796px 2699.796px 2699.796px 2699.796px 2699.796px 2699.796px 2699.796px 2699.796px 2699.796px 2699.796px 2699.796px 2699.796px 2699.796px ">劇烈︔議會的質詢畫⾯充斥了謾</tspan></text><text x="71px" y="2808.129px" style="font-family:'STSongti-TC-Light', 'Songti TC';font-weight:300;font-size:75px;">罵<tspan x="149.795px 228.59px 307.385px 386.18px 464.975px 543.77px 622.565px 701.36px 780.155px 858.95px 937.745px 1016.54px 1095.335px 1174.13px " y="2808.129px 2808.129px 2808.129px 2808.129px 2808.129px 2808.129px 2808.129px 2808.129px 2808.129px 2808.129px 2808.129px 2808.129px 2808.129px 2808.129px ">……。我在想，如果⼀個世界，</tspan></text><text x="71px" y="2916.462px" style="font-family:'STSongti-TC-Light', 'Songti TC';font-weight:300;font-size:75px;">所<tspan x="149.795px 228.59px 307.385px 386.18px 464.975px 543.77px 622.565px 701.36px 780.155px 858.95px 937.745px 1016.54px 1095.335px 1174.13px " y="2916.462px 2916.462px 2916.462px 2916.462px 2916.462px 2916.462px 2916.462px 2916.462px 2916.462px 2916.462px 2916.462px 2916.462px 2916.462px 2916.462px ">有的⼈開始注重美，關注美的存</tspan></text><text x="71px" y="3024.796px" style="font-family:'STSongti-TC-Light', 'Songti TC';font-weight:300;font-size:75px;">在<tspan x="149.795px 228.59px 307.385px 386.18px 464.975px 543.77px 622.565px 701.36px 780.155px 858.95px 937.745px 1016.54px 1095.335px 1174.13px " y="3024.796px 3024.796px 3024.796px 3024.796px 3024.796px 3024.796px 3024.796px 3024.796px 3024.796px 3024.796px 3024.796px 3024.796px 3024.796px 3024.796px ">，那這個世界的醜惡會不會少⼀</tspan></text><text x="71px" y="3133.129px" style="font-family:'STSongti-TC-Light', 'Songti TC';font-weight:300;font-size:75px;">點<tspan x="149.795px 228.59px 307.385px 386.18px 464.975px 543.77px 622.565px 701.36px 780.155px 858.95px 937.745px 1016.54px 1095.335px 1174.13px " y="3133.129px 3133.129px 3133.129px 3133.129px 3133.129px 3133.129px 3133.129px 3133.129px 3133.129px 3133.129px 3133.129px 3133.129px 3133.129px 3133.129px ">，會不會少⼀點戰爭，⼈們對於</tspan></text><text x="71px" y="3241.462px" style="font-family:'STSongti-TC-Light', 'Songti TC';font-weight:300;font-size:75px;">⽣<tspan x="149.795px 228.59px 307.385px 386.18px 464.975px 543.77px 622.565px 701.36px 780.155px 858.95px 937.745px 1016.54px 1095.335px 1174.13px " y="3241.462px 3241.462px 3241.462px 3241.462px 3241.462px 3241.462px 3241.462px 3241.462px 3241.462px 3241.462px 3241.462px 3241.462px 3241.462px 3241.462px ">態、⾃然會不會有多ㄧ份愛，⽽</tspan></text><text x="71px" y="3349.796px" style="font-family:'STSongti-TC-Light', 'Songti TC';font-weight:300;font-size:75px;">不<tspan x="149.795px 228.59px 307.385px 386.18px 464.975px 543.77px 622.565px 701.36px 780.155px 858.95px 937.745px 1016.54px 1095.335px 1174.13px " y="3349.796px 3349.796px 3349.796px 3349.796px 3349.796px 3349.796px 3349.796px 3349.796px 3349.796px 3349.796px 3349.796px 3349.796px 3349.796px 3349.796px ">會恣意摧殘。當我們能夠接受以</tspan></text><text x="71px" y="3458.129px" style="font-family:'STSongti-TC-Light', 'Songti TC';font-weight:300;font-size:75px;">藝<tspan x="149.795px 228.59px 307.385px 386.18px 464.975px 543.77px 622.565px 701.36px 780.155px 858.95px 937.745px 1016.54px 1095.335px 1174.13px " y="3458.129px 3458.129px 3458.129px 3458.129px 3458.129px 3458.129px 3458.129px 3458.129px 3458.129px 3458.129px 3458.129px 3458.129px 3458.129px 3458.129px ">術實驗理想，習慣藉由藝術創作</tspan></text><text x="71px" y="3566.462px" style="font-family:'STSongti-TC-Light', 'Songti TC';font-weight:300;font-size:75px;">對<tspan x="149.795px 228.59px 307.385px 386.18px 464.975px 543.77px 622.565px 701.36px 780.155px 858.95px 937.745px 1016.54px 1095.335px 1174.13px " y="3566.462px 3566.462px 3566.462px 3566.462px 3566.462px 3566.462px 3566.462px 3566.462px 3566.462px 3566.462px 3566.462px 3566.462px 3566.462px 3566.462px ">世界的現象做出反思，這世界或</tspan></text><text x="71px" y="3674.796px" style="font-family:'STSongti-TC-Light', 'Songti TC';font-weight:300;font-size:75px;">許<tspan x="149.795px 228.59px 307.385px 386.18px 464.975px 543.77px 622.565px 701.36px 780.155px 858.95px 937.745px 1016.54px 1095.335px 1174.13px " y="3674.796px 3674.796px 3674.796px 3674.796px 3674.796px 3674.796px 3674.796px 3674.796px 3674.796px 3674.796px 3674.796px 3674.796px 3674.796px 3674.796px ">也不會飽受僵化的意識形態摧殘</tspan></text><text x="71px" y="3783.129px" style="font-family:'STSongti-TC-Light', 'Songti TC';font-weight:300;font-size:75px;">了。</text><text x="71px" y="3999.796px" style="font-family:'STSongti-TC-Light', 'Songti TC';font-weight:300;font-size:75px;">創<tspan x="149.795px 228.59px 307.385px 386.18px 464.975px 543.77px 622.565px 701.36px 780.155px 858.95px 937.745px 1016.54px 1095.335px 1174.13px " y="3999.796px 3999.796px 3999.796px 3999.796px 3999.796px 3999.796px 3999.796px 3999.796px 3999.796px 3999.796px 3999.796px 3999.796px 3999.796px 3999.796px ">作著，原本⼩⼩的創作的渴望，</tspan></text><text x="71px" y="4108.129px" style="font-family:'STSongti-TC-Light', 'Songti TC';font-weight:300;font-size:75px;">轉<tspan x="149.795px 228.59px 307.385px 386.18px 464.975px 543.77px 622.565px 701.36px 780.155px 858.95px 937.745px 1016.54px 1095.335px 1174.13px " y="4108.129px 4108.129px 4108.129px 4108.129px 4108.129px 4108.129px 4108.129px 4108.129px 4108.129px 4108.129px 4108.129px 4108.129px 4108.129px 4108.129px ">變成了⼀種信仰，⼀種相信創作</tspan></text><g transform="matrix(75,0,0,75,1249.13,4216.462267)"></g><text x="71px" y="4216.462px" style="font-family:'STSongti-TC-Light', 'Songti TC';font-weight:300;font-size:75px;">能<tspan x="149.795px 228.59px 307.385px 386.18px 464.975px 543.77px 622.565px 701.36px 780.155px 858.95px 937.745px 1016.54px 1095.335px 1174.13px " y="4216.462px 4216.462px 4216.462px 4216.462px 4216.462px 4216.462px 4216.462px 4216.462px 4216.462px 4216.462px 4216.462px 4216.462px 4216.462px 4216.462px ">慢慢改變世界的信仰。經過了⼀</tspan></text></g><g transform="matrix(0.5,0,0,0.5,832.333333,167.9172)"><text x="227px" y="99.796px" style="font-family:'STSongti-TC-Light', 'Songti TC';font-weight:300;font-size:75px;">年<tspan x="300.545px 374.09px 447.635px 521.18px 594.725px 668.27px 741.815px 815.36px 888.905px 962.45px 1035.995px 1109.54px 1183.085px 1256.63px 1330.175px " y="99.796px 99.796px 99.796px 99.796px 99.796px 99.796px 99.796px 99.796px 99.796px 99.796px 99.796px 99.796px 99.796px 99.796px 99.796px ">，我希望這股⼒量能夠繼續擴⼤，</tspan></text><text x="227px" y="208.129px" style="font-family:'STSongti-TC-Light', 'Songti TC';font-weight:300;font-size:75px;">期<tspan x="305.795px 384.59px 463.385px 542.18px 620.975px 699.77px 778.565px 857.36px 936.155px 1014.95px 1093.745px 1172.54px 1251.335px 1330.13px " y="208.129px 208.129px 208.129px 208.129px 208.129px 208.129px 208.129px 208.129px 208.129px 208.129px 208.129px 208.129px 208.129px 208.129px ">望有更多⼈能夠共同參與，共同</tspan></text><text x="227px" y="316.462px" style="font-family:'STSongti-TC-Light', 'Songti TC';font-weight:300;font-size:75px;">感<tspan x="305.795px 384.59px 463.385px 542.18px 620.975px 699.77px 778.565px 857.36px 936.155px 1014.95px 1093.745px 1172.54px 1251.335px 1330.13px " y="316.462px 316.462px 316.462px 316.462px 316.462px 316.462px 316.462px 316.462px 316.462px 316.462px 316.462px 316.462px 316.462px 316.462px ">動，我想讓街道充滿令⼈感動的</tspan></text><text x="227px" y="424.796px" style="font-family:'STSongti-TC-Light', 'Songti TC';font-weight:300;font-size:75px;">畫<tspan x="305.795px 384.59px 463.385px 542.18px 620.975px 699.77px 778.565px 857.36px 936.155px 1014.95px 1093.745px 1172.54px 1251.335px 1330.13px " y="424.796px 424.796px 424.796px 424.796px 424.796px 424.796px 424.796px 424.796px 424.796px 424.796px 424.796px 424.796px 424.796px 424.796px ">⾯，並邀請正在閱讀的你，⼀起</tspan></text><text x="227px" y="533.129px" style="font-family:'STSongti-TC-Light', 'Songti TC';font-weight:300;font-size:75px;">成為有意識的，美的使者。</text><text x="227px" y="749.796px" style="font-family:'STSongti-TC-Bold', 'Songti TC';font-weight:700;font-size:75px;">書店帶來的滋養</text><text x="227px" y="858.129px" style="font-family:'STSongti-TC-Light', 'Songti TC';font-weight:300;font-size:75px;">⽂／朝露</text><text x="227px" y="1074.796px" style="font-family:'STSongti-TC-Light', 'Songti TC';font-weight:300;font-size:75px;">⼈<tspan x="305.795px 384.59px 463.385px 542.18px 620.975px 699.77px 778.565px 857.36px 936.155px 1014.95px 1093.745px 1172.54px 1251.335px 1330.13px " y="1074.796px 1074.796px 1074.796px 1074.796px 1074.796px 1074.796px 1074.796px 1074.796px 1074.796px 1074.796px 1074.796px 1074.796px 1074.796px 1074.796px ">⽣進入下半場的我，對於書店的</tspan></text><text x="227px" y="1183.129px" style="font-family:'STSongti-TC-Light', 'Songti TC';font-weight:300;font-size:75px;">成<tspan x="305.795px 384.59px 463.385px 542.18px 620.975px 699.77px 778.565px 857.36px 936.155px 1014.95px 1093.745px 1172.54px 1251.335px 1330.13px " y="1183.129px 1183.129px 1183.129px 1183.129px 1183.129px 1183.129px 1183.129px 1183.129px 1183.129px 1183.129px 1183.129px 1183.129px 1183.129px 1183.129px ">⽴，覺得是件非常可貴的事。精</tspan></text><text x="227px" y="1291.462px" style="font-family:'STSongti-TC-Light', 'Songti TC';font-weight:300;font-size:75px;">神<tspan x="305.795px 384.59px 463.385px 542.18px 620.975px 699.77px 778.565px 857.36px 936.155px 1014.95px 1093.745px 1172.54px 1251.335px 1330.13px " y="1291.462px 1291.462px 1291.462px 1291.462px 1291.462px 1291.462px 1291.462px 1291.462px 1291.462px 1291.462px 1291.462px 1291.462px 1291.462px 1291.462px ">⽂化的糧食是看不⾒的信仰，⽽</tspan></text><text x="227px" y="1399.796px" style="font-family:'STSongti-TC-Light', 'Songti TC';font-weight:300;font-size:75px;">誠<tspan x="300.545px 374.09px 447.635px 521.18px 594.725px 668.27px 741.815px 815.36px 888.905px 962.45px 1035.995px 1109.54px 1183.085px 1256.63px 1330.175px " y="1399.796px 1399.796px 1399.796px 1399.796px 1399.796px 1399.796px 1399.796px 1399.796px 1399.796px 1399.796px 1399.796px 1399.796px 1399.796px 1399.796px 1399.796px ">如⼩王⼦所說，看不⾒的最珍貴。</tspan></text><text x="227px" y="1508.129px" style="font-family:'STSongti-TC-Light', 'Songti TC';font-weight:300;font-size:75px;">所<tspan x="305.795px 384.59px 463.385px 542.18px 620.975px 699.77px 778.565px 857.36px 936.155px 1014.95px 1093.745px 1172.54px 1251.335px 1330.13px " y="1508.129px 1508.129px 1508.129px 1508.129px 1508.129px 1508.129px 1508.129px 1508.129px 1508.129px 1508.129px 1508.129px 1508.129px 1508.129px 1508.129px ">以抱持著學習與協助的態度，⽀</tspan></text><text x="227px" y="1616.462px" style="font-family:'STSongti-TC-Light', 'Songti TC';font-weight:300;font-size:75px;">持<tspan x="305.795px 384.59px 463.385px 542.18px 620.975px 699.77px 778.565px 857.36px 936.155px 1014.95px 1093.745px 1172.54px 1251.335px 1330.13px " y="1616.462px 1616.462px 1616.462px 1616.462px 1616.462px 1616.462px 1616.462px 1616.462px 1616.462px 1616.462px 1616.462px 1616.462px 1616.462px 1616.462px ">這份理念。書店第⼀年決定開啟</tspan></text><text x="227px" y="1724.796px" style="font-family:'STSongti-TC-Light', 'Songti TC';font-weight:300;font-size:75px;">節<tspan x="305.795px 384.59px 463.385px 542.18px 620.975px 699.77px 778.565px 857.36px 936.155px 1014.95px 1093.745px 1172.54px 1251.335px 1330.13px " y="1724.796px 1724.796px 1724.796px 1724.796px 1724.796px 1724.796px 1724.796px 1724.796px 1724.796px 1724.796px 1724.796px 1724.796px 1724.796px 1724.796px ">⼀元的創作，以看⾒這塊⼟地的</tspan></text><text x="227px" y="1833.129px" style="font-family:'STSongti-TC-Light', 'Songti TC';font-weight:300;font-size:75px;">⽂<tspan x="305.795px 384.59px 463.385px 542.18px 620.975px 699.77px 778.565px 857.36px 936.155px 1014.95px 1093.745px 1172.54px 1251.335px 1330.13px " y="1833.129px 1833.129px 1833.129px 1833.129px 1833.129px 1833.129px 1833.129px 1833.129px 1833.129px 1833.129px 1833.129px 1833.129px 1833.129px 1833.129px ">化。雖認同這樣的概念，但創作</tspan></text><text x="227px" y="1941.462px" style="font-family:'STSongti-TC-Light', 'Songti TC';font-weight:300;font-size:75px;">離<tspan x="305.795px 384.59px 463.385px 542.18px 620.975px 699.77px 778.565px 857.36px 936.155px 1014.95px 1093.745px 1172.54px 1251.335px 1330.13px " y="1941.462px 1941.462px 1941.462px 1941.462px 1941.462px 1941.462px 1941.462px 1941.462px 1941.462px 1941.462px 1941.462px 1941.462px 1941.462px 1941.462px ">我非常遙遠，節慶⽂化亦是，沒</tspan></text><text x="227px" y="2049.796px" style="font-family:'STSongti-TC-Light', 'Songti TC';font-weight:300;font-size:75px;">有<tspan x="305.795px 384.59px 463.385px 542.18px 620.975px 699.77px 778.565px 857.36px 936.155px 1014.95px 1093.745px 1172.54px 1251.335px 1330.13px " y="2049.796px 2049.796px 2049.796px 2049.796px 2049.796px 2049.796px 2049.796px 2049.796px 2049.796px 2049.796px 2049.796px 2049.796px 2049.796px 2049.796px ">豐厚的知識基底，也沒有美學創</tspan></text><text x="227px" y="2158.129px" style="font-family:'STSongti-TC-Light', 'Songti TC';font-weight:300;font-size:75px;">作<tspan x="300.545px 374.09px 447.635px 521.18px 594.725px 668.27px 741.815px 815.36px 888.905px 962.45px 1035.995px 1109.54px 1183.085px 1256.63px 1330.175px " y="2158.129px 2158.129px 2158.129px 2158.129px 2158.129px 2158.129px 2158.129px 2158.129px 2158.129px 2158.129px 2158.129px 2158.129px 2158.129px 2158.129px 2158.129px ">的概念，卻和書店⼀起⾛了⼀年。</tspan></text><text x="227px" y="2266.462px" style="font-family:'STSongti-TC-Light', 'Songti TC';font-weight:300;font-size:75px;">這<tspan x="305.795px 384.59px 463.385px 542.18px 620.975px 699.77px 778.565px 857.36px 936.155px 1014.95px 1093.745px 1172.54px 1251.335px 1330.13px " y="2266.462px 2266.462px 2266.462px 2266.462px 2266.462px 2266.462px 2266.462px 2266.462px 2266.462px 2266.462px 2266.462px 2266.462px 2266.462px 2266.462px ">⼀年來，我與⽗母和孩⼦三代間</tspan></text><text x="227px" y="2374.796px" style="font-family:'STSongti-TC-Light', 'Songti TC';font-weight:300;font-size:75px;">有<tspan x="305.795px 384.59px 463.385px 542.18px 620.975px 699.77px 778.565px 857.36px 936.155px 1014.95px 1093.745px 1172.54px 1251.335px 1330.13px " y="2374.796px 2374.796px 2374.796px 2374.796px 2374.796px 2374.796px 2374.796px 2374.796px 2374.796px 2374.796px 2374.796px 2374.796px 2374.796px 2374.796px ">著微妙的變化，個⼈在琴、書、</tspan></text><text x="227px" y="2483.129px" style="font-family:'STSongti-TC-Light', 'Songti TC';font-weight:300;font-size:75px;">畫⽅⾯多了⼀份堅持⽽稍有成長。</text><text x="227px" y="2699.796px" style="font-family:'STSongti-TC-Light', 'Songti TC';font-weight:300;font-size:75px;">書<tspan x="305.796px 384.591px 463.387px 542.182px " y="2699.796px 2699.796px 2699.796px 2699.796px ">店的「節</tspan></text><text x="620.978px" y="2699.796px" style="font-family:'PingFangTC-Light', 'PingFang TC', sans-serif;font-weight:300;font-size:75px;">・</text><text x="699.774px" y="2699.796px" style="font-family:'STSongti-TC-Light', 'Songti TC';font-weight:300;font-size:75px;">⼀<tspan x="778.569px 857.365px 936.16px 1014.956px 1093.752px 1172.547px 1251.343px 1330.138px " y="2699.796px 2699.796px 2699.796px 2699.796px 2699.796px 2699.796px 2699.796px 2699.796px ">元」活動，認識⼈</tspan></text><text x="227px" y="2808.129px" style="font-family:'STSongti-TC-Light', 'Songti TC';font-weight:300;font-size:75px;">為<tspan x="305.795px 384.59px 463.385px 542.18px 620.975px 699.77px 778.565px 857.36px 936.155px 1014.95px 1093.745px 1172.54px 1251.335px 1330.13px " y="2808.129px 2808.129px 2808.129px 2808.129px 2808.129px 2808.129px 2808.129px 2808.129px 2808.129px 2808.129px 2808.129px 2808.129px 2808.129px 2808.129px ">何要調節、產⽣節慶之原由。也</tspan></text><text x="227px" y="2916.462px" style="font-family:'STSongti-TC-Light', 'Songti TC';font-weight:300;font-size:75px;">是<tspan x="300.545px 374.09px 447.635px 521.18px 594.725px 668.27px 741.815px 815.36px 888.905px 962.45px 1035.995px 1109.54px 1183.085px 1256.63px 1330.175px " y="2916.462px 2916.462px 2916.462px 2916.462px 2916.462px 2916.462px 2916.462px 2916.462px 2916.462px 2916.462px 2916.462px 2916.462px 2916.462px 2916.462px 2916.462px ">⼀種尋根，重新認識「我是誰︖」</tspan></text><text x="227px" y="3024.796px" style="font-family:'STSongti-TC-Light', 'Songti TC';font-weight:300;font-size:75px;">的<tspan x="305.795px 384.59px 463.385px 542.18px 620.975px 699.77px 778.565px 857.36px 936.155px 1014.95px 1093.745px 1172.54px 1251.335px 1330.13px " y="3024.796px 3024.796px 3024.796px 3024.796px 3024.796px 3024.796px 3024.796px 3024.796px 3024.796px 3024.796px 3024.796px 3024.796px 3024.796px 3024.796px ">旅程並與過去的⾃⼰相遇，同時</tspan></text><text x="227px" y="3133.129px" style="font-family:'STSongti-TC-Light', 'Songti TC';font-weight:300;font-size:75px;">發<tspan x="305.795px 384.59px 463.385px 542.18px 620.975px 699.77px 778.565px 857.36px 936.155px 1014.95px 1093.745px 1172.54px 1251.335px 1330.13px " y="3133.129px 3133.129px 3133.129px 3133.129px 3133.129px 3133.129px 3133.129px 3133.129px 3133.129px 3133.129px 3133.129px 3133.129px 3133.129px 3133.129px ">現與⽗母連結彼此⽣命的臍帶開</tspan></text><text x="227px" y="3241.462px" style="font-family:'STSongti-TC-Light', 'Songti TC';font-weight:300;font-size:75px;">始<tspan x="300.545px 374.09px 447.635px 521.18px 594.725px 668.27px 741.815px 815.36px 888.905px 962.45px 1035.995px 1109.54px 1183.085px 1256.63px 1330.175px " y="3241.462px 3241.462px 3241.462px 3241.462px 3241.462px 3241.462px 3241.462px 3241.462px 3241.462px 3241.462px 3241.462px 3241.462px 3241.462px 3241.462px 3241.462px ">微微發光，不再只是⽇常的問候，</tspan></text><text x="227px" y="3349.796px" style="font-family:'STSongti-TC-Light', 'Songti TC';font-weight:300;font-size:75px;">⽽<tspan x="305.795px 384.59px 463.385px 542.18px 620.975px 699.77px 778.565px 857.36px 936.155px 1014.95px 1093.745px 1172.54px 1251.335px 1330.13px " y="3349.796px 3349.796px 3349.796px 3349.796px 3349.796px 3349.796px 3349.796px 3349.796px 3349.796px 3349.796px 3349.796px 3349.796px 3349.796px 3349.796px ">多了更多話題。原來中秋節上⽉</tspan></text><text x="227px" y="3458.129px" style="font-family:'STSongti-TC-Light', 'Songti TC';font-weight:300;font-size:75px;">世<tspan x="300.545px 374.09px 447.635px 521.18px 594.725px 668.27px 741.815px 815.36px 888.905px 962.45px 1035.995px 1109.54px 1183.085px 1256.63px 1330.175px " y="3458.129px 3458.129px 3458.129px 3458.129px 3458.129px 3458.129px 3458.129px 3458.129px 3458.129px 3458.129px 3458.129px 3458.129px 3458.129px 3458.129px 3458.129px ">界賞⽉，是⽗母年代最潮的活動。</tspan></text><text x="227px" y="3566.462px" style="font-family:'STSongti-TC-Light', 'Songti TC';font-weight:300;font-size:75px;">但<tspan x="305.795px 384.59px 463.385px 542.18px 620.975px 699.77px 778.565px 857.36px 936.155px 1014.95px 1093.745px 1172.54px 1251.335px 1330.13px " y="3566.462px 3566.462px 3566.462px 3566.462px 3566.462px 3566.462px 3566.462px 3566.462px 3566.462px 3566.462px 3566.462px 3566.462px 3566.462px 3566.462px ">母親說，她只要在⾃家⾨⼜看著</tspan></text><text x="227px" y="3674.796px" style="font-family:'STSongti-TC-Light', 'Songti TC';font-weight:300;font-size:75px;">⽉<tspan x="311.855px 396.71px 481.565px 566.42px 651.275px 736.13px 820.985px 905.84px 990.695px 1075.55px 1160.405px 1245.26px 1330.115px " y="3674.796px 3674.796px 3674.796px 3674.796px 3674.796px 3674.796px 3674.796px 3674.796px 3674.796px 3674.796px 3674.796px 3674.796px 3674.796px ">亮就⼼滿意⾜，就如古⼈所說</tspan></text><text x="227px" y="3783.129px" style="font-family:'STSongti-TC-Light', 'Songti TC';font-weight:300;font-size:75px;">「<tspan x="305.795px 384.59px 463.385px 542.18px 620.975px 699.77px 778.565px 857.36px 936.155px 1014.95px 1093.745px 1172.54px 1251.335px 1330.13px " y="3783.129px 3783.129px 3783.129px 3783.129px 3783.129px 3783.129px 3783.129px 3783.129px 3783.129px 3783.129px 3783.129px 3783.129px 3783.129px 3783.129px ">閒」字是倚在⾨前望⽉。母親家</tspan></text><text x="227px" y="3891.462px" style="font-family:'STSongti-TC-Light', 'Songti TC';font-weight:300;font-size:75px;">在<tspan x="305.795px 384.59px 463.385px 542.18px 620.975px 699.77px 778.565px 857.36px 936.155px 1014.95px 1093.745px 1172.54px 1251.335px 1330.13px " y="3891.462px 3891.462px 3891.462px 3891.462px 3891.462px 3891.462px 3891.462px 3891.462px 3891.462px 3891.462px 3891.462px 3891.462px 3891.462px 3891.462px ">廟⼜旁，站在家⾨⼜前，看著上</tspan></text><text x="227px" y="3999.796px" style="font-family:'STSongti-TC-Light', 'Songti TC';font-weight:300;font-size:75px;">⾞<tspan x="305.795px 384.59px 463.385px 542.18px 620.975px 699.77px 778.565px 857.36px 936.155px 1014.95px 1093.745px 1172.54px 1251.335px 1330.13px " y="3999.796px 3999.796px 3999.796px 3999.796px 3999.796px 3999.796px 3999.796px 3999.796px 3999.796px 3999.796px 3999.796px 3999.796px 3999.796px 3999.796px ">的⼈買票由⾞掌⼩姐剪票每班⾞</tspan></text><text x="227px" y="4108.129px" style="font-family:'STSongti-TC-Light', 'Songti TC';font-weight:300;font-size:75px;">都<tspan x="305.795px 384.59px 463.385px 542.18px 620.975px 699.77px 778.565px 857.36px 936.155px 1014.95px 1093.745px 1172.54px 1251.335px 1330.13px " y="4108.129px 4108.129px 4108.129px 4108.129px 4108.129px 4108.129px 4108.129px 4108.129px 4108.129px 4108.129px 4108.129px 4108.129px 4108.129px 4108.129px ">擠得滿滿。但母親⼼中還是羨慕</tspan></text><g transform="matrix(75,0,0,75,1405.13,4216.462267)"></g><text x="227px" y="4216.462px" style="font-family:'STSongti-TC-Light', 'Songti TC';font-weight:300;font-size:75px;">著<tspan x="305.795px 384.59px 463.385px 542.18px 620.975px 699.77px 778.565px 857.36px 936.155px 1014.95px 1093.745px 1172.54px 1251.335px 1330.13px " y="4216.462px 4216.462px 4216.462px 4216.462px 4216.462px 4216.462px 4216.462px 4216.462px 4216.462px 4216.462px 4216.462px 4216.462px 4216.462px 4216.462px ">那些能上⾞，也就是經濟能⼒稍</tspan></text></g></svg>