<?xml version="1.0" encoding="UTF-8" standalone="no"?><!DOCTYPE svg PUBLIC "-//W3C//DTD SVG 1.1//EN" "http://www.w3.org/Graphics/SVG/1.1/DTD/svg11.dtd"><svg width="100%" height="100%" viewBox="0 0 1772 2481" version="1.1" xmlns="http://www.w3.org/2000/svg" xmlns:xlink="http://www.w3.org/1999/xlink" xml:space="preserve" xmlns:serif="http://www.serif.com/" style="fill-rule:evenodd;clip-rule:evenodd;stroke-linejoin:round;stroke-miterlimit:2;"><rect x="0" y="0" width="1771.654" height="2480.315" style="fill:#fff;"/><g transform="matrix(0.5,0,0,0.5,260.333333,167.9172)"><text x="71px" y="99.796px" style="font-family:'STSongti-TC-Light', 'Songti TC';font-weight:300;font-size:75px;">好<tspan x="149.795px 228.59px 307.385px 386.18px 464.975px 543.77px 622.565px 701.36px 780.155px 858.95px 937.745px 1016.54px 1095.335px 1174.13px " y="99.796px 99.796px 99.796px 99.796px 99.796px 99.796px 99.796px 99.796px 99.796px 99.796px 99.796px 99.796px 99.796px 99.796px ">的⼈，那時候，⾼雄客運⼀年只</tspan></text><text x="71px" y="208.129px" style="font-family:'STSongti-TC-Light', 'Songti TC';font-weight:300;font-size:75px;">有<tspan x="149.795px 228.59px 307.385px 386.18px 464.975px 543.77px 622.565px 701.36px 780.155px 858.95px 937.745px 1016.54px 1095.335px 1174.13px " y="208.129px 208.129px 208.129px 208.129px 208.129px 208.129px 208.129px 208.129px 208.129px 208.129px 208.129px 208.129px 208.129px 208.129px ">這天會加班次，帶著⼈們上⽉世</tspan></text><text x="71px" y="316.462px" style="font-family:'STSongti-TC-Light', 'Songti TC';font-weight:300;font-size:75px;">界<tspan x="149.795px 228.59px 307.385px 386.18px 464.975px 543.77px 622.565px 701.36px 780.155px 858.95px 937.745px 1016.54px 1095.335px 1174.13px " y="316.462px 316.462px 316.462px 316.462px 316.462px 316.462px 316.462px 316.462px 316.462px 316.462px 316.462px 316.462px 316.462px 316.462px ">賞⽉，如此盛況，就像現在跨年</tspan></text><text x="71px" y="424.796px" style="font-family:'STSongti-TC-Light', 'Songti TC';font-weight:300;font-size:75px;">捷<tspan x="149.795px 228.59px 307.385px 386.18px 464.975px 543.77px 622.565px 701.36px 780.155px 858.95px 937.745px 1016.54px 1095.335px 1174.13px " y="424.796px 424.796px 424.796px 424.796px 424.796px 424.796px 424.796px 424.796px 424.796px 424.796px 424.796px 424.796px 424.796px 424.796px ">運會加開列⾞是⼀樣的。聽完⽗</tspan></text><text x="71px" y="533.129px" style="font-family:'STSongti-TC-Light', 'Songti TC';font-weight:300;font-size:75px;">母<tspan x="149.795px 228.59px 307.385px 386.18px 464.975px 543.77px 622.565px 701.36px 780.155px 858.95px 937.745px 1016.54px 1095.335px 1174.13px " y="533.129px 533.129px 533.129px 533.129px 533.129px 533.129px 533.129px 533.129px 533.129px 533.129px 533.129px 533.129px 533.129px 533.129px ">所⾔，我想當⽗母的⾞掌⼩姐與</tspan></text><text x="71px" y="641.462px" style="font-family:'STSongti-TC-Light', 'Songti TC';font-weight:300;font-size:75px;">司<tspan x="149.795px 228.59px 307.385px 386.18px 464.975px 543.77px 622.565px 701.36px 780.155px 858.95px 937.745px 1016.54px 1095.335px 1174.13px " y="641.462px 641.462px 641.462px 641.462px 641.462px 641.462px 641.462px 641.462px 641.462px 641.462px 641.462px 641.462px 641.462px 641.462px ">機，在⼀年後的中秋，邀請⽗母</tspan></text><text x="71px" y="749.796px" style="font-family:'STSongti-TC-Light', 'Songti TC';font-weight:300;font-size:75px;">至<tspan x="149.795px 228.59px 307.385px 386.18px 464.975px 543.77px 622.565px 701.36px 780.155px 858.95px 937.745px 1016.54px 1095.335px 1174.13px " y="749.796px 749.796px 749.796px 749.796px 749.796px 749.796px 749.796px 749.796px 749.796px 749.796px 749.796px 749.796px 749.796px 749.796px ">⽉世界散步賞⽉，並帶著⽉琴，</tspan></text><text x="71px" y="858.129px" style="font-family:'STSongti-TC-Light', 'Songti TC';font-weight:300;font-size:75px;">彈<tspan x="149.795px 228.59px 307.385px 386.18px 464.975px 543.77px 622.565px 701.36px 780.155px 858.95px 937.745px 1016.54px 1095.335px 1174.13px " y="858.129px 858.129px 858.129px 858.129px 858.129px 858.129px 858.129px 858.129px 858.129px 858.129px 858.129px 858.129px 858.129px 858.129px ">奏著不成調的⽔調歌頭與菅芒花</tspan></text><text x="71px" y="966.462px" style="font-family:'STSongti-TC-Light', 'Songti TC';font-weight:300;font-size:75px;">⼆<tspan x="149.795px 228.59px 307.385px 386.18px 464.975px 543.77px 622.565px 701.36px 780.155px 858.95px 937.745px 1016.54px 1095.335px 1174.13px " y="966.462px 966.462px 966.462px 966.462px 966.462px 966.462px 966.462px 966.462px 966.462px 966.462px 966.462px 966.462px 966.462px 966.462px ">曲，ㄧ起為中秋重新定義，除了</tspan></text><text x="71px" y="1074.796px" style="font-family:'STSongti-TC-Light', 'Songti TC';font-weight:300;font-size:75px;">烤<tspan x="149.795px 228.59px 307.385px 386.18px 464.975px 543.77px 622.565px 701.36px 780.155px 858.95px 937.745px 1016.54px 1095.335px 1174.13px " y="1074.796px 1074.796px 1074.796px 1074.796px 1074.796px 1074.796px 1074.796px 1074.796px 1074.796px 1074.796px 1074.796px 1074.796px 1074.796px 1074.796px ">⾁吃柚⼦外，擁有屬於⾃⼰的中</tspan></text><text x="71px" y="1183.129px" style="font-family:'STSongti-TC-Light', 'Songti TC';font-weight:300;font-size:75px;">秋⽅式。</text><text x="71px" y="1399.796px" style="font-family:'STSongti-TC-Light', 'Songti TC';font-weight:300;font-size:75px;">創<tspan x="149.795px 228.59px 307.385px 386.18px 464.975px 543.77px 622.565px 701.36px 780.155px 858.95px 937.745px 1016.54px 1095.335px 1174.13px " y="1399.796px 1399.796px 1399.796px 1399.796px 1399.796px 1399.796px 1399.796px 1399.796px 1399.796px 1399.796px 1399.796px 1399.796px 1399.796px 1399.796px ">作需⼤量的知識與邏輯上的整合</tspan></text><text x="71px" y="1508.129px" style="font-family:'STSongti-TC-Light', 'Songti TC';font-weight:300;font-size:75px;">為<tspan x="144.545px 218.09px 291.635px 365.18px 438.725px 512.27px 585.815px 659.36px 732.905px 806.45px 879.995px 953.54px 1027.085px 1100.63px 1174.175px " y="1508.129px 1508.129px 1508.129px 1508.129px 1508.129px 1508.129px 1508.129px 1508.129px 1508.129px 1508.129px 1508.129px 1508.129px 1508.129px 1508.129px 1508.129px ">根基，才能往上長枝幹，長出芽、</tspan></text><text x="71px" y="1616.462px" style="font-family:'STSongti-TC-Light', 'Songti TC';font-weight:300;font-size:75px;">綠<tspan x="149.795px 228.59px 307.385px 386.18px 464.975px 543.77px 622.565px 701.36px 780.155px 858.95px 937.745px 1016.54px 1095.335px 1174.13px " y="1616.462px 1616.462px 1616.462px 1616.462px 1616.462px 1616.462px 1616.462px 1616.462px 1616.462px 1616.462px 1616.462px 1616.462px 1616.462px 1616.462px ">葉。⽽⼈容易受限於我執，導致</tspan></text><text x="71px" y="1724.796px" style="font-family:'STSongti-TC-Light', 'Songti TC';font-weight:300;font-size:75px;">錯<tspan x="149.795px 228.59px 307.385px 386.18px 464.975px 543.77px 622.565px 701.36px 780.155px 858.95px 937.745px 1016.54px 1095.335px 1174.13px " y="1724.796px 1724.796px 1724.796px 1724.796px 1724.796px 1724.796px 1724.796px 1724.796px 1724.796px 1724.796px 1724.796px 1724.796px 1724.796px 1724.796px ">誤的理解。每次的創作，沒有閱</tspan></text><text x="71px" y="1833.129px" style="font-family:'STSongti-TC-Light', 'Songti TC';font-weight:300;font-size:75px;">讀<tspan x="149.795px 228.59px 307.385px 386.18px 464.975px 543.77px 622.565px 701.36px 780.155px 858.95px 937.745px 1016.54px 1095.335px 1174.13px " y="1833.129px 1833.129px 1833.129px 1833.129px 1833.129px 1833.129px 1833.129px 1833.129px 1833.129px 1833.129px 1833.129px 1833.129px 1833.129px 1833.129px ">習慣的我，為了理解創作，需要</tspan></text><text x="71px" y="1941.462px" style="font-family:'STSongti-TC-Light', 'Songti TC';font-weight:300;font-size:75px;">知<tspan x="149.795px 228.59px 307.385px 386.18px 464.975px 543.77px 622.565px 701.36px 780.155px 858.95px 937.745px 1016.54px 1095.335px 1174.13px " y="1941.462px 1941.462px 1941.462px 1941.462px 1941.462px 1941.462px 1941.462px 1941.462px 1941.462px 1941.462px 1941.462px 1941.462px 1941.462px 1941.462px ">識來協助，靜下⼼閱讀，其中如</tspan></text><text x="71px" y="2049.796px" style="font-family:'STSongti-TC-Light', 'Songti TC';font-weight:300;font-size:75px;">端<tspan x="149.795px 228.59px 307.385px 386.18px 464.975px 543.77px 622.565px 701.36px 780.155px 858.95px 937.745px 1016.54px 1095.335px 1174.13px " y="2049.796px 2049.796px 2049.796px 2049.796px 2049.796px 2049.796px 2049.796px 2049.796px 2049.796px 2049.796px 2049.796px 2049.796px 2049.796px 2049.796px ">午節重新認識屈原，完整地閱讀</tspan></text><text x="71px" y="2158.129px" style="font-family:'STSongti-TC-Light', 'Songti TC';font-weight:300;font-size:75px;">離<tspan x="149.795px 228.59px 307.385px 386.18px 464.975px 543.77px 622.565px 701.36px 780.155px 858.95px 937.745px 1016.54px 1095.335px 1174.13px " y="2158.129px 2158.129px 2158.129px 2158.129px 2158.129px 2158.129px 2158.129px 2158.129px 2158.129px 2158.129px 2158.129px 2158.129px 2158.129px 2158.129px ">騷，深切感受屈原「亦餘⼼之所</tspan></text><text x="71px" y="2266.462px" style="font-family:'STSongti-TC-Light', 'Songti TC';font-weight:300;font-size:75px;">善<tspan x="149.795px 228.59px 307.385px 386.18px 464.975px 543.77px 622.565px 701.36px 780.155px 858.95px 937.745px 1016.54px 1095.335px 1174.13px " y="2266.462px 2266.462px 2266.462px 2266.462px 2266.462px 2266.462px 2266.462px 2266.462px 2266.462px 2266.462px 2266.462px 2266.462px 2266.462px 2266.462px ">兮，雖九死其猶未悔」、「雖體</tspan></text><text x="71px" y="2374.796px" style="font-family:'STSongti-TC-Light', 'Songti TC';font-weight:300;font-size:75px;">解<tspan x="149.795px 228.59px 307.385px 386.18px 464.975px 543.77px 622.565px 701.36px 780.155px 858.95px 937.745px 1016.54px 1095.335px 1174.13px " y="2374.796px 2374.796px 2374.796px 2374.796px 2374.796px 2374.796px 2374.796px 2374.796px 2374.796px 2374.796px 2374.796px 2374.796px 2374.796px 2374.796px ">吾猶未變兮，豈余⼼之可懲︖」</tspan></text><text x="71px" y="2483.129px" style="font-family:'STSongti-TC-Light', 'Songti TC';font-weight:300;font-size:75px;">的<tspan x="149.795px 228.59px 307.385px 386.18px 464.975px 543.77px 622.565px 701.36px 780.155px 858.95px 937.745px 1016.54px 1095.335px 1174.13px " y="2483.129px 2483.129px 2483.129px 2483.129px 2483.129px 2483.129px 2483.129px 2483.129px 2483.129px 2483.129px 2483.129px 2483.129px 2483.129px 2483.129px ">情操，藉由閱讀更理解屈原，也</tspan></text><text x="71px" y="2591.462px" style="font-family:'STSongti-TC-Light', 'Songti TC';font-weight:300;font-size:75px;">看<tspan x="149.795px 228.59px 307.385px 386.18px 464.975px 543.77px 622.565px 701.36px 780.155px 858.95px 937.745px 1016.54px 1095.335px 1174.13px " y="2591.462px 2591.462px 2591.462px 2591.462px 2591.462px 2591.462px 2591.462px 2591.462px 2591.462px 2591.462px 2591.462px 2591.462px 2591.462px 2591.462px ">⾒某部分的⾃⼰，不吾知其亦已</tspan></text><text x="71px" y="2699.796px" style="font-family:'STSongti-TC-Light', 'Songti TC';font-weight:300;font-size:75px;">兮，苟余情其信芳……。</text><text x="71px" y="2916.462px" style="font-family:'STSongti-TC-Light', 'Songti TC';font-weight:300;font-size:75px;">平<tspan x="149.795px 228.59px 307.385px 386.18px 464.975px 543.77px 622.565px 701.36px 780.155px 858.95px 937.745px 1016.54px 1095.335px 1174.13px " y="2916.462px 2916.462px 2916.462px 2916.462px 2916.462px 2916.462px 2916.462px 2916.462px 2916.462px 2916.462px 2916.462px 2916.462px 2916.462px 2916.462px ">⽇裡，繪畫的學習只是⼀種藝術</tspan></text><text x="71px" y="3024.796px" style="font-family:'STSongti-TC-Light', 'Songti TC';font-weight:300;font-size:75px;">的<tspan x="149.795px 228.59px 307.385px 386.18px 464.975px 543.77px 622.565px 701.36px 780.155px 858.95px 937.745px 1016.54px 1095.335px 1174.13px " y="3024.796px 3024.796px 3024.796px 3024.796px 3024.796px 3024.796px 3024.796px 3024.796px 3024.796px 3024.796px 3024.796px 3024.796px 3024.796px 3024.796px ">素養，亦僅臨摹且有⽼師在旁可</tspan></text><text x="71px" y="3133.129px" style="font-family:'STSongti-TC-Light', 'Songti TC';font-weight:300;font-size:75px;">詢<tspan x="149.795px 228.59px 307.385px 386.18px 464.975px 543.77px 622.565px 701.36px 780.155px 858.95px 937.745px 1016.54px 1095.335px 1174.13px " y="3133.129px 3133.129px 3133.129px 3133.129px 3133.129px 3133.129px 3133.129px 3133.129px 3133.129px 3133.129px 3133.129px 3133.129px 3133.129px 3133.129px ">問繪畫技巧，有繪畫能⼒但從沒</tspan></text><text x="71px" y="3241.462px" style="font-family:'STSongti-TC-Light', 'Songti TC';font-weight:300;font-size:75px;">嘗<tspan x="149.795px 228.59px 307.385px 386.18px 464.975px 543.77px 622.565px 701.36px 780.155px 858.95px 937.745px 1016.54px 1095.335px 1174.13px " y="3241.462px 3241.462px 3241.462px 3241.462px 3241.462px 3241.462px 3241.462px 3241.462px 3241.462px 3241.462px 3241.462px 3241.462px 3241.462px 3241.462px ">試⾃⾏創作。然⽽今年上元節，</tspan></text><text x="71px" y="3349.796px" style="font-family:'STSongti-TC-Light', 'Songti TC';font-weight:300;font-size:75px;">花<tspan x="147.417px 223.835px 300.252px 376.67px 453.087px 529.505px 605.923px 682.34px 758.758px 835.175px 911.593px 948.185px 984.778px 1021.37px 1097.787px 1174.205px " y="3349.796px 3349.796px 3349.796px 3349.796px 3349.796px 3349.796px 3349.796px 3349.796px 3349.796px 3349.796px 3349.796px 3349.796px 3349.796px 3349.796px 3349.796px 3349.796px ">了近⼀週，竟然完成了200公分⾼</tspan></text><text x="71px" y="3458.129px" style="font-family:'STSongti-TC-Light', 'Songti TC';font-weight:300;font-size:75px;">的<tspan x="144.545px 218.09px 291.635px 365.18px 438.725px 512.27px 585.815px 659.36px 732.905px 806.45px 879.995px 953.54px 1027.085px 1100.63px 1174.175px " y="3458.129px 3458.129px 3458.129px 3458.129px 3458.129px 3458.129px 3458.129px 3458.129px 3458.129px 3458.129px 3458.129px 3458.129px 3458.129px 3458.129px 3458.129px ">燈籠畫作，有不受制約的孫悟空、</tspan></text><text x="71px" y="3566.462px" style="font-family:'STSongti-TC-Light', 'Songti TC';font-weight:300;font-size:75px;">不<tspan x="149.795px 228.59px 307.385px 386.18px 464.975px 543.77px 622.565px 701.36px 780.155px 858.95px 937.745px 1016.54px 1095.335px 1174.13px " y="3566.462px 3566.462px 3566.462px 3566.462px 3566.462px 3566.462px 3566.462px 3566.462px 3566.462px 3566.462px 3566.462px 3566.462px 3566.462px 3566.462px ">可思議的山海經、並穿插著⽼鼠</tspan></text><text x="71px" y="3674.796px" style="font-family:'STSongti-TC-Light', 'Songti TC';font-weight:300;font-size:75px;">娶<tspan x="149.795px 228.59px 307.385px 386.18px 464.975px 543.77px 622.565px 701.36px 780.155px 858.95px 937.745px 1016.54px 1095.335px 1174.13px " y="3674.796px 3674.796px 3674.796px 3674.796px 3674.796px 3674.796px 3674.796px 3674.796px 3674.796px 3674.796px 3674.796px 3674.796px 3674.796px 3674.796px ">親，三公尺⾼的燈籠點亮時，真</tspan></text><text x="71px" y="3783.129px" style="font-family:'STSongti-TC-Light', 'Songti TC';font-weight:300;font-size:75px;">的<tspan x="149.795px 228.59px 307.385px 386.18px 464.975px 543.77px 622.565px 701.36px 780.155px 858.95px 937.745px 1016.54px 1095.335px 1174.13px " y="3783.129px 3783.129px 3783.129px 3783.129px 3783.129px 3783.129px 3783.129px 3783.129px 3783.129px 3783.129px 3783.129px 3783.129px 3783.129px 3783.129px ">好美，推著燈籠在城市中⾏⾛，</tspan></text><text x="71px" y="3891.462px" style="font-family:'STSongti-TC-Light', 'Songti TC';font-weight:300;font-size:75px;">喊<tspan x="149.795px 228.59px 307.385px 386.18px 464.975px 543.77px 622.565px 701.36px 780.155px 858.95px 937.745px 1016.54px 1095.335px 1174.13px " y="3891.462px 3891.462px 3891.462px 3891.462px 3891.462px 3891.462px 3891.462px 3891.462px 3891.462px 3891.462px 3891.462px 3891.462px 3891.462px 3891.462px ">著元宵節快樂，為彼此祈福，今</tspan></text><text x="71px" y="3999.796px" style="font-family:'STSongti-TC-Light', 'Songti TC';font-weight:300;font-size:75px;">年<tspan x="144.545px 218.09px 291.635px 365.18px 438.725px 512.27px 585.815px 659.36px 732.905px 806.45px 879.995px 953.54px 1027.085px 1100.63px 1174.175px " y="3999.796px 3999.796px 3999.796px 3999.796px 3999.796px 3999.796px 3999.796px 3999.796px 3999.796px 3999.796px 3999.796px 3999.796px 3999.796px 3999.796px 3999.796px ">的元宵節是我⽣命中最美的⼀篇，</tspan></text><text x="71px" y="4108.129px" style="font-family:'STSongti-TC-Light', 'Songti TC';font-weight:300;font-size:75px;">我<tspan x="149.795px 228.59px 307.385px 386.18px 464.975px 543.77px 622.565px 701.36px 780.155px 858.95px 937.745px 1016.54px 1095.335px 1174.13px " y="4108.129px 4108.129px 4108.129px 4108.129px 4108.129px 4108.129px 4108.129px 4108.129px 4108.129px 4108.129px 4108.129px 4108.129px 4108.129px 4108.129px ">相信亦為⾼雄這座城市增添美學</tspan></text><g transform="matrix(75,0,0,75,896,4216.462267)"></g><text x="71px" y="4216.462px" style="font-family:'STSongti-TC-Light', 'Songti TC';font-weight:300;font-size:75px;">風景，有著⽂化的流轉。</text></g><g transform="matrix(0.5,0,0,0.5,832.333333,167.9172)"><text x="227px" y="99.796px" style="font-family:'STSongti-TC-Light', 'Songti TC';font-weight:300;font-size:75px;">⼀<tspan x="305.795px 384.59px 463.385px 542.18px 620.975px 699.77px 778.565px 857.36px 936.155px 1014.95px 1093.745px 1172.54px 1251.335px 1330.13px " y="99.796px 99.796px 99.796px 99.796px 99.796px 99.796px 99.796px 99.796px 99.796px 99.796px 99.796px 99.796px 99.796px 99.796px ">路下來，中秋、七⼣、中元、下</tspan></text><text x="227px" y="208.129px" style="font-family:'STSongti-TC-Light', 'Songti TC';font-weight:300;font-size:75px;">元<tspan x="305.795px 384.59px 463.385px 542.18px 620.975px 699.77px 778.565px 857.36px 936.155px 1014.95px 1093.745px 1172.54px 1251.335px 1330.13px " y="208.129px 208.129px 208.129px 208.129px 208.129px 208.129px 208.129px 208.129px 208.129px 208.129px 208.129px 208.129px 208.129px 208.129px ">、上元、重陽、清明、端午……</tspan></text><text x="227px" y="316.462px" style="font-family:'STSongti-TC-Light', 'Songti TC';font-weight:300;font-size:75px;">⽗<tspan x="305.795px 384.59px 463.385px 542.18px 620.975px 699.77px 778.565px 857.36px 936.155px 1014.95px 1093.745px 1172.54px 1251.335px 1330.13px " y="316.462px 316.462px 316.462px 316.462px 316.462px 316.462px 316.462px 316.462px 316.462px 316.462px 316.462px 316.462px 316.462px 316.462px ">母成了我在創作過程諮詢的活字</tspan></text><text x="227px" y="424.796px" style="font-family:'STSongti-TC-Light', 'Songti TC';font-weight:300;font-size:75px;">典<tspan x="305.795px 384.59px 463.385px 542.18px 620.975px 699.77px 778.565px 857.36px 936.155px 1014.95px 1093.745px 1172.54px 1251.335px 1330.13px " y="424.796px 424.796px 424.796px 424.796px 424.796px 424.796px 424.796px 424.796px 424.796px 424.796px 424.796px 424.796px 424.796px 424.796px ">，孩⼦也參與成年禮七⼣祭典，</tspan></text><text x="227px" y="533.129px" style="font-family:'STSongti-TC-Light', 'Songti TC';font-weight:300;font-size:75px;">在<tspan x="305.796px 384.592px 463.388px 542.184px 620.98px 699.776px 778.572px 857.368px " y="533.129px 533.129px 533.129px 533.129px 533.129px 533.129px 533.129px 533.129px ">這⼀年因為書店節</tspan></text><text x="936.164px" y="533.129px" style="font-family:'PingFangTC-Light', 'PingFang TC', sans-serif;font-weight:300;font-size:75px;">・</text><text x="1014.96px" y="533.129px" style="font-family:'STSongti-TC-Light', 'Songti TC';font-weight:300;font-size:75px;">⼀<tspan x="1093.756px 1172.552px 1251.348px 1330.144px " y="533.129px 533.129px 533.129px 533.129px ">元，微妙</tspan></text><text x="227px" y="641.462px" style="font-family:'STSongti-TC-Light', 'Songti TC';font-weight:300;font-size:75px;">串<tspan x="305.795px 384.59px 463.385px 542.18px 620.975px 699.77px 778.565px 857.36px 936.155px 1014.95px 1093.745px 1172.54px 1251.335px 1330.13px " y="641.462px 641.462px 641.462px 641.462px 641.462px 641.462px 641.462px 641.462px 641.462px 641.462px 641.462px 641.462px 641.462px 641.462px ">起三代間的互動關係，冬至⽴下</tspan></text><text x="227px" y="749.796px" style="font-family:'STSongti-TC-Light', 'Songti TC';font-weight:300;font-size:75px;">練<tspan x="300.545px 374.09px 447.635px 521.18px 594.725px 668.27px 741.815px 815.36px 888.905px 962.45px 1035.995px 1109.54px 1183.085px 1256.63px 1330.175px " y="749.796px 749.796px 749.796px 749.796px 749.796px 749.796px 749.796px 749.796px 749.796px 749.796px 749.796px 749.796px 749.796px 749.796px 749.796px ">⽉琴的九九消寒圖也⾃律地完成，</tspan></text><text x="227px" y="858.129px" style="font-family:'STSongti-TC-Light', 'Songti TC';font-weight:300;font-size:75px;">包<tspan x="305.795px 384.59px 463.385px 542.18px 620.975px 699.77px 778.565px 857.36px 936.155px 1014.95px 1093.745px 1172.54px 1251.335px 1330.13px " y="858.129px 858.129px 858.129px 858.129px 858.129px 858.129px 858.129px 858.129px 858.129px 858.129px 858.129px 858.129px 858.129px 858.129px ">含與夥伴互相學習，皆成為⽣活</tspan></text><g transform="matrix(75,0,0,75,827,966.462267)"></g><text x="227px" y="966.462px" style="font-family:'STSongti-TC-Light', 'Songti TC';font-weight:300;font-size:75px;">中最溫暖的實踐。</text></g></svg>