<?xml version="1.0" encoding="UTF-8" standalone="no"?><!DOCTYPE svg PUBLIC "-//W3C//DTD SVG 1.1//EN" "http://www.w3.org/Graphics/SVG/1.1/DTD/svg11.dtd"><svg width="100%" height="100%" viewBox="0 0 1772 2481" version="1.1" xmlns="http://www.w3.org/2000/svg" xmlns:xlink="http://www.w3.org/1999/xlink" xml:space="preserve" xmlns:serif="http://www.serif.com/" style="fill-rule:evenodd;clip-rule:evenodd;stroke-linejoin:round;stroke-miterlimit:2;"><rect x="0" y="0" width="1771.654" height="2480.315" style="fill:#fff;"/><g transform="matrix(0.5,0,0,0.5,260.333333,167.9172)"><text x="71px" y="99.796px" style="font-family:'STSongti-TC-Light', 'Songti TC';font-weight:300;font-size:75px;">⽽<tspan x="149.795px 228.59px 307.385px 386.18px 464.975px 543.77px 622.565px 701.36px 780.155px 858.95px 937.745px 1016.54px 1095.335px 1174.13px " y="99.796px 99.796px 99.796px 99.796px 99.796px 99.796px 99.796px 99.796px 99.796px 99.796px 99.796px 99.796px 99.796px 99.796px ">嘗試重新過節的故事。但寫的其</tspan></text><text x="71px" y="208.129px" style="font-family:'STSongti-TC-Light', 'Songti TC';font-weight:300;font-size:75px;">實<tspan x="149.795px 228.59px 307.385px 386.18px 464.975px 543.77px 622.565px 701.36px 780.155px 858.95px 937.745px 1016.54px 1095.335px 1174.13px " y="208.129px 208.129px 208.129px 208.129px 208.129px 208.129px 208.129px 208.129px 208.129px 208.129px 208.129px 208.129px 208.129px 208.129px ">是⾃⼰對⽂化的糾結與迷惘。突</tspan></text><text x="71px" y="316.462px" style="font-family:'STSongti-TC-Light', 'Songti TC';font-weight:300;font-size:75px;">然<tspan x="149.795px 228.59px 307.385px 386.18px 464.975px 543.77px 622.565px 701.36px 780.155px 858.95px 937.745px 1016.54px 1095.335px 1174.13px " y="316.462px 316.462px 316.462px 316.462px 316.462px 316.462px 316.462px 316.462px 316.462px 316.462px 316.462px 316.462px 316.462px 316.462px ">想著，書店既然作為⼀個實際存</tspan></text><text x="71px" y="424.796px" style="font-family:'STSongti-TC-Light', 'Songti TC';font-weight:300;font-size:75px;">在<tspan x="149.795px 228.59px 307.385px 386.18px 464.975px 543.77px 622.565px 701.36px 780.155px 858.95px 937.745px 1016.54px 1095.335px 1174.13px " y="424.796px 424.796px 424.796px 424.796px 424.796px 424.796px 424.796px 424.796px 424.796px 424.796px 424.796px 424.796px 424.796px 424.796px ">的場所，⽽⼩說莫⼤的浪漫不正</tspan></text><text x="71px" y="533.129px" style="font-family:'STSongti-TC-Light', 'Songti TC';font-weight:300;font-size:75px;">是<tspan x="149.795px 228.59px 307.385px 386.18px 464.975px 543.77px 622.565px 701.36px 780.155px 858.95px 937.745px 1016.54px 1095.335px 1174.13px " y="533.129px 533.129px 533.129px 533.129px 533.129px 533.129px 533.129px 533.129px 533.129px 533.129px 533.129px 533.129px 533.129px 533.129px ">將其中的理念、幻想、追求化為</tspan></text><text x="71px" y="641.462px" style="font-family:'STSongti-TC-Light', 'Songti TC';font-weight:300;font-size:75px;">現實?</text><text x="71px" y="858.129px" style="font-family:'STSongti-TC-Light', 'Songti TC';font-weight:300;font-size:75px;">帶<tspan x="149.795px 228.59px 307.385px 386.18px 464.975px 543.77px 622.565px 701.36px 780.155px 858.95px 937.745px 1016.54px 1095.335px 1174.13px " y="858.129px 858.129px 858.129px 858.129px 858.129px 858.129px 858.129px 858.129px 858.129px 858.129px 858.129px 858.129px 858.129px 858.129px ">著想實驗⽂字的衝動，對照起當</tspan></text><text x="71px" y="966.462px" style="font-family:'STSongti-TC-Light', 'Songti TC';font-weight:300;font-size:75px;">時<tspan x="149.795px 228.59px 307.385px 386.18px 464.975px 543.77px 622.565px 701.36px 780.155px 858.95px 937.745px 1016.54px 1095.335px 1174.13px " y="966.462px 966.462px 966.462px 966.462px 966.462px 966.462px 966.462px 966.462px 966.462px 966.462px 966.462px 966.462px 966.462px 966.462px ">⽉份，即將中秋，很快地下了⼀</tspan></text><text x="71px" y="1074.796px" style="font-family:'STSongti-TC-Light', 'Songti TC';font-weight:300;font-size:75px;">個<tspan x="149.795px 228.59px 307.385px 386.18px 464.975px 543.77px 622.565px 701.36px 780.155px 858.95px 937.745px 1016.54px 1095.335px 1174.13px " y="1074.796px 1074.796px 1074.796px 1074.796px 1074.796px 1074.796px 1074.796px 1074.796px 1074.796px 1074.796px 1074.796px 1074.796px 1074.796px 1074.796px ">決定：與書店同步出發，要開始</tspan></text><text x="71px" y="1183.129px" style="font-family:'STSongti-TC-Light', 'Songti TC';font-weight:300;font-size:75px;">過節了！</text><text x="71px" y="1399.796px" style="font-family:'STKaitiTC-Bold', 'Kaiti TC';font-size:75px;">——節⽇的「節」，是調節的</text><g transform="matrix(75,0,0,75,371,1508.128933)"></g><text x="71px" y="1508.129px" style="font-family:'STKaitiTC-Bold', 'Kaiti TC';font-size:75px;">「節」。</text></g><g transform="matrix(0.5,0,0,0.5,466.583333,830.630533)"><text x="127.25px" y="291.036px" style="font-family:'STKaitiTC-Bold', 'Kaiti TC';font-size:75px;">《計畫：節</text><text x="502.25px" y="291.036px" style="font-family:'PingFangTC-Semibold', 'PingFang TC', sans-serif;font-weight:600;font-size:75px;">・</text><g transform="matrix(75,0,0,75,802.25,291.0356)"></g><text x="577.25px" y="291.036px" style="font-family:'STKaitiTC-Bold', 'Kaiti TC';font-size:75px;">⼀元》</text></g><g transform="matrix(0.5,0,0,0.5,260.333333,930.583867)"><text x="71px" y="307.796px" style="font-family:'STSongti-TC-Light', 'Songti TC';font-weight:300;font-size:75px;">雖<tspan x="149.795px 228.59px 307.385px 386.18px 464.975px 543.77px 622.565px 701.36px 780.155px 858.95px 937.745px 1016.54px 1095.335px 1174.13px " y="307.796px 307.796px 307.796px 307.796px 307.796px 307.796px 307.796px 307.796px 307.796px 307.796px 307.796px 307.796px 307.796px 307.796px ">然說是「過節」，但⽴⾜點卻不</tspan></text><text x="71px" y="416.129px" style="font-family:'STSongti-TC-Light', 'Songti TC';font-weight:300;font-size:75px;">在<tspan x="149.795px 228.59px 307.385px 386.18px 464.975px 543.77px 622.565px 701.36px 780.155px 858.95px 937.745px 1016.54px 1095.335px 1174.13px " y="416.129px 416.129px 416.129px 416.129px 416.129px 416.129px 416.129px 416.129px 416.129px 416.129px 416.129px 416.129px 416.129px 416.129px ">傳統的⽂獻，⽽在書店的藏書，</tspan></text><text x="71px" y="524.462px" style="font-family:'STSongti-TC-Light', 'Songti TC';font-weight:300;font-size:75px;">其<tspan x="149.795px 228.59px 307.385px 386.18px 464.975px 543.77px 622.565px 701.36px 780.155px 858.95px 937.745px 1016.54px 1095.335px 1174.13px " y="524.462px 524.462px 524.462px 524.462px 524.462px 524.462px 524.462px 524.462px 524.462px 524.462px 524.462px 524.462px 524.462px 524.462px ">中又以當代思潮為⾸要。⽅法上</tspan></text><text x="71px" y="632.796px" style="font-family:'STSongti-TC-Light', 'Songti TC';font-weight:300;font-size:75px;">雖<tspan x="149.795px 228.59px 307.385px 386.18px 464.975px 543.77px 622.565px 701.36px 780.155px 858.95px 937.745px 1016.54px 1095.335px 1174.13px " y="632.796px 632.796px 632.796px 632.796px 632.796px 632.796px 632.796px 632.796px 632.796px 632.796px 632.796px 632.796px 632.796px 632.796px ">⾃認為是結構主義式的，但缺乏</tspan></text><text x="71px" y="741.129px" style="font-family:'STSongti-TC-Light', 'Songti TC';font-weight:300;font-size:75px;">認<tspan x="149.795px 228.59px 307.385px 386.18px 464.975px 543.77px 622.565px 701.36px 780.155px 858.95px 937.745px 1016.54px 1095.335px 1174.13px " y="741.129px 741.129px 741.129px 741.129px 741.129px 741.129px 741.129px 741.129px 741.129px 741.129px 741.129px 741.129px 741.129px 741.129px ">證所以可能只是種思考遊戲，至</tspan></text><text x="71px" y="849.462px" style="font-family:'STSongti-TC-Light', 'Songti TC';font-weight:300;font-size:75px;">少<tspan x="149.795px 228.59px 307.385px 386.18px 464.975px 543.77px 622.565px 701.36px 780.155px 858.95px 937.745px 1016.54px 1095.335px 1174.13px " y="849.462px 849.462px 849.462px 849.462px 849.462px 849.462px 849.462px 849.462px 849.462px 849.462px 849.462px 849.462px 849.462px 849.462px ">確定跟既定觀念上的「過節」有</tspan></text><text x="71px" y="957.796px" style="font-family:'STSongti-TC-Light', 'Songti TC';font-weight:300;font-size:75px;">很<tspan x="149.795px 228.59px 307.385px 386.18px 464.975px 543.77px 622.565px 701.36px 780.155px 858.95px 937.745px 1016.54px 1095.335px 1174.13px " y="957.796px 957.796px 957.796px 957.796px 957.796px 957.796px 957.796px 957.796px 957.796px 957.796px 957.796px 957.796px 957.796px 957.796px ">⼤的落差。比⽅中秋以⽉亮循環</tspan></text><text x="71px" y="1066.129px" style="font-family:'STSongti-TC-Light', 'Songti TC';font-weight:300;font-size:75px;">的<tspan x="149.795px 228.59px 307.385px 386.18px 464.975px 543.77px 622.565px 701.36px 780.155px 858.95px 937.745px 1016.54px 1095.335px 1174.13px " y="1066.129px 1066.129px 1066.129px 1066.129px 1066.129px 1066.129px 1066.129px 1066.129px 1066.129px 1066.129px 1066.129px 1066.129px 1066.129px 1066.129px ">意象，討論古今中外貫穿的詩情</tspan></text><text x="71px" y="1174.462px" style="font-family:'STSongti-TC-Light', 'Songti TC';font-weight:300;font-size:75px;">象<tspan x="149.795px 228.59px 307.385px 386.18px 464.975px 543.77px 622.565px 701.36px 780.155px 858.95px 937.745px 1016.54px 1095.335px 1174.13px " y="1174.462px 1174.462px 1174.462px 1174.462px 1174.462px 1174.462px 1174.462px 1174.462px 1174.462px 1174.462px 1174.462px 1174.462px 1174.462px 1174.462px ">徵，並連結了⼈內在的⾃然性，</tspan></text><text x="71px" y="1282.796px" style="font-family:'STSongti-TC-Light', 'Songti TC';font-weight:300;font-size:75px;">表<tspan x="149.795px 228.59px 307.385px 386.18px 464.975px 543.77px 622.565px 701.36px 780.155px 858.95px 937.745px 1016.54px 1095.335px 1174.13px " y="1282.796px 1282.796px 1282.796px 1282.796px 1282.796px 1282.796px 1282.796px 1282.796px 1282.796px 1282.796px 1282.796px 1282.796px 1282.796px 1282.796px ">現⼈與⽉亮的對話關係……。那</tspan></text><text x="71px" y="1391.129px" style="font-family:'STSongti-TC-Light', 'Songti TC';font-weight:300;font-size:75px;">時<tspan x="149.795px 228.59px 307.385px 386.18px 464.975px 543.77px 622.565px 701.36px 780.155px 858.95px 937.745px 1016.54px 1095.335px 1174.13px " y="1391.129px 1391.129px 1391.129px 1391.129px 1391.129px 1391.129px 1391.129px 1391.129px 1391.129px 1391.129px 1391.129px 1391.129px 1391.129px 1391.129px ">候做的轎⼦命名為⽉轎，塗上紅</tspan></text><text x="71px" y="1499.462px" style="font-family:'STSongti-TC-Light', 'Songti TC';font-weight:300;font-size:75px;">漆<tspan x="144.545px 218.09px 291.635px 365.18px 438.725px 512.27px 585.815px 659.36px 732.905px 806.45px 879.995px 953.54px 1027.085px 1100.63px 1174.175px " y="1499.462px 1499.462px 1499.462px 1499.462px 1499.462px 1499.462px 1499.462px 1499.462px 1499.462px 1499.462px 1499.462px 1499.462px 1499.462px 1499.462px 1499.462px ">，放入婚儀的意象，在午夜零時，</tspan></text><text x="71px" y="1607.796px" style="font-family:'STSongti-TC-Light', 'Songti TC';font-weight:300;font-size:75px;">跟<tspan x="149.795px 228.59px 307.385px 386.18px 464.975px 543.77px 622.565px 701.36px 780.155px 858.95px 937.745px 1016.54px 1095.335px 1174.13px " y="1607.796px 1607.796px 1607.796px 1607.796px 1607.796px 1607.796px 1607.796px 1607.796px 1607.796px 1607.796px 1607.796px 1607.796px 1607.796px 1607.796px ">幾個志同道合的夥伴，抬著⽉巫</tspan></text><text x="71px" y="1716.129px" style="font-family:'STSongti-TC-Light', 'Songti TC';font-weight:300;font-size:75px;">（<tspan x="149.795px 228.59px 307.385px 386.18px 464.975px 543.77px 622.565px 701.36px 780.155px 858.95px 937.745px 1016.54px 1095.335px 1174.13px " y="1716.129px 1716.129px 1716.129px 1716.129px 1716.129px 1716.129px 1716.129px 1716.129px 1716.129px 1716.129px 1716.129px 1716.129px 1716.129px 1716.129px ">某夥伴的妹妹），⾛過技擊館，</tspan></text><text x="71px" y="1824.462px" style="font-family:'STSongti-TC-Light', 'Songti TC';font-weight:300;font-size:75px;">直<tspan x="149.795px 228.59px 307.385px 386.18px 464.975px 543.77px 622.565px 701.36px 780.155px 858.95px 937.745px 1016.54px 1095.335px 1174.13px " y="1824.462px 1824.462px 1824.462px 1824.462px 1824.462px 1824.462px 1824.462px 1824.462px 1824.462px 1824.462px 1824.462px 1824.462px 1824.462px 1824.462px ">至中正公園，⼤夥便在草地上，</tspan></text><text x="71px" y="1932.796px" style="font-family:'STSongti-TC-Light', 'Songti TC';font-weight:300;font-size:75px;">配<tspan x="149.795px 228.59px 307.385px 386.18px 464.975px 543.77px 622.565px 701.36px 780.155px 858.95px 937.745px 1016.54px 1095.335px 1174.13px " y="1932.796px 1932.796px 1932.796px 1932.796px 1932.796px 1932.796px 1932.796px 1932.796px 1932.796px 1932.796px 1932.796px 1932.796px 1932.796px 1932.796px ">合著簡單舞步，喚醒了別於烤⾁</tspan></text><text x="71px" y="2041.129px" style="font-family:'STSongti-TC-Light', 'Songti TC';font-weight:300;font-size:75px;">歡<tspan x="144.545px 218.09px 291.635px 365.18px 438.725px 512.27px 585.815px 659.36px 732.905px 806.45px 879.995px 953.54px 1027.085px 1100.63px 1174.175px " y="2041.129px 2041.129px 2041.129px 2041.129px 2041.129px 2041.129px 2041.129px 2041.129px 2041.129px 2041.129px 2041.129px 2041.129px 2041.129px 2041.129px 2041.129px ">笑，⼀種莊嚴⽽寧靜的賞⽉⽅式，</tspan></text><text x="71px" y="2149.462px" style="font-family:'STSongti-TC-Light', 'Songti TC';font-weight:300;font-size:75px;">如<tspan x="149.795px 228.59px 307.385px 386.18px 464.975px 543.77px 622.565px 701.36px 780.155px 858.95px 937.745px 1016.54px 1095.335px 1174.13px " y="2149.462px 2149.462px 2149.462px 2149.462px 2149.462px 2149.462px 2149.462px 2149.462px 2149.462px 2149.462px 2149.462px 2149.462px 2149.462px 2149.462px ">今回想，那確實成為此⽣之中，</tspan></text><text x="71px" y="2257.796px" style="font-family:'STSongti-TC-Light', 'Songti TC';font-weight:300;font-size:75px;">對<tspan x="149.795px 228.59px 307.385px 386.18px 464.975px 543.77px 622.565px 701.36px 780.155px 858.95px 937.745px 1016.54px 1095.335px 1174.13px " y="2257.796px 2257.796px 2257.796px 2257.796px 2257.796px 2257.796px 2257.796px 2257.796px 2257.796px 2257.796px 2257.796px 2257.796px 2257.796px 2257.796px ">⽉亮最美麗的記憶，⽽這竟然是</tspan></text><text x="71px" y="2366.129px" style="font-family:'STSongti-TC-Light', 'Songti TC';font-weight:300;font-size:75px;">可能創造的。</text><text x="71px" y="2582.796px" style="font-family:'STSongti-TC-Light', 'Songti TC';font-weight:300;font-size:75px;">後<tspan x="149.795px 228.59px 307.385px 386.18px 464.975px 543.77px 622.565px 701.36px 780.155px 858.95px 937.745px 1016.54px 1095.335px 1174.13px " y="2582.796px 2582.796px 2582.796px 2582.796px 2582.796px 2582.796px 2582.796px 2582.796px 2582.796px 2582.796px 2582.796px 2582.796px 2582.796px 2582.796px ">來又經過了重九、下元、冬至，</tspan></text><g transform="matrix(75,0,0,75,1249.13,2691.128933)"></g><text x="71px" y="2691.129px" style="font-family:'STSongti-TC-Light', 'Songti TC';font-weight:300;font-size:75px;">思<tspan x="149.795px 228.59px 307.385px 386.18px 464.975px 543.77px 622.565px 701.36px 780.155px 858.95px 937.745px 1016.54px 1095.335px 1174.13px " y="2691.129px 2691.129px 2691.129px 2691.129px 2691.129px 2691.129px 2691.129px 2691.129px 2691.129px 2691.129px 2691.129px 2691.129px 2691.129px 2691.129px ">考了關於極限、命運等問題。在</tspan></text></g><g transform="matrix(0.5,0,0,0.5,832.333333,167.9172)"><text x="227px" y="99.796px" style="font-family:'STSongti-TC-Light', 'Songti TC';font-weight:300;font-size:75px;">上<tspan x="305.795px 384.59px 463.385px 542.18px 620.975px 699.77px 778.565px 857.36px 936.155px 1014.95px 1093.745px 1172.54px 1251.335px 1330.13px " y="99.796px 99.796px 99.796px 99.796px 99.796px 99.796px 99.796px 99.796px 99.796px 99.796px 99.796px 99.796px 99.796px 99.796px ">元的時候有⼀次突破，推著三台</tspan></text><text x="227px" y="208.129px" style="font-family:'STSongti-TC-Light', 'Songti TC';font-weight:300;font-size:75px;">⾼<tspan x="305.795px 384.59px 463.385px 542.18px 620.975px 699.77px 778.565px 857.36px 936.155px 1014.95px 1093.745px 1172.54px 1251.335px 1330.13px " y="208.129px 208.129px 208.129px 208.129px 208.129px 208.129px 208.129px 208.129px 208.129px 208.129px 208.129px 208.129px 208.129px 208.129px ">達四公尺的燈⾞，⾛至鹽埕，途</tspan></text><text x="227px" y="316.462px" style="font-family:'STSongti-TC-Light', 'Songti TC';font-weight:300;font-size:75px;">中<tspan x="298.587px 370.175px 441.762px 513.35px 584.937px 656.525px 728.112px 799.7px 871.287px 942.875px 1014.462px 1086.05px 1157.637px 1229.225px 1271.938px 1306.475px 1330.137px " y="316.462px 316.462px 316.462px 316.462px 316.462px 316.462px 316.462px 316.462px 316.462px 316.462px 316.462px 316.462px 316.462px 316.462px 316.462px 316.462px 316.462px ">拜訪七号閱覽室、⼄⽊、廢墟Bar、</tspan></text><text x="227px" y="424.796px" style="font-family:'STSongti-TC-Light', 'Songti TC';font-weight:300;font-size:75px;">野<tspan x="305.795px 384.59px 463.385px 542.18px 620.975px 699.77px 778.565px 857.36px 936.155px 1014.95px 1093.745px 1172.54px 1251.335px 1330.13px " y="424.796px 424.796px 424.796px 424.796px 424.796px 424.796px 424.796px 424.796px 424.796px 424.796px 424.796px 424.796px 424.796px 424.796px ">無境等⾼雄⽂藝相關場所，抱持</tspan></text><text x="227px" y="533.129px" style="font-family:'STSongti-TC-Light', 'Songti TC';font-weight:300;font-size:75px;">著<tspan x="305.795px 384.59px 463.385px 542.18px 620.975px 699.77px 778.565px 857.36px 936.155px 1014.95px 1093.745px 1172.54px 1251.335px 1330.13px " y="533.129px 533.129px 533.129px 533.129px 533.129px 533.129px 533.129px 533.129px 533.129px 533.129px 533.129px 533.129px 533.129px 533.129px ">⼀種串連的⼼態，希望⽂藝可以</tspan></text><text x="227px" y="641.462px" style="font-family:'STSongti-TC-Light', 'Songti TC';font-weight:300;font-size:75px;">互<tspan x="300.545px 374.09px 447.635px 521.18px 594.725px 668.27px 741.815px 815.36px 888.905px 962.45px 1035.995px 1109.54px 1183.085px 1256.63px 1330.175px " y="641.462px 641.462px 641.462px 641.462px 641.462px 641.462px 641.462px 641.462px 641.462px 641.462px 641.462px 641.462px 641.462px 641.462px 641.462px ">相來往，以創造出屬於美、⽣命、</tspan></text><text x="227px" y="749.796px" style="font-family:'STSongti-TC-Light', 'Songti TC';font-weight:300;font-size:75px;">熱<tspan x="305.795px 384.59px 463.385px 542.18px 620.975px 699.77px 778.565px 857.36px 936.155px 1014.95px 1093.745px 1172.54px 1251.335px 1330.13px " y="749.796px 749.796px 749.796px 749.796px 749.796px 749.796px 749.796px 749.796px 749.796px 749.796px 749.796px 749.796px 749.796px 749.796px ">情的城市風景，雖然⾼雄常被認</tspan></text><text x="227px" y="858.129px" style="font-family:'STSongti-TC-Light', 'Songti TC';font-weight:300;font-size:75px;">為<tspan x="305.795px 384.59px 463.385px 542.18px 620.975px 699.77px 778.565px 857.36px 936.155px 1014.95px 1093.745px 1172.54px 1251.335px 1330.13px " y="858.129px 858.129px 858.129px 858.129px 858.129px 858.129px 858.129px 858.129px 858.129px 858.129px 858.129px 858.129px 858.129px 858.129px ">是⽂化沙漠，但所謂的絲路不也</tspan></text><text x="227px" y="966.462px" style="font-family:'STSongti-TC-Light', 'Songti TC';font-weight:300;font-size:75px;">是<tspan x="305.795px 384.59px 463.385px 542.18px 620.975px 699.77px 778.565px 857.36px 936.155px 1014.95px 1093.745px 1172.54px 1251.335px 1330.13px " y="966.462px 966.462px 966.462px 966.462px 966.462px 966.462px 966.462px 966.462px 966.462px 966.462px 966.462px 966.462px 966.462px 966.462px ">從沙漠中⾛出來的︖帶著天真⽽</tspan></text><text x="227px" y="1074.796px" style="font-family:'STSongti-TC-Light', 'Songti TC';font-weight:300;font-size:75px;">樂<tspan x="305.795px 384.59px 463.385px 542.18px 620.975px 699.77px 778.565px 857.36px 936.155px 1014.95px 1093.745px 1172.54px 1251.335px 1330.13px " y="1074.796px 1074.796px 1074.796px 1074.796px 1074.796px 1074.796px 1074.796px 1074.796px 1074.796px 1074.796px 1074.796px 1074.796px 1074.796px 1074.796px ">觀的⼼情，也確實吸引了比往常</tspan></text><text x="227px" y="1183.129px" style="font-family:'STSongti-TC-Light', 'Songti TC';font-weight:300;font-size:75px;">還<tspan x="305.795px 384.59px 463.385px 542.18px 620.975px 699.77px 778.565px 857.36px 936.155px 1014.95px 1093.745px 1172.54px 1251.335px 1330.13px " y="1183.129px 1183.129px 1183.129px 1183.129px 1183.129px 1183.129px 1183.129px 1183.129px 1183.129px 1183.129px 1183.129px 1183.129px 1183.129px 1183.129px ">要多的⼈參與，⾏列第⼀次加入</tspan></text><text x="227px" y="1291.462px" style="font-family:'STSongti-TC-Light', 'Songti TC';font-weight:300;font-size:75px;">了<tspan x="305.795px 384.59px 463.385px 542.18px 620.975px 699.77px 778.565px 857.36px 936.155px 1014.95px 1093.745px 1172.54px 1251.335px 1330.13px " y="1291.462px 1291.462px 1291.462px 1291.462px 1291.462px 1291.462px 1291.462px 1291.462px 1291.462px 1291.462px 1291.462px 1291.462px 1291.462px 1291.462px ">來⾃不同地⽅的⼈，形成了更加</tspan></text><text x="227px" y="1399.796px" style="font-family:'STSongti-TC-Light', 'Songti TC';font-weight:300;font-size:75px;">豐<tspan x="305.795px 384.59px 463.385px 542.18px 620.975px 699.77px 778.565px 857.36px 936.155px 1014.95px 1093.745px 1172.54px 1251.335px 1330.13px " y="1399.796px 1399.796px 1399.796px 1399.796px 1399.796px 1399.796px 1399.796px 1399.796px 1399.796px 1399.796px 1399.796px 1399.796px 1399.796px 1399.796px ">富的群體，有⼈吹著嗩吶，有⼈</tspan></text><text x="227px" y="1508.129px" style="font-family:'STSongti-TC-Light', 'Songti TC';font-weight:300;font-size:75px;">彈<tspan x="305.795px 384.59px 463.385px 542.18px 620.975px 699.77px 778.565px 857.36px 936.155px 1014.95px 1093.745px 1172.54px 1251.335px 1330.13px " y="1508.129px 1508.129px 1508.129px 1508.129px 1508.129px 1508.129px 1508.129px 1508.129px 1508.129px 1508.129px 1508.129px 1508.129px 1508.129px 1508.129px ">著三弦唱歌，有⼈賣⼒地獨舞，</tspan></text><text x="227px" y="1616.462px" style="font-family:'STSongti-TC-Light', 'Songti TC';font-weight:300;font-size:75px;">有<tspan x="305.795px 384.59px 463.385px 542.18px 620.975px 699.77px 778.565px 857.36px 936.155px 1014.95px 1093.745px 1172.54px 1251.335px 1330.13px " y="1616.462px 1616.462px 1616.462px 1616.462px 1616.462px 1616.462px 1616.462px 1616.462px 1616.462px 1616.462px 1616.462px 1616.462px 1616.462px 1616.462px ">⼈向路⼈⼤喊上元節快樂。即使</tspan></text><text x="227px" y="1724.796px" style="font-family:'STSongti-TC-Light', 'Songti TC';font-weight:300;font-size:75px;">還<tspan x="300.545px 374.09px 447.635px 521.18px 594.725px 668.27px 741.815px 815.36px 888.905px 962.45px 1035.995px 1109.54px 1183.085px 1256.63px 1330.175px " y="1724.796px 1724.796px 1724.796px 1724.796px 1724.796px 1724.796px 1724.796px 1724.796px 1724.796px 1724.796px 1724.796px 1724.796px 1724.796px 1724.796px 1724.796px ">不成氣候，卻看到了夢想的藍圖：</tspan></text><text x="227px" y="1833.129px" style="font-family:'STSongti-TC-Light', 'Songti TC';font-weight:300;font-size:75px;">在<tspan x="305.795px 384.59px 463.385px 542.18px 620.975px 699.77px 778.565px 857.36px 936.155px 1014.95px 1093.745px 1172.54px 1251.335px 1330.13px " y="1833.129px 1833.129px 1833.129px 1833.129px 1833.129px 1833.129px 1833.129px 1833.129px 1833.129px 1833.129px 1833.129px 1833.129px 1833.129px 1833.129px ">中正⼆路⼤道上，⼈們推著精緻</tspan></text><text x="227px" y="1941.462px" style="font-family:'STSongti-TC-Light', 'Songti TC';font-weight:300;font-size:75px;">奪<tspan x="305.795px 384.59px 463.385px 542.18px 620.975px 699.77px 778.565px 857.36px 936.155px 1014.95px 1093.745px 1172.54px 1251.335px 1330.13px " y="1941.462px 1941.462px 1941.462px 1941.462px 1941.462px 1941.462px 1941.462px 1941.462px 1941.462px 1941.462px 1941.462px 1941.462px 1941.462px 1941.462px ">⽬的燈⾞，跳舞與唱歌，延續過</tspan></text><text x="227px" y="2049.796px" style="font-family:'STSongti-TC-Light', 'Songti TC';font-weight:300;font-size:75px;">年<tspan x="305.795px 384.59px 463.385px 542.18px 620.975px 699.77px 778.565px 857.36px 936.155px 1014.95px 1093.745px 1172.54px 1251.335px 1330.13px " y="2049.796px 2049.796px 2049.796px 2049.796px 2049.796px 2049.796px 2049.796px 2049.796px 2049.796px 2049.796px 2049.796px 2049.796px 2049.796px 2049.796px ">的喜悅，卻不僅於家族，⽽能同</tspan></text><text x="227px" y="2158.129px" style="font-family:'STSongti-TC-Light', 'Songti TC';font-weight:300;font-size:75px;">樂<tspan x="305.795px 384.59px 463.385px 542.18px 620.975px 699.77px 778.565px 857.36px 936.155px 1014.95px 1093.745px 1172.54px 1251.335px 1330.13px " y="2158.129px 2158.129px 2158.129px 2158.129px 2158.129px 2158.129px 2158.129px 2158.129px 2158.129px 2158.129px 2158.129px 2158.129px 2158.129px 2158.129px ">於街坊鄰居，以⾃⼰的⼿點亮整</tspan></text><text x="227px" y="2266.462px" style="font-family:'STSongti-TC-Light', 'Songti TC';font-weight:300;font-size:75px;">條<tspan x="305.795px 384.59px 463.385px 542.18px 620.975px 699.77px 778.565px 857.36px 936.155px 1014.95px 1093.745px 1172.54px 1251.335px 1330.13px " y="2266.462px 2266.462px 2266.462px 2266.462px 2266.462px 2266.462px 2266.462px 2266.462px 2266.462px 2266.462px 2266.462px 2266.462px 2266.462px 2266.462px ">街區。讓未來出⽣的孩⼦，即使</tspan></text><text x="227px" y="2374.796px" style="font-family:'STSongti-TC-Light', 'Songti TC';font-weight:300;font-size:75px;">離<tspan x="305.795px 384.59px 463.385px 542.18px 620.975px 699.77px 778.565px 857.36px 936.155px 1014.95px 1093.745px 1172.54px 1251.335px 1330.13px " y="2374.796px 2374.796px 2374.796px 2374.796px 2374.796px 2374.796px 2374.796px 2374.796px 2374.796px 2374.796px 2374.796px 2374.796px 2374.796px 2374.796px ">家在遠，也多⼀個年年驕傲故鄉</tspan></text><text x="227px" y="2483.129px" style="font-family:'STSongti-TC-Light', 'Songti TC';font-weight:300;font-size:75px;">⽽願意歸來的理由。</text><text x="227px" y="2699.796px" style="font-family:'STKaitiTC-Bold', 'Kaiti TC';font-size:75px;">——在「過節=調節」的公式下，</text><text x="227px" y="2808.129px" style="font-family:'STKaitiTC-Bold', 'Kaiti TC';font-size:75px;">「⼈」不是指個體的、實存的⼈，</text><text x="227px" y="2916.462px" style="font-family:'STKaitiTC-Bold', 'Kaiti TC';font-size:75px;">⽽是抽象的、⼤寫的⼈，如此夾帶</text><text x="227px" y="3024.796px" style="font-family:'STKaitiTC-Bold', 'Kaiti TC';font-size:75px;">著⼀點哲思術語，相對於個⼈主義</text><text x="227px" y="3133.129px" style="font-family:'STKaitiTC-Bold', 'Kaiti TC';font-size:75px;">式的創作與崇尚主觀的⾃由。但⼀</text><text x="227px" y="3241.462px" style="font-family:'STKaitiTC-Bold', 'Kaiti TC';font-size:75px;">年下來，原來最⼤的困難是讓別⼈</text><text x="227px" y="3349.796px" style="font-family:'STKaitiTC-Bold', 'Kaiti TC';font-size:75px;">瞭解「這是什麼」。</text><text x="639.5px" y="3458.129px" style="font-family:'STKaitiTC-Bold', 'Kaiti TC';font-size:75px;">《節</text><text x="789.5px" y="3458.129px" style="font-family:'PingFangTC-Semibold', 'PingFang TC', sans-serif;font-weight:600;font-size:75px;">・</text><text x="864.5px" y="3458.129px" style="font-family:'STKaitiTC-Bold', 'Kaiti TC';font-size:75px;">⼀元計畫⼩節》</text><text x="227px" y="3674.796px" style="font-family:'STSongti-TC-Light', 'Songti TC';font-weight:300;font-size:75px;">又<tspan x="305.795px 384.59px 463.385px 542.18px 620.975px 699.77px 778.565px 857.36px 936.155px 1014.95px 1093.745px 1172.54px 1251.335px 1330.13px " y="3674.796px 3674.796px 3674.796px 3674.796px 3674.796px 3674.796px 3674.796px 3674.796px 3674.796px 3674.796px 3674.796px 3674.796px 3674.796px 3674.796px ">過了清明、端午、七⼣、盂蘭，</tspan></text><text x="227px" y="3783.129px" style="font-family:'STSongti-TC-Light', 'Songti TC';font-weight:300;font-size:75px;">探<tspan x="305.795px 384.59px 463.385px 542.18px 620.975px 699.77px 778.565px 857.36px 936.155px 1014.95px 1093.745px 1172.54px 1251.335px 1330.13px " y="3783.129px 3783.129px 3783.129px 3783.129px 3783.129px 3783.129px 3783.129px 3783.129px 3783.129px 3783.129px 3783.129px 3783.129px 3783.129px 3783.129px ">討了祖先、避邪、星空、死亡等</tspan></text><text x="227px" y="3891.462px" style="font-family:'STSongti-TC-Light', 'Songti TC';font-weight:300;font-size:75px;">哲<tspan x="311.856px 396.712px 481.569px 566.425px " y="3891.462px 3891.462px 3891.462px 3891.462px ">思。「節</tspan></text><text x="651.281px" y="3891.462px" style="font-family:'PingFangTC-Light', 'PingFang TC', sans-serif;font-weight:300;font-size:75px;">・</text><text x="736.137px" y="3891.462px" style="font-family:'STSongti-TC-Light', 'Songti TC';font-weight:300;font-size:75px;">⼀<tspan x="820.994px 905.85px 990.706px 1075.562px 1160.419px 1245.275px 1330.131px " y="3891.462px 3891.462px 3891.462px 3891.462px 3891.462px 3891.462px 3891.462px ">元」終於劃下句</tspan></text><text x="227px" y="3999.796px" style="font-family:'STSongti-TC-Light', 'Songti TC';font-weight:300;font-size:75px;">點<tspan x="305.795px 384.59px 463.385px 542.18px 620.975px 699.77px 778.565px 857.36px 936.155px 1014.95px 1093.745px 1172.54px 1251.335px 1330.13px " y="3999.796px 3999.796px 3999.796px 3999.796px 3999.796px 3999.796px 3999.796px 3999.796px 3999.796px 3999.796px 3999.796px 3999.796px 3999.796px 3999.796px ">，然⽽很難說是順利結束，畢竟</tspan></text><text x="227px" y="4108.129px" style="font-family:'STSongti-TC-Light', 'Songti TC';font-weight:300;font-size:75px;">⼀<tspan x="305.795px 384.59px 463.385px 542.18px 620.975px 699.77px 778.565px 857.36px 936.155px 1014.95px 1093.745px 1172.54px 1251.335px 1330.13px " y="4108.129px 4108.129px 4108.129px 4108.129px 4108.129px 4108.129px 4108.129px 4108.129px 4108.129px 4108.129px 4108.129px 4108.129px 4108.129px 4108.129px ">路上遇到太多預料外的難題，以</tspan></text><g transform="matrix(75,0,0,75,1405.13,4216.462267)"></g><text x="227px" y="4216.462px" style="font-family:'STSongti-TC-Light', 'Songti TC';font-weight:300;font-size:75px;">致<tspan x="305.795px 384.59px 463.385px 542.18px 620.975px 699.77px 778.565px 857.36px 936.155px 1014.95px 1093.745px 1172.54px 1251.335px 1330.13px " y="4216.462px 4216.462px 4216.462px 4216.462px 4216.462px 4216.462px 4216.462px 4216.462px 4216.462px 4216.462px 4216.462px 4216.462px 4216.462px 4216.462px ">本末倒置，將處理書店的精⼒全</tspan></text></g></svg>