<?xml version="1.0" encoding="UTF-8" standalone="no"?><!DOCTYPE svg PUBLIC "-//W3C//DTD SVG 1.1//EN" "http://www.w3.org/Graphics/SVG/1.1/DTD/svg11.dtd"><svg width="100%" height="100%" viewBox="0 0 8000 4500" version="1.1" xmlns="http://www.w3.org/2000/svg" xmlns:xlink="http://www.w3.org/1999/xlink" xml:space="preserve" xmlns:serif="http://www.serif.com/" style="fill-rule:evenodd;clip-rule:evenodd;"><g id="地圖"><path d="M7228.813,1159.134l42.05,146.062l228.317,-71.223l-46.479,-163.122l-223.887,88.283Z" style="fill:#cecece;fill-rule:nonzero;"/><path d="M586.148,3100.008l-103.588,234.71l157.605,100.95l91.062,-243.506l-145.079,-92.153Z" style="fill:#cecece;fill-rule:nonzero;"/><path d="M2465.314,3001.84l46.224,261.719l202.443,-13.088l-48.477,-258.801l-200.19,10.17Z" style="fill:#cecece;fill-rule:nonzero;"/><path d="M4669.363,2130.196l-66.567,615.372l289.233,-96.718l49.833,-587.419l-272.5,68.765Z" style="fill:#cecece;fill-rule:nonzero;"/><path d="M5049.817,2177.087l-17.638,151.999l535.646,-179.269l7.85,-142.265l-525.858,169.535Z" style="fill:#cecece;fill-rule:nonzero;"/><path d="M5033.846,2463.634l-15.383,152.27l554.221,-187.829l5.383,-142.38l-544.221,177.939Z" style="fill:#cecece;fill-rule:nonzero;"/><path d="M3902.419,2393.238l623.777,-229.115l-70.883,635.758l-299.811,114.85c-5.674,-16.509 -18.02,-29.877 -34.026,-36.844c-16.343,-7.114 -34.951,-6.89 -51.118,0.617l-167.939,-485.265Z" style="fill:#cecece;fill-rule:nonzero;"/></g><path id="路線" d="M7401.795,1240.99l127.996,-38.862l15.708,77.345l-244.854,70.768l152.304,427.55l-4169.399,1486.058l-782.771,38.419l-1387.769,-736.337l-246.085,532.159l-209.339,-97.407l-43.842,90.525" style="fill:none;fill-rule:nonzero;stroke:#000;stroke-width:33.33px;"/><g id="休"><path d="M4220.354,1990.283l0,626.307" style="fill:none;fill-rule:nonzero;stroke:#000;stroke-width:4.17px;"/><g transform="matrix(91.666667,0,0,91.666667,3973.67875,1781.175)"><path d="M0.088,-0l0.402,-0l0,-0.076l-0.147,0l0,-0.637l-0.07,0c-0.04,0.024 -0.087,0.041 -0.152,0.052l0,0.059l0.13,0l0,0.526l-0.163,-0l0,0.076Z" style="fill-rule:nonzero;"/></g><g transform="matrix(91.666667,0,0,91.666667,3973.67875,1781.175)"></g><g transform="matrix(91.666667,0,0,91.666667,4024.55375,1781.175)"><path d="M0.13,-0.498c0,-0.094 0.054,-0.156 0.124,-0.156c0.091,0 0.147,0.074 0.159,0.212c-0.046,0.068 -0.104,0.097 -0.15,0.097c-0.089,0 -0.133,-0.06 -0.133,-0.153Zm0.099,0.511c0.142,-0 0.271,-0.11 0.271,-0.396c0,-0.229 -0.105,-0.343 -0.246,-0.343c-0.114,0 -0.21,0.092 -0.21,0.228c0,0.146 0.08,0.221 0.204,0.221c0.058,0 0.121,-0.035 0.167,-0.092c-0.004,0.228 -0.089,0.306 -0.189,0.306c-0.045,0 -0.089,-0.021 -0.117,-0.056l-0.051,0.057c0.039,0.043 0.095,0.075 0.171,0.075Z" style="fill-rule:nonzero;"/></g><g transform="matrix(91.666667,0,0,91.666667,4024.55375,1781.175)"></g><g transform="matrix(91.666667,0,0,91.666667,4100.912083,1781.175)"><path d="M0.278,0.013c0.142,0 0.228,-0.133 0.228,-0.372c0,-0.238 -0.086,-0.367 -0.228,-0.367c-0.142,0 -0.229,0.128 -0.229,0.367c0,0.239 0.087,0.372 0.229,0.372Zm0,-0.073c-0.084,0 -0.14,-0.09 -0.14,-0.299c0,-0.209 0.056,-0.294 0.14,-0.294c0.083,0 0.139,0.085 0.139,0.294c0,0.209 -0.056,0.299 -0.139,0.299Z" style="fill-rule:nonzero;"/></g><g transform="matrix(91.666667,0,0,91.666667,4100.912083,1781.175)"></g><g transform="matrix(91.666667,0,0,91.666667,4151.787083,1781.175)"><path d="M0.278,0.013c0.142,0 0.228,-0.133 0.228,-0.372c0,-0.238 -0.086,-0.367 -0.228,-0.367c-0.142,0 -0.229,0.128 -0.229,0.367c0,0.239 0.087,0.372 0.229,0.372Zm0,-0.073c-0.084,0 -0.14,-0.09 -0.14,-0.299c0,-0.209 0.056,-0.294 0.14,-0.294c0.083,0 0.139,0.085 0.139,0.294c0,0.209 -0.056,0.299 -0.139,0.299Z" style="fill-rule:nonzero;"/></g><g transform="matrix(91.666667,0,0,91.666667,4151.787083,1781.175)"></g><g transform="matrix(91.666667,0,0,91.666667,4234.470417,1781.175)"><path d="M0.088,-0l0.402,-0l0,-0.076l-0.147,0l0,-0.637l-0.07,0c-0.04,0.024 -0.087,0.041 -0.152,0.052l0,0.059l0.13,0l0,0.526l-0.163,-0l0,0.076Z" style="fill-rule:nonzero;"/></g><g transform="matrix(91.666667,0,0,91.666667,4234.470417,1781.175)"></g><g transform="matrix(91.666667,0,0,91.666667,4285.345417,1781.175)"><path d="M0.13,-0.498c0,-0.094 0.054,-0.156 0.124,-0.156c0.091,0 0.147,0.074 0.159,0.212c-0.046,0.068 -0.104,0.097 -0.15,0.097c-0.089,0 -0.133,-0.06 -0.133,-0.153Zm0.099,0.511c0.142,-0 0.271,-0.11 0.271,-0.396c0,-0.229 -0.105,-0.343 -0.246,-0.343c-0.114,0 -0.21,0.092 -0.21,0.228c0,0.146 0.08,0.221 0.204,0.221c0.058,0 0.121,-0.035 0.167,-0.092c-0.004,0.228 -0.089,0.306 -0.189,0.306c-0.045,0 -0.089,-0.021 -0.117,-0.056l-0.051,0.057c0.039,0.043 0.095,0.075 0.171,0.075Z" style="fill-rule:nonzero;"/></g><g transform="matrix(91.666667,0,0,91.666667,4285.345417,1781.175)"></g><g transform="matrix(91.666667,0,0,91.666667,4361.70375,1781.175)"><path d="M0.264,0.013c0.13,0 0.235,-0.076 0.235,-0.203c0,-0.098 -0.069,-0.161 -0.155,-0.182l0,-0.004c0.077,-0.028 0.13,-0.083 0.13,-0.169c0,-0.116 -0.09,-0.181 -0.213,-0.181c-0.085,0 -0.15,0.037 -0.205,0.089l0.049,0.057c0.041,-0.042 0.093,-0.072 0.152,-0.072c0.076,0 0.124,0.044 0.124,0.113c0,0.075 -0.052,0.134 -0.203,0.134l0,0.07c0.169,0 0.228,0.056 0.228,0.141c0,0.08 -0.062,0.131 -0.149,0.131c-0.083,0 -0.139,-0.039 -0.182,-0.084l-0.046,0.06c0.048,0.052 0.12,0.1 0.235,0.1Z" style="fill-rule:nonzero;"/></g><g transform="matrix(91.666667,0,0,91.666667,4361.70375,1781.175)"></g><g transform="matrix(91.666667,0,0,91.666667,4412.57875,1781.175)"><path d="M0.278,0.013c0.142,0 0.228,-0.133 0.228,-0.372c0,-0.238 -0.086,-0.367 -0.228,-0.367c-0.142,0 -0.229,0.128 -0.229,0.367c0,0.239 0.087,0.372 0.229,0.372Zm0,-0.073c-0.084,0 -0.14,-0.09 -0.14,-0.299c0,-0.209 0.056,-0.294 0.14,-0.294c0.083,0 0.139,0.085 0.139,0.294c0,0.209 -0.056,0.299 -0.139,0.299Z" style="fill-rule:nonzero;"/></g><g transform="matrix(91.666667,0,0,91.666667,4412.57875,1781.175)"></g><g transform="matrix(91.666667,0,0,91.666667,4463.45375,1781.175)"></g><text x="4075.429px" y="1781.175px" style="font-family:'SourceHanSansTW-Regular', 'Source Han Sans TW', sans-serif;font-size:91.667px;"><tspan x="4075.429px 4202.662px 4336.22px " y="1781.175px 1781.175px 1781.175px ">:-:</tspan></text><g transform="matrix(91.666667,0,0,91.666667,4585.14125,1914.508333)"></g><text x="3851.808px" y="1914.508px" style="font-family:'SourceHanSansTW-Regular', 'Source Han Sans TW', sans-serif;font-size:91.667px;">中央公園，大休息</text></g><g id="起"><path d="M7336.404,846.112l0,335.659" style="fill:none;fill-rule:nonzero;stroke:#000;stroke-width:4.17px;"/><g><g transform="matrix(91.666667,0,0,91.666667,7089.729167,639.389583)"><path d="M0.088,-0l0.402,-0l0,-0.076l-0.147,0l0,-0.637l-0.07,0c-0.04,0.024 -0.087,0.041 -0.152,0.052l0,0.059l0.13,0l0,0.526l-0.163,-0l0,0.076Z" style="fill-rule:nonzero;"/></g><g transform="matrix(91.666667,0,0,91.666667,7089.729167,639.389583)"></g><g transform="matrix(91.666667,0,0,91.666667,7140.604167,639.389583)"><path d="M0.198,-0l0.095,-0c0.011,-0.278 0.047,-0.441 0.215,-0.657l0,-0.056l-0.459,0l0,0.078l0.355,0c-0.14,0.196 -0.194,0.366 -0.206,0.635Z" style="fill-rule:nonzero;"/></g><g transform="matrix(91.666667,0,0,91.666667,7140.604167,639.389583)"></g><g transform="matrix(91.666667,0,0,91.666667,7216.9625,639.389583)"><path d="M0.278,0.013c0.142,0 0.228,-0.133 0.228,-0.372c0,-0.238 -0.086,-0.367 -0.228,-0.367c-0.142,0 -0.229,0.128 -0.229,0.367c0,0.239 0.087,0.372 0.229,0.372Zm0,-0.073c-0.084,0 -0.14,-0.09 -0.14,-0.299c0,-0.209 0.056,-0.294 0.14,-0.294c0.083,0 0.139,0.085 0.139,0.294c0,0.209 -0.056,0.299 -0.139,0.299Z" style="fill-rule:nonzero;"/></g><g transform="matrix(91.666667,0,0,91.666667,7216.9625,639.389583)"></g><g transform="matrix(91.666667,0,0,91.666667,7267.8375,639.389583)"><path d="M0.278,0.013c0.142,0 0.228,-0.133 0.228,-0.372c0,-0.238 -0.086,-0.367 -0.228,-0.367c-0.142,0 -0.229,0.128 -0.229,0.367c0,0.239 0.087,0.372 0.229,0.372Zm0,-0.073c-0.084,0 -0.14,-0.09 -0.14,-0.299c0,-0.209 0.056,-0.294 0.14,-0.294c0.083,0 0.139,0.085 0.139,0.294c0,0.209 -0.056,0.299 -0.139,0.299Z" style="fill-rule:nonzero;"/></g><g transform="matrix(91.666667,0,0,91.666667,7267.8375,639.389583)"></g><g transform="matrix(91.666667,0,0,91.666667,7350.520833,639.389583)"><path d="M0.088,-0l0.402,-0l0,-0.076l-0.147,0l0,-0.637l-0.07,0c-0.04,0.024 -0.087,0.041 -0.152,0.052l0,0.059l0.13,0l0,0.526l-0.163,-0l0,0.076Z" style="fill-rule:nonzero;"/></g><g transform="matrix(91.666667,0,0,91.666667,7350.520833,639.389583)"></g><g transform="matrix(91.666667,0,0,91.666667,7401.395833,639.389583)"><path d="M0.198,-0l0.095,-0c0.011,-0.278 0.047,-0.441 0.215,-0.657l0,-0.056l-0.459,0l0,0.078l0.355,0c-0.14,0.196 -0.194,0.366 -0.206,0.635Z" style="fill-rule:nonzero;"/></g><g transform="matrix(91.666667,0,0,91.666667,7401.395833,639.389583)"></g><g transform="matrix(91.666667,0,0,91.666667,7477.754167,639.389583)"><path d="M0.264,0.013c0.13,0 0.235,-0.076 0.235,-0.203c0,-0.098 -0.069,-0.161 -0.155,-0.182l0,-0.004c0.077,-0.028 0.13,-0.083 0.13,-0.169c0,-0.116 -0.09,-0.181 -0.213,-0.181c-0.085,0 -0.15,0.037 -0.205,0.089l0.049,0.057c0.041,-0.042 0.093,-0.072 0.152,-0.072c0.076,0 0.124,0.044 0.124,0.113c0,0.075 -0.052,0.134 -0.203,0.134l0,0.07c0.169,0 0.228,0.056 0.228,0.141c0,0.08 -0.062,0.131 -0.149,0.131c-0.083,0 -0.139,-0.039 -0.182,-0.084l-0.046,0.06c0.048,0.052 0.12,0.1 0.235,0.1Z" style="fill-rule:nonzero;"/></g><g transform="matrix(91.666667,0,0,91.666667,7477.754167,639.389583)"></g><g transform="matrix(91.666667,0,0,91.666667,7528.629167,639.389583)"><path d="M0.278,0.013c0.142,0 0.228,-0.133 0.228,-0.372c0,-0.238 -0.086,-0.367 -0.228,-0.367c-0.142,0 -0.229,0.128 -0.229,0.367c0,0.239 0.087,0.372 0.229,0.372Zm0,-0.073c-0.084,0 -0.14,-0.09 -0.14,-0.299c0,-0.209 0.056,-0.294 0.14,-0.294c0.083,0 0.139,0.085 0.139,0.294c0,0.209 -0.056,0.299 -0.139,0.299Z" style="fill-rule:nonzero;"/></g><g transform="matrix(91.666667,0,0,91.666667,7528.629167,639.389583)"></g><g transform="matrix(91.666667,0,0,91.666667,7579.504167,639.389583)"></g><text x="7191.479px" y="639.39px" style="font-family:'SourceHanSansTW-Regular', 'Source Han Sans TW', sans-serif;font-size:91.667px;"><tspan x="7191.479px 7318.713px 7452.271px " y="639.39px 639.39px 639.39px ">:-:</tspan></text><g transform="matrix(91.666667,0,0,91.666667,7704.170833,772.722917)"></g><text x="6970.838px" y="772.723px" style="font-family:'SourceHanSansTW-Regular', 'Source Han Sans TW', sans-serif;font-size:91.667px;">蟬雨越讀，集始動</text></g></g><g id="轉"><path d="M2590.473,2862.56l0,271.889" style="fill:none;fill-rule:nonzero;stroke:#000;stroke-width:4.17px;"/><g transform="matrix(91.666667,0,0,91.666667,2345.9975,2649.137917)"><path d="M0.044,-0l0.461,-0l0,-0.079l-0.207,0c-0.038,0 -0.082,0.004 -0.12,0.007c0.169,-0.178 0.291,-0.311 0.291,-0.445c0,-0.126 -0.082,-0.209 -0.213,-0.209c-0.093,0 -0.156,0.043 -0.216,0.108l0.053,0.051c0.04,-0.047 0.092,-0.085 0.152,-0.085c0.091,0 0.135,0.058 0.135,0.139c0,0.117 -0.121,0.245 -0.336,0.459l0,0.054Z" style="fill-rule:nonzero;"/></g><g transform="matrix(91.666667,0,0,91.666667,2345.9975,2649.137917)"></g><g transform="matrix(91.666667,0,0,91.666667,2396.8725,2649.137917)"><path d="M0.278,0.013c0.142,0 0.228,-0.133 0.228,-0.372c0,-0.238 -0.086,-0.367 -0.228,-0.367c-0.142,0 -0.229,0.128 -0.229,0.367c0,0.239 0.087,0.372 0.229,0.372Zm0,-0.073c-0.084,0 -0.14,-0.09 -0.14,-0.299c0,-0.209 0.056,-0.294 0.14,-0.294c0.083,0 0.139,0.085 0.139,0.294c0,0.209 -0.056,0.299 -0.139,0.299Z" style="fill-rule:nonzero;"/></g><g transform="matrix(91.666667,0,0,91.666667,2396.8725,2649.137917)"></g><g transform="matrix(91.666667,0,0,91.666667,2473.230833,2649.137917)"><path d="M0.278,0.013c0.142,0 0.228,-0.133 0.228,-0.372c0,-0.238 -0.086,-0.367 -0.228,-0.367c-0.142,0 -0.229,0.128 -0.229,0.367c0,0.239 0.087,0.372 0.229,0.372Zm0,-0.073c-0.084,0 -0.14,-0.09 -0.14,-0.299c0,-0.209 0.056,-0.294 0.14,-0.294c0.083,0 0.139,0.085 0.139,0.294c0,0.209 -0.056,0.299 -0.139,0.299Z" style="fill-rule:nonzero;"/></g><g transform="matrix(91.666667,0,0,91.666667,2473.230833,2649.137917)"></g><g transform="matrix(91.666667,0,0,91.666667,2524.105833,2649.137917)"><path d="M0.278,0.013c0.142,0 0.228,-0.133 0.228,-0.372c0,-0.238 -0.086,-0.367 -0.228,-0.367c-0.142,0 -0.229,0.128 -0.229,0.367c0,0.239 0.087,0.372 0.229,0.372Zm0,-0.073c-0.084,0 -0.14,-0.09 -0.14,-0.299c0,-0.209 0.056,-0.294 0.14,-0.294c0.083,0 0.139,0.085 0.139,0.294c0,0.209 -0.056,0.299 -0.139,0.299Z" style="fill-rule:nonzero;"/></g><g transform="matrix(91.666667,0,0,91.666667,2524.105833,2649.137917)"></g><g transform="matrix(91.666667,0,0,91.666667,2606.789167,2649.137917)"><path d="M0.044,-0l0.461,-0l0,-0.079l-0.207,0c-0.038,0 -0.082,0.004 -0.12,0.007c0.169,-0.178 0.291,-0.311 0.291,-0.445c0,-0.126 -0.082,-0.209 -0.213,-0.209c-0.093,0 -0.156,0.043 -0.216,0.108l0.053,0.051c0.04,-0.047 0.092,-0.085 0.152,-0.085c0.091,0 0.135,0.058 0.135,0.139c0,0.117 -0.121,0.245 -0.336,0.459l0,0.054Z" style="fill-rule:nonzero;"/></g><g transform="matrix(91.666667,0,0,91.666667,2606.789167,2649.137917)"></g><g transform="matrix(91.666667,0,0,91.666667,2657.664167,2649.137917)"><path d="M0.278,0.013c0.142,0 0.228,-0.133 0.228,-0.372c0,-0.238 -0.086,-0.367 -0.228,-0.367c-0.142,0 -0.229,0.128 -0.229,0.367c0,0.239 0.087,0.372 0.229,0.372Zm0,-0.073c-0.084,0 -0.14,-0.09 -0.14,-0.299c0,-0.209 0.056,-0.294 0.14,-0.294c0.083,0 0.139,0.085 0.139,0.294c0,0.209 -0.056,0.299 -0.139,0.299Z" style="fill-rule:nonzero;"/></g><g transform="matrix(91.666667,0,0,91.666667,2657.664167,2649.137917)"></g><g transform="matrix(91.666667,0,0,91.666667,2734.0225,2649.137917)"><path d="M0.264,0.013c0.13,0 0.235,-0.076 0.235,-0.203c0,-0.098 -0.069,-0.161 -0.155,-0.182l0,-0.004c0.077,-0.028 0.13,-0.083 0.13,-0.169c0,-0.116 -0.09,-0.181 -0.213,-0.181c-0.085,0 -0.15,0.037 -0.205,0.089l0.049,0.057c0.041,-0.042 0.093,-0.072 0.152,-0.072c0.076,0 0.124,0.044 0.124,0.113c0,0.075 -0.052,0.134 -0.203,0.134l0,0.07c0.169,0 0.228,0.056 0.228,0.141c0,0.08 -0.062,0.131 -0.149,0.131c-0.083,0 -0.139,-0.039 -0.182,-0.084l-0.046,0.06c0.048,0.052 0.12,0.1 0.235,0.1Z" style="fill-rule:nonzero;"/></g><g transform="matrix(91.666667,0,0,91.666667,2734.0225,2649.137917)"></g><g transform="matrix(91.666667,0,0,91.666667,2784.8975,2649.137917)"><path d="M0.278,0.013c0.142,0 0.228,-0.133 0.228,-0.372c0,-0.238 -0.086,-0.367 -0.228,-0.367c-0.142,0 -0.229,0.128 -0.229,0.367c0,0.239 0.087,0.372 0.229,0.372Zm0,-0.073c-0.084,0 -0.14,-0.09 -0.14,-0.299c0,-0.209 0.056,-0.294 0.14,-0.294c0.083,0 0.139,0.085 0.139,0.294c0,0.209 -0.056,0.299 -0.139,0.299Z" style="fill-rule:nonzero;"/></g><g transform="matrix(91.666667,0,0,91.666667,2784.8975,2649.137917)"></g><g transform="matrix(91.666667,0,0,91.666667,2835.7725,2649.137917)"></g><text x="2447.747px" y="2649.138px" style="font-family:'SourceHanSansTW-Regular', 'Source Han Sans TW', sans-serif;font-size:91.667px;"><tspan x="2447.747px 2574.981px 2708.539px " y="2649.138px 2649.138px 2649.138px ">:-:</tspan></text><g transform="matrix(91.666667,0,0,91.666667,2956.314167,2782.47125)"></g><text x="2222.981px" y="2782.471px" style="font-family:'SourceHanSansTW-Regular', 'Source Han Sans TW', sans-serif;font-size:91.667px;">五福路橋，送燈籠</text></g><g id="合"><path d="M606.847,3253.021l0,335.659" style="fill:none;fill-rule:nonzero;stroke:#000;stroke-width:4.17px;"/><g transform="matrix(91.666667,0,0,91.666667,362.6015,3772.81)"><path d="M0.044,-0l0.461,-0l0,-0.079l-0.207,0c-0.038,0 -0.082,0.004 -0.12,0.007c0.169,-0.178 0.291,-0.311 0.291,-0.445c0,-0.126 -0.082,-0.209 -0.213,-0.209c-0.093,0 -0.156,0.043 -0.216,0.108l0.053,0.051c0.04,-0.047 0.092,-0.085 0.152,-0.085c0.091,0 0.135,0.058 0.135,0.139c0,0.117 -0.121,0.245 -0.336,0.459l0,0.054Z" style="fill-rule:nonzero;"/></g><g transform="matrix(91.666667,0,0,91.666667,362.6015,3772.81)"></g><g transform="matrix(91.666667,0,0,91.666667,413.4765,3772.81)"><path d="M0.088,-0l0.402,-0l0,-0.076l-0.147,0l0,-0.637l-0.07,0c-0.04,0.024 -0.087,0.041 -0.152,0.052l0,0.059l0.13,0l0,0.526l-0.163,-0l0,0.076Z" style="fill-rule:nonzero;"/></g><g transform="matrix(91.666667,0,0,91.666667,413.4765,3772.81)"></g><g transform="matrix(91.666667,0,0,91.666667,489.834833,3772.81)"><path d="M0.088,-0l0.402,-0l0,-0.076l-0.147,0l0,-0.637l-0.07,0c-0.04,0.024 -0.087,0.041 -0.152,0.052l0,0.059l0.13,0l0,0.526l-0.163,-0l0,0.076Z" style="fill-rule:nonzero;"/></g><g transform="matrix(91.666667,0,0,91.666667,489.834833,3772.81)"></g><g transform="matrix(91.666667,0,0,91.666667,540.709833,3772.81)"><path d="M0.261,0.013c0.124,0 0.24,-0.087 0.24,-0.241c0,-0.154 -0.099,-0.224 -0.221,-0.224c-0.044,0 -0.076,0.012 -0.109,0.03l0.018,-0.213l0.277,0l0,-0.078l-0.357,0l-0.023,0.343l0.049,0.031c0.042,-0.028 0.073,-0.044 0.122,-0.044c0.092,0 0.152,0.059 0.152,0.158c0,0.099 -0.07,0.162 -0.156,0.162c-0.085,0 -0.138,-0.039 -0.18,-0.081l-0.045,0.06c0.049,0.049 0.119,0.097 0.233,0.097Z" style="fill-rule:nonzero;"/></g><g transform="matrix(91.666667,0,0,91.666667,540.709833,3772.81)"></g><g transform="matrix(91.666667,0,0,91.666667,623.393167,3772.81)"><path d="M0.044,-0l0.461,-0l0,-0.079l-0.207,0c-0.038,0 -0.082,0.004 -0.12,0.007c0.169,-0.178 0.291,-0.311 0.291,-0.445c0,-0.126 -0.082,-0.209 -0.213,-0.209c-0.093,0 -0.156,0.043 -0.216,0.108l0.053,0.051c0.04,-0.047 0.092,-0.085 0.152,-0.085c0.091,0 0.135,0.058 0.135,0.139c0,0.117 -0.121,0.245 -0.336,0.459l0,0.054Z" style="fill-rule:nonzero;"/></g><g transform="matrix(91.666667,0,0,91.666667,623.393167,3772.81)"></g><g transform="matrix(91.666667,0,0,91.666667,674.268167,3772.81)"><path d="M0.088,-0l0.402,-0l0,-0.076l-0.147,0l0,-0.637l-0.07,0c-0.04,0.024 -0.087,0.041 -0.152,0.052l0,0.059l0.13,0l0,0.526l-0.163,-0l0,0.076Z" style="fill-rule:nonzero;"/></g><g transform="matrix(91.666667,0,0,91.666667,674.268167,3772.81)"></g><g transform="matrix(91.666667,0,0,91.666667,750.6265,3772.81)"><path d="M0.115,-0.27l0.167,-0.245c0.021,-0.035 0.041,-0.066 0.059,-0.1l0.004,0c-0.002,0.038 -0.005,0.099 -0.005,0.136l0,0.209l-0.225,0Zm0.225,0.27l0.086,-0l0,-0.197l0.097,0l0,-0.073l-0.097,0l0,-0.443l-0.101,0l-0.305,0.456l-0,0.06l0.32,0l0,0.197Z" style="fill-rule:nonzero;"/></g><g transform="matrix(91.666667,0,0,91.666667,750.6265,3772.81)"></g><g transform="matrix(91.666667,0,0,91.666667,801.5015,3772.81)"><path d="M0.261,0.013c0.124,0 0.24,-0.087 0.24,-0.241c0,-0.154 -0.099,-0.224 -0.221,-0.224c-0.044,0 -0.076,0.012 -0.109,0.03l0.018,-0.213l0.277,0l0,-0.078l-0.357,0l-0.023,0.343l0.049,0.031c0.042,-0.028 0.073,-0.044 0.122,-0.044c0.092,0 0.152,0.059 0.152,0.158c0,0.099 -0.07,0.162 -0.156,0.162c-0.085,0 -0.138,-0.039 -0.18,-0.081l-0.045,0.06c0.049,0.049 0.119,0.097 0.233,0.097Z" style="fill-rule:nonzero;"/></g><g transform="matrix(91.666667,0,0,91.666667,801.5015,3772.81)"></g><g transform="matrix(91.666667,0,0,91.666667,852.3765,3772.81)"></g><text x="464.351px" y="3772.81px" style="font-family:'SourceHanSansTW-Regular', 'Source Han Sans TW', sans-serif;font-size:91.667px;"><tspan x="464.351px 591.585px 725.143px " y="3772.81px 3772.81px 3772.81px ">:-:</tspan></text><g transform="matrix(91.666667,0,0,91.666667,973.559833,3906.143333)"></g><text x="240.227px" y="3906.143px" style="font-family:'SourceHanSansTW-Regular', 'Source Han Sans TW', sans-serif;font-size:91.667px;">紅橋夜市，大群舞</text></g><g id="苓雅"><g transform="matrix(0.939693,-0.34202,0.34202,0.939693,0,0)"><text x="5802.909px" y="4168.952px" style="font-family:'PingFangTC-Regular', 'PingFang TC', sans-serif;font-size:66.667px;">五福⼀路</text></g><g><g transform="matrix(0.940677,-0.339303,0.339303,0.940677,0,0)"><text x="6438.102px" y="3875.234px" style="font-family:'PingFangTC-Regular', 'PingFang TC', sans-serif;font-size:66.667px;">和</text></g><g transform="matrix(0.940677,-0.339303,0.339303,0.940677,0,0)"><text x="6438.103px" y="3966.901px" style="font-family:'PingFangTC-Regular', 'PingFang TC', sans-serif;font-size:66.667px;">平</text></g><g transform="matrix(0.940677,-0.339303,0.339303,0.940677,0,0)"><text x="6438.101px" y="4058.567px" style="font-family:'PingFangTC-Regular', 'PingFang TC', sans-serif;font-size:66.667px;">⼀</text></g><g transform="matrix(0.940677,-0.339303,0.339303,0.940677,0,0)"><text x="6438.102px" y="4150.234px" style="font-family:'PingFangTC-Regular', 'PingFang TC', sans-serif;font-size:66.667px;">路</text></g></g><g transform="matrix(0.965926,-0.258819,0.258819,0.965926,0,0)"><text x="6987.499px" y="3249.271px" style="font-family:'PingFangTC-Regular', 'PingFang TC', sans-serif;font-size:66.667px;">泰順街</text></g></g><g id="新興"><g transform="matrix(0.939693,-0.34202,0.34202,0.939693,0,0)"><text x="3935.64px" y="4351.4px" style="font-family:'PingFangTC-Regular', 'PingFang TC', sans-serif;font-size:66.667px;">五福⼆路</text></g><g transform="matrix(0.939693,-0.34202,0.34202,0.939693,0,0)"><text x="4057.586px" y="3999.802px" style="font-family:'PingFangTC-Regular', 'PingFang TC', sans-serif;font-size:66.667px;">⽟⽵⼆街</text></g><g transform="matrix(0.939693,-0.34202,0.34202,0.939693,0,0)"><text x="4147.262px" y="3753.416px" style="font-family:'PingFangTC-Regular', 'PingFang TC', sans-serif;font-size:66.667px;">⽟⽵⼀街</text></g><g><g transform="matrix(0.997903,0.06472,-0.06472,0.997903,0,0)"><text x="5088.577px" y="1886.089px" style="font-family:'PingFangTC-Regular', 'PingFang TC', sans-serif;font-size:66.667px;">麥</text></g><g transform="matrix(0.997903,0.06472,-0.06472,0.997903,0,0)"><text x="5088.576px" y="1977.756px" style="font-family:'PingFangTC-Regular', 'PingFang TC', sans-serif;font-size:66.667px;">當</text></g><g transform="matrix(0.997903,0.06472,-0.06472,0.997903,0,0)"><text x="5088.58px" y="2069.423px" style="font-family:'PingFangTC-Regular', 'PingFang TC', sans-serif;font-size:66.667px;">勞</text></g><g transform="matrix(0.997903,0.06472,-0.06472,0.997903,0,0)"><text x="5088.579px" y="2161.089px" style="font-family:'PingFangTC-Regular', 'PingFang TC', sans-serif;font-size:66.667px;">旁</text></g><g transform="matrix(0.997903,0.06472,-0.06472,0.997903,0,0)"><text x="5088.578px" y="2252.756px" style="font-family:'PingFangTC-Regular', 'PingFang TC', sans-serif;font-size:66.667px;">巷</text></g></g><g><text x="5598.154px" y="2053.987px" style="font-family:'PingFangTC-Regular', 'PingFang TC', sans-serif;font-size:66.667px;">⽂</text><text x="5598.154px" y="2145.653px" style="font-family:'PingFangTC-Regular', 'PingFang TC', sans-serif;font-size:66.667px;">橫</text><text x="5598.154px" y="2237.32px" style="font-family:'PingFangTC-Regular', 'PingFang TC', sans-serif;font-size:66.667px;">⼀</text><text x="5598.154px" y="2328.987px" style="font-family:'PingFangTC-Regular', 'PingFang TC', sans-serif;font-size:66.667px;">路</text></g></g><g id="前金" transform="matrix(0.939693,-0.34202,0.34202,0.939693,0,0)"><text x="2186.842px" y="4150.769px" style="font-family:'PingFangTC-Regular', 'PingFang TC', sans-serif;font-size:66.667px;">五福三路</text></g><g id="鹽埕" transform="matrix(0.863663,0.504069,-0.504069,0.863663,0,0)"><text x="2975.913px" y="1586.167px" style="font-family:'PingFangTC-Regular', 'PingFang TC', sans-serif;font-size:66.667px;">五福四路</text></g><g id="新豐"><g><g transform="matrix(0.907191,0.42072,-0.42072,0.907191,0,0)"><text x="1973.331px" y="1904.31px" style="font-family:'PingFangTC-Regular', 'PingFang TC', sans-serif;font-size:66.667px;">七</text></g><g transform="matrix(0.907191,0.42072,-0.42072,0.907191,0,0)"><text x="1973.331px" y="1995.977px" style="font-family:'PingFangTC-Regular', 'PingFang TC', sans-serif;font-size:66.667px;">賢</text></g><g transform="matrix(0.907191,0.42072,-0.42072,0.907191,0,0)"><text x="1973.33px" y="2087.644px" style="font-family:'PingFangTC-Regular', 'PingFang TC', sans-serif;font-size:66.667px;">三</text></g><g transform="matrix(0.907191,0.42072,-0.42072,0.907191,0,0)"><text x="1973.331px" y="2179.31px" style="font-family:'PingFangTC-Regular', 'PingFang TC', sans-serif;font-size:66.667px;">路</text></g></g><g transform="matrix(0.89971,0.436488,-0.436488,0.89971,0,0)"><text x="2161.408px" y="2402.308px" style="font-family:'PingFangTC-Regular', 'PingFang TC', sans-serif;font-size:66.667px;">必信街</text></g><g><g transform="matrix(0.89971,0.436488,-0.436488,0.89971,0,0)"><text x="1800.14px" y="2389.057px" style="font-family:'PingFangTC-Regular', 'PingFang TC', sans-serif;font-size:66.667px;">建</text></g><g transform="matrix(0.89971,0.436488,-0.436488,0.89971,0,0)"><text x="1800.14px" y="2480.724px" style="font-family:'PingFangTC-Regular', 'PingFang TC', sans-serif;font-size:66.667px;">國</text></g><g transform="matrix(0.89971,0.436488,-0.436488,0.89971,0,0)"><text x="1800.14px" y="2572.391px" style="font-family:'PingFangTC-Regular', 'PingFang TC', sans-serif;font-size:66.667px;">四</text></g><g transform="matrix(0.89971,0.436488,-0.436488,0.89971,0,0)"><text x="1800.14px" y="2664.057px" style="font-family:'PingFangTC-Regular', 'PingFang TC', sans-serif;font-size:66.667px;">路</text></g></g></g><g id="承"><path d="M5133.433,1580.755l0,626.307" style="fill:none;fill-rule:nonzero;stroke:#000;stroke-width:4.17px;"/><g transform="matrix(91.666667,0,0,91.666667,4886.758333,1371.6475)"><path d="M0.088,-0l0.402,-0l0,-0.076l-0.147,0l0,-0.637l-0.07,0c-0.04,0.024 -0.087,0.041 -0.152,0.052l0,0.059l0.13,0l0,0.526l-0.163,-0l0,0.076Z" style="fill-rule:nonzero;"/></g><g transform="matrix(91.666667,0,0,91.666667,4886.758333,1371.6475)"></g><g transform="matrix(91.666667,0,0,91.666667,4937.633333,1371.6475)"><path d="M0.279,0.013c0.138,0 0.23,-0.083 0.23,-0.19c0,-0.095 -0.061,-0.145 -0.124,-0.183l0,-0.005c0.043,-0.033 0.098,-0.097 0.098,-0.172c0,-0.111 -0.076,-0.189 -0.201,-0.189c-0.114,0 -0.201,0.073 -0.201,0.182c-0,0.076 0.046,0.129 0.099,0.165l0,0.004c-0.067,0.036 -0.135,0.1 -0.135,0.193c0,0.113 0.099,0.195 0.234,0.195Zm0.05,-0.401c-0.086,-0.034 -0.165,-0.07 -0.165,-0.156c0,-0.069 0.049,-0.114 0.117,-0.114c0.079,0 0.124,0.056 0.124,0.126c0,0.053 -0.027,0.1 -0.076,0.144Zm-0.048,0.333c-0.088,-0 -0.153,-0.057 -0.153,-0.135c0,-0.066 0.042,-0.119 0.1,-0.156c0.104,0.041 0.194,0.074 0.194,0.167c0,0.073 -0.057,0.124 -0.141,0.124Z" style="fill-rule:nonzero;"/></g><g transform="matrix(91.666667,0,0,91.666667,4937.633333,1371.6475)"></g><g transform="matrix(91.666667,0,0,91.666667,5013.991667,1371.6475)"><path d="M0.115,-0.27l0.167,-0.245c0.021,-0.035 0.041,-0.066 0.059,-0.1l0.004,0c-0.002,0.038 -0.005,0.099 -0.005,0.136l0,0.209l-0.225,0Zm0.225,0.27l0.086,-0l0,-0.197l0.097,0l0,-0.073l-0.097,0l0,-0.443l-0.101,0l-0.305,0.456l-0,0.06l0.32,0l0,0.197Z" style="fill-rule:nonzero;"/></g><g transform="matrix(91.666667,0,0,91.666667,5013.991667,1371.6475)"></g><g transform="matrix(91.666667,0,0,91.666667,5064.866667,1371.6475)"><path d="M0.261,0.013c0.124,0 0.24,-0.087 0.24,-0.241c0,-0.154 -0.099,-0.224 -0.221,-0.224c-0.044,0 -0.076,0.012 -0.109,0.03l0.018,-0.213l0.277,0l0,-0.078l-0.357,0l-0.023,0.343l0.049,0.031c0.042,-0.028 0.073,-0.044 0.122,-0.044c0.092,0 0.152,0.059 0.152,0.158c0,0.099 -0.07,0.162 -0.156,0.162c-0.085,0 -0.138,-0.039 -0.18,-0.081l-0.045,0.06c0.049,0.049 0.119,0.097 0.233,0.097Z" style="fill-rule:nonzero;"/></g><g transform="matrix(91.666667,0,0,91.666667,5064.866667,1371.6475)"></g><g transform="matrix(91.666667,0,0,91.666667,5147.55,1371.6475)"><path d="M0.088,-0l0.402,-0l0,-0.076l-0.147,0l0,-0.637l-0.07,0c-0.04,0.024 -0.087,0.041 -0.152,0.052l0,0.059l0.13,0l0,0.526l-0.163,-0l0,0.076Z" style="fill-rule:nonzero;"/></g><g transform="matrix(91.666667,0,0,91.666667,5147.55,1371.6475)"></g><g transform="matrix(91.666667,0,0,91.666667,5198.425,1371.6475)"><path d="M0.13,-0.498c0,-0.094 0.054,-0.156 0.124,-0.156c0.091,0 0.147,0.074 0.159,0.212c-0.046,0.068 -0.104,0.097 -0.15,0.097c-0.089,0 -0.133,-0.06 -0.133,-0.153Zm0.099,0.511c0.142,-0 0.271,-0.11 0.271,-0.396c0,-0.229 -0.105,-0.343 -0.246,-0.343c-0.114,0 -0.21,0.092 -0.21,0.228c0,0.146 0.08,0.221 0.204,0.221c0.058,0 0.121,-0.035 0.167,-0.092c-0.004,0.228 -0.089,0.306 -0.189,0.306c-0.045,0 -0.089,-0.021 -0.117,-0.056l-0.051,0.057c0.039,0.043 0.095,0.075 0.171,0.075Z" style="fill-rule:nonzero;"/></g><g transform="matrix(91.666667,0,0,91.666667,5198.425,1371.6475)"></g><g transform="matrix(91.666667,0,0,91.666667,5274.783333,1371.6475)"><path d="M0.278,0.013c0.142,0 0.228,-0.133 0.228,-0.372c0,-0.238 -0.086,-0.367 -0.228,-0.367c-0.142,0 -0.229,0.128 -0.229,0.367c0,0.239 0.087,0.372 0.229,0.372Zm0,-0.073c-0.084,0 -0.14,-0.09 -0.14,-0.299c0,-0.209 0.056,-0.294 0.14,-0.294c0.083,0 0.139,0.085 0.139,0.294c0,0.209 -0.056,0.299 -0.139,0.299Z" style="fill-rule:nonzero;"/></g><g transform="matrix(91.666667,0,0,91.666667,5274.783333,1371.6475)"></g><g transform="matrix(91.666667,0,0,91.666667,5325.658333,1371.6475)"><path d="M0.278,0.013c0.142,0 0.228,-0.133 0.228,-0.372c0,-0.238 -0.086,-0.367 -0.228,-0.367c-0.142,0 -0.229,0.128 -0.229,0.367c0,0.239 0.087,0.372 0.229,0.372Zm0,-0.073c-0.084,0 -0.14,-0.09 -0.14,-0.299c0,-0.209 0.056,-0.294 0.14,-0.294c0.083,0 0.139,0.085 0.139,0.294c0,0.209 -0.056,0.299 -0.139,0.299Z" style="fill-rule:nonzero;"/></g><g transform="matrix(91.666667,0,0,91.666667,5325.658333,1371.6475)"></g><g transform="matrix(91.666667,0,0,91.666667,5376.533333,1371.6475)"></g><text x="4988.508px" y="1371.648px" style="font-family:'SourceHanSansTW-Regular', 'Source Han Sans TW', sans-serif;font-size:91.667px;"><tspan x="4988.508px 5115.742px 5249.3px " y="1371.648px 1371.648px 1371.648px ">:-:</tspan></text><g transform="matrix(91.666667,0,0,91.666667,5499.229167,1504.980833)"></g><text x="4765.896px" y="1504.981px" style="font-family:'SourceHanSansTW-Regular', 'Source Han Sans TW', sans-serif;font-size:91.667px;">玉竹商圈，花轎繞</text></g><g id="標"><rect x="7419.254" y="2839.895" width="392.014" height="401.024"/><rect x="7418.404" y="3301.064" width="393.71" height="1012.96"/><g transform="matrix(116.666667,0,0,116.666667,7521.344271,3077.156729)"><path d="M0.042,-0l0.516,-0l0,-0.15l-0.137,0c-0.034,0 -0.085,0.005 -0.122,0.01c0.112,-0.116 0.225,-0.245 0.225,-0.366c0,-0.142 -0.1,-0.234 -0.244,-0.234c-0.106,0 -0.174,0.038 -0.247,0.115l0.097,0.096c0.036,-0.036 0.075,-0.072 0.126,-0.072c0.06,0 0.097,0.036 0.097,0.105c0,0.102 -0.131,0.226 -0.311,0.394l0,0.102Z" style="fill:#fff;fill-rule:nonzero;"/></g><g transform="matrix(116.666667,0,0,116.666667,7521.344271,3077.156729)"></g><g transform="matrix(116.666667,0,0,116.666667,7637.310937,3077.156729)"><path d="M0.192,-0.305l0.085,-0.146c0.021,-0.043 0.041,-0.084 0.06,-0.126l0.004,0c-0.002,0.047 -0.006,0.119 -0.006,0.166l0,0.106l-0.143,0Zm0.143,0.305l0.166,-0l0,-0.169l0.082,0l0,-0.136l-0.082,0l0,-0.421l-0.22,0l-0.259,0.433l-0,0.124l0.313,0l0,0.169Z" style="fill:#fff;fill-rule:nonzero;"/></g><g transform="matrix(116.666667,0,0,116.666667,7637.310937,3077.156729)"></g><g transform="matrix(116.666667,0,0,116.666667,7708.360937,3077.156729)"></g><text x="7592.394px" y="3077.157px" style="font-family:'SourceHanSansTW-Heavy', 'Source Han Sans TW', sans-serif;font-weight:900;font-size:116.667px;fill:#fff;"><tspan x="7592.394px " y="3077.157px ">/</tspan></text><g transform="matrix(116.666667,0,0,116.666667,7674.817396,3935.447194)"></g><text x="7558.151px" y="3935.447px" style="font-family:'SourceHanSansTW-Heavy', 'Source Han Sans TW', sans-serif;font-weight:900;font-size:116.667px;fill:#fff;">佈</text><g transform="matrix(116.666667,0,0,116.666667,7674.292396,4105.15275)"></g><text x="7557.626px" y="4105.153px" style="font-family:'SourceHanSansTW-Heavy', 'Source Han Sans TW', sans-serif;font-weight:900;font-size:116.667px;fill:#fff;">新</text><g transform="matrix(116.666667,0,0,116.666667,7670.675729,3598.486083)"></g><text x="7554.009px" y="3598.486px" style="font-family:'SourceHanSansTW-Heavy', 'Source Han Sans TW', sans-serif;font-weight:900;font-size:116.667px;fill:#fff;">除</text><g transform="matrix(116.666667,0,0,116.666667,7673.767396,3766.558306)"></g><text x="7557.101px" y="3766.558px" style="font-family:'SourceHanSansTW-Heavy', 'Source Han Sans TW', sans-serif;font-weight:900;font-size:116.667px;fill:#fff;">舊</text></g></svg>