<?xml version="1.0" encoding="UTF-8" standalone="no"?><!DOCTYPE svg PUBLIC "-//W3C//DTD SVG 1.1//EN" "http://www.w3.org/Graphics/SVG/1.1/DTD/svg11.dtd"><svg width="100%" height="100%" viewBox="0 0 8000 4500" version="1.1" xmlns="http://www.w3.org/2000/svg" xmlns:xlink="http://www.w3.org/1999/xlink" xml:space="preserve" xmlns:serif="http://www.serif.com/" style="fill-rule:evenodd;clip-rule:evenodd;"><g id="標題"><rect x="7419.254" y="2839.895" width="392.014" height="401.024"/><rect x="7418.404" y="3301.064" width="393.71" height="1012.96"/><g transform="matrix(116.666667,0,0,116.666667,7523.035937,3077.156729)"><path d="M0.042,-0l0.516,-0l0,-0.15l-0.137,0c-0.034,0 -0.085,0.005 -0.122,0.01c0.112,-0.116 0.225,-0.245 0.225,-0.366c0,-0.142 -0.1,-0.234 -0.244,-0.234c-0.106,0 -0.174,0.038 -0.247,0.115l0.097,0.096c0.036,-0.036 0.075,-0.072 0.126,-0.072c0.06,0 0.097,0.036 0.097,0.105c0,0.102 -0.131,0.226 -0.311,0.394l0,0.102Z" style="fill:#fff;fill-rule:nonzero;"/></g><g transform="matrix(116.666667,0,0,116.666667,7523.035937,3077.156729)"></g><g transform="matrix(116.666667,0,0,116.666667,7639.002604,3077.156729)"><path d="M0.285,0.014c0.143,0 0.269,-0.094 0.269,-0.255c0,-0.154 -0.106,-0.225 -0.232,-0.225c-0.028,0 -0.05,0.004 -0.077,0.015l0.011,-0.126l0.265,0l0,-0.149l-0.418,0l-0.019,0.369l0.078,0.051c0.044,-0.028 0.064,-0.037 0.105,-0.037c0.064,0 0.109,0.038 0.109,0.107c0,0.07 -0.045,0.106 -0.117,0.106c-0.059,0 -0.111,-0.031 -0.153,-0.071l-0.081,0.112c0.059,0.058 0.141,0.103 0.26,0.103Z" style="fill:#fff;fill-rule:nonzero;"/></g><g transform="matrix(116.666667,0,0,116.666667,7639.002604,3077.156729)"></g><g transform="matrix(116.666667,0,0,116.666667,7710.052604,3077.156729)"></g><text x="7594.086px" y="3077.157px" style="font-family:'SourceHanSansTW-Heavy', 'Source Han Sans TW', sans-serif;font-weight:900;font-size:116.667px;fill:#fff;"><tspan x="7594.086px " y="3077.157px ">/</tspan></text><g transform="matrix(0.985729,0,0,1,1.554702,0)"><g transform="matrix(116.666667,0,0,116.666667,7782.531843,3609.130833)"></g><text x="7665.865px" y="3609.131px" style="font-family:'SourceHanSansTW-Heavy', 'Source Han Sans TW', sans-serif;font-weight:900;font-size:116.667px;fill:#fff;">放</text></g><g transform="matrix(0.994856,0,0,1,0.20614,0)"><g transform="matrix(116.666667,0,0,116.666667,7713.665372,3777.508611)"></g><text x="7596.999px" y="3777.509px" style="font-family:'SourceHanSansTW-Heavy', 'Source Han Sans TW', sans-serif;font-weight:900;font-size:116.667px;fill:#fff;">夜</text></g><g transform="matrix(1,0,0,0.873837,0,21.017419)"><g transform="matrix(133.510848,0,0,133.510848,7682.284679,4487.531117)"></g><text x="7548.774px" y="4487.531px" style="font-family:'SourceHanSansTW-Heavy', 'Source Han Sans TW', sans-serif;font-weight:900;font-size:133.511px;fill:#fff;">鬧</text></g><g transform="matrix(116.666667,0,0,116.666667,7673.620833,4109.130833)"></g><text x="7556.954px" y="4109.131px" style="font-family:'SourceHanSansTW-Heavy', 'Source Han Sans TW', sans-serif;font-weight:900;font-size:116.667px;fill:#fff;">春</text></g><g id="地圖"><path d="M5215.246,2833.109l-73.592,160.053l174.529,86.975l70.783,-167.532l-171.721,-79.496Z" style="fill:#d5d5d5;fill-rule:nonzero;"/><path d="M6840.567,1060.338l-324.625,633.285l320.771,94.258l339.408,-635.774l-335.554,-91.77Z" style="fill:#d5d5d5;fill-rule:nonzero;"/><path d="M5920.429,198.083l-224.375,363.207l249.8,148.037l216.446,-380.814l-241.871,-130.429Z" style="fill:#d5d5d5;fill-rule:nonzero;"/><path d="M6343.242,1238.93l-136.033,287.396l148.392,76.703l138.788,-298.765l-151.146,-65.335Z" style="fill:#d5d5d5;fill-rule:nonzero;"/><path d="M1355.352,4109.046l-139.971,146.808l-129.782,-118.779l58.415,-145.434l211.338,117.405Z" style="fill:#d5d5d5;fill-rule:nonzero;"/><path d="M4515.183,2115.436c-76.825,-76.826 -201.571,-76.826 -278.396,-0.001c-76.826,76.825 -76.826,201.571 -0,278.396c76.825,76.826 201.571,76.826 278.396,0.001c76.826,-76.825 76.826,-201.571 0,-278.396Z" style="fill:#d5d5d5;"/></g><path id="路線2" d="M6595.136,1322.587l160.384,-319.369l-772.324,-405.053l258.214,-415.502l233.957,232.78l418.232,200.65l-540.149,1051.062" style="fill:none;fill-rule:nonzero;stroke:#000;stroke-width:33.33px;"/><g id="七賢"><g><g transform="matrix(0.89971,0.436488,-0.436488,0.89971,0,0)"><text x="6186.387px" y="-142.435px" style="font-family:'PingFangTC-Regular', 'PingFang TC', sans-serif;font-size:66.667px;">必信街</text></g><g><g transform="matrix(0.895816,0.444425,-0.444425,0.895816,42.70561,27.827437)"><text x="5881.47px" y="-122.937px" style="font-family:'PingFangTC-Regular', 'PingFang TC', sans-serif;font-size:66.667px;">建</text></g><g transform="matrix(0.895816,0.444425,-0.444425,0.895816,42.70561,27.827437)"><text x="5881.472px" y="-31.271px" style="font-family:'PingFangTC-Regular', 'PingFang TC', sans-serif;font-size:66.667px;">國</text></g><g transform="matrix(0.895816,0.444425,-0.444425,0.895816,42.70561,27.827437)"><text x="5881.473px" y="60.395px" style="font-family:'PingFangTC-Regular', 'PingFang TC', sans-serif;font-size:66.667px;">四</text></g><g transform="matrix(0.895816,0.444425,-0.444425,0.895816,42.70561,27.827437)"><text x="5881.471px" y="152.063px" style="font-family:'PingFangTC-Regular', 'PingFang TC', sans-serif;font-size:66.667px;">路</text></g></g><g><g transform="matrix(0.882092,0.471077,-0.471077,0.882092,0,0)"><text x="6522.28px" y="-1381.227px" style="font-family:'PingFangTC-Regular', 'PingFang TC', sans-serif;font-size:66.667px;">七</text></g><g transform="matrix(0.882092,0.471077,-0.471077,0.882092,0,0)"><text x="6522.283px" y="-1289.562px" style="font-family:'PingFangTC-Regular', 'PingFang TC', sans-serif;font-size:66.667px;">賢</text></g><g transform="matrix(0.882092,0.471077,-0.471077,0.882092,0,0)"><text x="6522.282px" y="-1197.895px" style="font-family:'PingFangTC-Regular', 'PingFang TC', sans-serif;font-size:66.667px;">三</text></g><g transform="matrix(0.882092,0.471077,-0.471077,0.882092,0,0)"><text x="6522.28px" y="-1106.227px" style="font-family:'PingFangTC-Regular', 'PingFang TC', sans-serif;font-size:66.667px;">路</text></g></g></g><g transform="matrix(0.863663,0.504069,-0.504069,0.863663,0,0)"><text x="6895.456px" y="-2139.079px" style="font-family:'PingFangTC-Regular', 'PingFang TC', sans-serif;font-size:66.667px;">新樂街</text></g></g><g id="五福" transform="matrix(0.863663,0.504069,-0.504069,0.863663,0,0)"><text x="5589.114px" y="-1612.213px" style="font-family:'PingFangTC-Regular', 'PingFang TC', sans-serif;font-size:66.667px;">五福四路</text></g><path id="路線三" d="M6352.385,1649.153l-1090.135,-549.825l-680.548,1085.439l-435.867,113.827l-223.727,389.517l-1590.675,-902.486l-110.583,1892.633l-396.477,610.882l-350.688,37.463l-285.834,-239.591" style="fill:none;fill-rule:nonzero;stroke:#000;stroke-width:33.33px;"/><path id="路線一" d="M5309.271,2874.229l162.872,-315.517l397.086,181.483l711.898,-1382.532l432.085,231.183" style="fill:none;fill-rule:nonzero;stroke:#000;stroke-width:33.33px;"/><g id="陸橋里"><g transform="matrix(0.882092,0.471077,-0.471077,0.882092,0,0)"><text x="5890.389px" y="-2755.116px" style="font-family:'PingFangTC-Regular', 'PingFang TC', sans-serif;font-size:66.667px;">⼤公路</text></g><g transform="matrix(0.882092,0.471077,-0.471077,0.882092,0,0)"><text x="5930.176px" y="-2167.49px" style="font-family:'PingFangTC-Regular', 'PingFang TC', sans-serif;font-size:66.667px;">⼤仁路</text></g><g><g transform="matrix(0.882092,0.471077,-0.471077,0.882092,0,0)"><text x="5623.412px" y="-2573.278px" style="font-family:'PingFangTC-Regular', 'PingFang TC', sans-serif;font-size:66.667px;">⽥</text></g><g transform="matrix(0.882092,0.471077,-0.471077,0.882092,0,0)"><text x="5623.414px" y="-2481.612px" style="font-family:'PingFangTC-Regular', 'PingFang TC', sans-serif;font-size:66.667px;">單</text></g><g transform="matrix(0.882092,0.471077,-0.471077,0.882092,0,0)"><text x="5623.413px" y="-2389.945px" style="font-family:'PingFangTC-Regular', 'PingFang TC', sans-serif;font-size:66.667px;">街</text></g></g></g><g id="哈瑪星"><g><g transform="matrix(0.882092,0.471077,-0.471077,0.882092,0,0)"><text x="4603.688px" y="135.985px" style="font-family:'PingFangTC-Regular', 'PingFang TC', sans-serif;font-size:66.667px;">臨</text></g><g transform="matrix(0.882092,0.471077,-0.471077,0.882092,0,0)"><text x="4603.688px" y="227.652px" style="font-family:'PingFangTC-Regular', 'PingFang TC', sans-serif;font-size:66.667px;">海</text></g><g transform="matrix(0.882092,0.471077,-0.471077,0.882092,0,0)"><text x="4603.688px" y="319.318px" style="font-family:'PingFangTC-Regular', 'PingFang TC', sans-serif;font-size:66.667px;">⼀</text></g><g transform="matrix(0.882092,0.471077,-0.471077,0.882092,0,0)"><text x="4603.688px" y="410.985px" style="font-family:'PingFangTC-Regular', 'PingFang TC', sans-serif;font-size:66.667px;">路</text></g></g><g transform="matrix(0.863663,0.504069,-0.504069,0.863663,0,0)"><text x="4012.922px" y="495.483px" style="font-family:'PingFangTC-Regular', 'PingFang TC', sans-serif;font-size:66.667px;">臨海⼆路</text></g></g><g id="西子灣"><g><g transform="matrix(0.999296,0.037519,-0.037519,0.999296,0,0)"><text x="2246.93px" y="3066.871px" style="font-family:'PingFangTC-Regular', 'PingFang TC', sans-serif;font-size:66.667px;">哨</text></g><g transform="matrix(0.999296,0.037519,-0.037519,0.999296,0,0)"><text x="2246.93px" y="3158.537px" style="font-family:'PingFangTC-Regular', 'PingFang TC', sans-serif;font-size:66.667px;">船</text></g><g transform="matrix(0.999296,0.037519,-0.037519,0.999296,0,0)"><text x="2246.93px" y="3250.204px" style="font-family:'PingFangTC-Regular', 'PingFang TC', sans-serif;font-size:66.667px;">街</text></g></g><g transform="matrix(0.990268,-0.139173,0.139173,0.990268,0,0)"><text x="887.18px" y="4415.423px" style="font-family:'PingFangTC-Regular', 'PingFang TC', sans-serif;font-size:66.667px;">蓮海路</text></g></g><g id="轉"><g><g transform="matrix(0.891007,0.453991,-0.453991,0.891007,-17.379873,21.786035)"><g transform="matrix(91.666665,0,0,91.666665,5012.241807,-1685.092949)"><path d="M0.088,-0l0.402,-0l0,-0.076l-0.147,0l0,-0.637l-0.07,0c-0.04,0.024 -0.087,0.041 -0.152,0.052l0,0.059l0.13,0l0,0.526l-0.163,-0l0,0.076Z" style="fill-rule:nonzero;"/></g><g transform="matrix(91.666665,0,0,91.666665,5012.241807,-1685.092949)"></g><g transform="matrix(91.666665,0,0,91.666665,5063.116806,-1685.092949)"><path d="M0.13,-0.498c0,-0.094 0.054,-0.156 0.124,-0.156c0.091,0 0.147,0.074 0.159,0.212c-0.046,0.068 -0.104,0.097 -0.15,0.097c-0.089,0 -0.133,-0.06 -0.133,-0.153Zm0.099,0.511c0.142,-0 0.271,-0.11 0.271,-0.396c0,-0.229 -0.105,-0.343 -0.246,-0.343c-0.114,0 -0.21,0.092 -0.21,0.228c0,0.146 0.08,0.221 0.204,0.221c0.058,0 0.121,-0.035 0.167,-0.092c-0.004,0.228 -0.089,0.306 -0.189,0.306c-0.045,0 -0.089,-0.021 -0.117,-0.056l-0.051,0.057c0.039,0.043 0.095,0.075 0.171,0.075Z" style="fill-rule:nonzero;"/></g><g transform="matrix(91.666665,0,0,91.666665,5063.116806,-1685.092949)"></g><g transform="matrix(91.666665,0,0,91.666665,5139.475138,-1685.092949)"><path d="M0.264,0.013c0.13,0 0.235,-0.076 0.235,-0.203c0,-0.098 -0.069,-0.161 -0.155,-0.182l0,-0.004c0.077,-0.028 0.13,-0.083 0.13,-0.169c0,-0.116 -0.09,-0.181 -0.213,-0.181c-0.085,0 -0.15,0.037 -0.205,0.089l0.049,0.057c0.041,-0.042 0.093,-0.072 0.152,-0.072c0.076,0 0.124,0.044 0.124,0.113c0,0.075 -0.052,0.134 -0.203,0.134l0,0.07c0.169,0 0.228,0.056 0.228,0.141c0,0.08 -0.062,0.131 -0.149,0.131c-0.083,0 -0.139,-0.039 -0.182,-0.084l-0.046,0.06c0.048,0.052 0.12,0.1 0.235,0.1Z" style="fill-rule:nonzero;"/></g><g transform="matrix(91.666665,0,0,91.666665,5139.475138,-1685.092949)"></g><g transform="matrix(91.666665,0,0,91.666665,5190.350136,-1685.092949)"><path d="M0.278,0.013c0.142,0 0.228,-0.133 0.228,-0.372c0,-0.238 -0.086,-0.367 -0.228,-0.367c-0.142,0 -0.229,0.128 -0.229,0.367c0,0.239 0.087,0.372 0.229,0.372Zm0,-0.073c-0.084,0 -0.14,-0.09 -0.14,-0.299c0,-0.209 0.056,-0.294 0.14,-0.294c0.083,0 0.139,0.085 0.139,0.294c0,0.209 -0.056,0.299 -0.139,0.299Z" style="fill-rule:nonzero;"/></g><g transform="matrix(91.666665,0,0,91.666665,5190.350136,-1685.092949)"></g><g transform="matrix(91.666665,0,0,91.666665,5273.033468,-1685.092949)"><path d="M0.044,-0l0.461,-0l0,-0.079l-0.207,0c-0.038,0 -0.082,0.004 -0.12,0.007c0.169,-0.178 0.291,-0.311 0.291,-0.445c0,-0.126 -0.082,-0.209 -0.213,-0.209c-0.093,0 -0.156,0.043 -0.216,0.108l0.053,0.051c0.04,-0.047 0.092,-0.085 0.152,-0.085c0.091,0 0.135,0.058 0.135,0.139c0,0.117 -0.121,0.245 -0.336,0.459l0,0.054Z" style="fill-rule:nonzero;"/></g><g transform="matrix(91.666665,0,0,91.666665,5273.033468,-1685.092949)"></g><g transform="matrix(91.666665,0,0,91.666665,5323.908467,-1685.092949)"><path d="M0.278,0.013c0.142,0 0.228,-0.133 0.228,-0.372c0,-0.238 -0.086,-0.367 -0.228,-0.367c-0.142,0 -0.229,0.128 -0.229,0.367c0,0.239 0.087,0.372 0.229,0.372Zm0,-0.073c-0.084,0 -0.14,-0.09 -0.14,-0.299c0,-0.209 0.056,-0.294 0.14,-0.294c0.083,0 0.139,0.085 0.139,0.294c0,0.209 -0.056,0.299 -0.139,0.299Z" style="fill-rule:nonzero;"/></g><g transform="matrix(91.666665,0,0,91.666665,5323.908467,-1685.092949)"></g><g transform="matrix(91.666665,0,0,91.666665,5400.266799,-1685.092949)"><path d="M0.278,0.013c0.142,0 0.228,-0.133 0.228,-0.372c0,-0.238 -0.086,-0.367 -0.228,-0.367c-0.142,0 -0.229,0.128 -0.229,0.367c0,0.239 0.087,0.372 0.229,0.372Zm0,-0.073c-0.084,0 -0.14,-0.09 -0.14,-0.299c0,-0.209 0.056,-0.294 0.14,-0.294c0.083,0 0.139,0.085 0.139,0.294c0,0.209 -0.056,0.299 -0.139,0.299Z" style="fill-rule:nonzero;"/></g><g transform="matrix(91.666665,0,0,91.666665,5400.266799,-1685.092949)"></g><g transform="matrix(91.666665,0,0,91.666665,5451.141798,-1685.092949)"><path d="M0.278,0.013c0.142,0 0.228,-0.133 0.228,-0.372c0,-0.238 -0.086,-0.367 -0.228,-0.367c-0.142,0 -0.229,0.128 -0.229,0.367c0,0.239 0.087,0.372 0.229,0.372Zm0,-0.073c-0.084,0 -0.14,-0.09 -0.14,-0.299c0,-0.209 0.056,-0.294 0.14,-0.294c0.083,0 0.139,0.085 0.139,0.294c0,0.209 -0.056,0.299 -0.139,0.299Z" style="fill-rule:nonzero;"/></g><g transform="matrix(91.666665,0,0,91.666665,5451.141798,-1685.092949)"></g><g transform="matrix(91.666665,0,0,91.666665,5502.016796,-1685.092949)"></g><text x="5113.992px" y="-1685.093px" style="font-family:'SourceHanSansTW-Regular', 'Source Han Sans TW', sans-serif;font-size:91.667px;"><tspan x="5113.992px 5241.225px 5374.783px " y="-1685.093px -1685.093px -1685.093px ">:-:</tspan></text></g><g transform="matrix(0.891007,0.453991,-0.453991,0.891007,0,0)"><g transform="matrix(91.666665,0,0,91.666665,5576.10906,-1526.45682)"></g><text x="4842.776px" y="-1526.457px" style="font-family:'SourceHanSansTW-Regular', 'Source Han Sans TW', sans-serif;font-size:91.667px;">銀座聚場，齊對陣</text></g></g><path d="M5794.267,1138.963l545.542,256.782" style="fill:none;fill-rule:nonzero;stroke:#000;stroke-width:4.17px;"/></g><g id="合"><g><g transform="matrix(91.666667,0,0,91.666667,924.427917,3490.827917)"><path d="M0.044,-0l0.461,-0l0,-0.079l-0.207,0c-0.038,0 -0.082,0.004 -0.12,0.007c0.169,-0.178 0.291,-0.311 0.291,-0.445c0,-0.126 -0.082,-0.209 -0.213,-0.209c-0.093,0 -0.156,0.043 -0.216,0.108l0.053,0.051c0.04,-0.047 0.092,-0.085 0.152,-0.085c0.091,0 0.135,0.058 0.135,0.139c0,0.117 -0.121,0.245 -0.336,0.459l0,0.054Z" style="fill-rule:nonzero;"/></g><g transform="matrix(91.666667,0,0,91.666667,924.427917,3490.827917)"></g><g transform="matrix(91.666667,0,0,91.666667,975.302917,3490.827917)"><path d="M0.088,-0l0.402,-0l0,-0.076l-0.147,0l0,-0.637l-0.07,0c-0.04,0.024 -0.087,0.041 -0.152,0.052l0,0.059l0.13,0l0,0.526l-0.163,-0l0,0.076Z" style="fill-rule:nonzero;"/></g><g transform="matrix(91.666667,0,0,91.666667,975.302917,3490.827917)"></g><g transform="matrix(91.666667,0,0,91.666667,1051.66125,3490.827917)"><path d="M0.264,0.013c0.13,0 0.235,-0.076 0.235,-0.203c0,-0.098 -0.069,-0.161 -0.155,-0.182l0,-0.004c0.077,-0.028 0.13,-0.083 0.13,-0.169c0,-0.116 -0.09,-0.181 -0.213,-0.181c-0.085,0 -0.15,0.037 -0.205,0.089l0.049,0.057c0.041,-0.042 0.093,-0.072 0.152,-0.072c0.076,0 0.124,0.044 0.124,0.113c0,0.075 -0.052,0.134 -0.203,0.134l0,0.07c0.169,0 0.228,0.056 0.228,0.141c0,0.08 -0.062,0.131 -0.149,0.131c-0.083,0 -0.139,-0.039 -0.182,-0.084l-0.046,0.06c0.048,0.052 0.12,0.1 0.235,0.1Z" style="fill-rule:nonzero;"/></g><g transform="matrix(91.666667,0,0,91.666667,1051.66125,3490.827917)"></g><g transform="matrix(91.666667,0,0,91.666667,1102.53625,3490.827917)"><path d="M0.278,0.013c0.142,0 0.228,-0.133 0.228,-0.372c0,-0.238 -0.086,-0.367 -0.228,-0.367c-0.142,0 -0.229,0.128 -0.229,0.367c0,0.239 0.087,0.372 0.229,0.372Zm0,-0.073c-0.084,0 -0.14,-0.09 -0.14,-0.299c0,-0.209 0.056,-0.294 0.14,-0.294c0.083,0 0.139,0.085 0.139,0.294c0,0.209 -0.056,0.299 -0.139,0.299Z" style="fill-rule:nonzero;"/></g><g transform="matrix(91.666667,0,0,91.666667,1102.53625,3490.827917)"></g><g transform="matrix(91.666667,0,0,91.666667,1185.219583,3490.827917)"><path d="M0.044,-0l0.461,-0l0,-0.079l-0.207,0c-0.038,0 -0.082,0.004 -0.12,0.007c0.169,-0.178 0.291,-0.311 0.291,-0.445c0,-0.126 -0.082,-0.209 -0.213,-0.209c-0.093,0 -0.156,0.043 -0.216,0.108l0.053,0.051c0.04,-0.047 0.092,-0.085 0.152,-0.085c0.091,0 0.135,0.058 0.135,0.139c0,0.117 -0.121,0.245 -0.336,0.459l0,0.054Z" style="fill-rule:nonzero;"/></g><g transform="matrix(91.666667,0,0,91.666667,1185.219583,3490.827917)"></g><g transform="matrix(91.666667,0,0,91.666667,1236.094583,3490.827917)"><path d="M0.044,-0l0.461,-0l0,-0.079l-0.207,0c-0.038,0 -0.082,0.004 -0.12,0.007c0.169,-0.178 0.291,-0.311 0.291,-0.445c0,-0.126 -0.082,-0.209 -0.213,-0.209c-0.093,0 -0.156,0.043 -0.216,0.108l0.053,0.051c0.04,-0.047 0.092,-0.085 0.152,-0.085c0.091,0 0.135,0.058 0.135,0.139c0,0.117 -0.121,0.245 -0.336,0.459l0,0.054Z" style="fill-rule:nonzero;"/></g><g transform="matrix(91.666667,0,0,91.666667,1236.094583,3490.827917)"></g><g transform="matrix(91.666667,0,0,91.666667,1312.452917,3490.827917)"><path d="M0.278,0.013c0.142,0 0.228,-0.133 0.228,-0.372c0,-0.238 -0.086,-0.367 -0.228,-0.367c-0.142,0 -0.229,0.128 -0.229,0.367c0,0.239 0.087,0.372 0.229,0.372Zm0,-0.073c-0.084,0 -0.14,-0.09 -0.14,-0.299c0,-0.209 0.056,-0.294 0.14,-0.294c0.083,0 0.139,0.085 0.139,0.294c0,0.209 -0.056,0.299 -0.139,0.299Z" style="fill-rule:nonzero;"/></g><g transform="matrix(91.666667,0,0,91.666667,1312.452917,3490.827917)"></g><g transform="matrix(91.666667,0,0,91.666667,1363.327917,3490.827917)"><path d="M0.278,0.013c0.142,0 0.228,-0.133 0.228,-0.372c0,-0.238 -0.086,-0.367 -0.228,-0.367c-0.142,0 -0.229,0.128 -0.229,0.367c0,0.239 0.087,0.372 0.229,0.372Zm0,-0.073c-0.084,0 -0.14,-0.09 -0.14,-0.299c0,-0.209 0.056,-0.294 0.14,-0.294c0.083,0 0.139,0.085 0.139,0.294c0,0.209 -0.056,0.299 -0.139,0.299Z" style="fill-rule:nonzero;"/></g><g transform="matrix(91.666667,0,0,91.666667,1363.327917,3490.827917)"></g><g transform="matrix(91.666667,0,0,91.666667,1414.202917,3490.827917)"></g><text x="1026.178px" y="3490.828px" style="font-family:'SourceHanSansTW-Regular', 'Source Han Sans TW', sans-serif;font-size:91.667px;"><tspan x="1026.178px 1153.411px 1286.97px " y="3490.828px 3490.828px 3490.828px ">:-:</tspan></text><g transform="matrix(91.666667,0,0,91.666667,1489.140417,3624.16125)"></g><text x="847.474px" y="3624.161px" style="font-family:'SourceHanSansTW-Regular', 'Source Han Sans TW', sans-serif;font-size:91.667px;">西子灣，祝豐年</text></g><path d="M1168.903,3709.85l0,349.95" style="fill:none;fill-rule:nonzero;stroke:#000;stroke-width:4.17px;"/></g><g id="起"><g><g transform="matrix(91.666667,0,0,91.666667,5002.897917,3859.235833)"><path d="M0.088,-0l0.402,-0l0,-0.076l-0.147,0l0,-0.637l-0.07,0c-0.04,0.024 -0.087,0.041 -0.152,0.052l0,0.059l0.13,0l0,0.526l-0.163,-0l0,0.076Z" style="fill-rule:nonzero;"/></g><g transform="matrix(91.666667,0,0,91.666667,5002.897917,3859.235833)"></g><g transform="matrix(91.666667,0,0,91.666667,5053.772917,3859.235833)"><path d="M0.198,-0l0.095,-0c0.011,-0.278 0.047,-0.441 0.215,-0.657l0,-0.056l-0.459,0l0,0.078l0.355,0c-0.14,0.196 -0.194,0.366 -0.206,0.635Z" style="fill-rule:nonzero;"/></g><g transform="matrix(91.666667,0,0,91.666667,5053.772917,3859.235833)"></g><g transform="matrix(91.666667,0,0,91.666667,5130.13125,3859.235833)"><path d="M0.278,0.013c0.142,0 0.228,-0.133 0.228,-0.372c0,-0.238 -0.086,-0.367 -0.228,-0.367c-0.142,0 -0.229,0.128 -0.229,0.367c0,0.239 0.087,0.372 0.229,0.372Zm0,-0.073c-0.084,0 -0.14,-0.09 -0.14,-0.299c0,-0.209 0.056,-0.294 0.14,-0.294c0.083,0 0.139,0.085 0.139,0.294c0,0.209 -0.056,0.299 -0.139,0.299Z" style="fill-rule:nonzero;"/></g><g transform="matrix(91.666667,0,0,91.666667,5130.13125,3859.235833)"></g><g transform="matrix(91.666667,0,0,91.666667,5181.00625,3859.235833)"><path d="M0.278,0.013c0.142,0 0.228,-0.133 0.228,-0.372c0,-0.238 -0.086,-0.367 -0.228,-0.367c-0.142,0 -0.229,0.128 -0.229,0.367c0,0.239 0.087,0.372 0.229,0.372Zm0,-0.073c-0.084,0 -0.14,-0.09 -0.14,-0.299c0,-0.209 0.056,-0.294 0.14,-0.294c0.083,0 0.139,0.085 0.139,0.294c0,0.209 -0.056,0.299 -0.139,0.299Z" style="fill-rule:nonzero;"/></g><g transform="matrix(91.666667,0,0,91.666667,5181.00625,3859.235833)"></g><g transform="matrix(91.666667,0,0,91.666667,5263.689583,3859.235833)"><path d="M0.088,-0l0.402,-0l0,-0.076l-0.147,0l0,-0.637l-0.07,0c-0.04,0.024 -0.087,0.041 -0.152,0.052l0,0.059l0.13,0l0,0.526l-0.163,-0l0,0.076Z" style="fill-rule:nonzero;"/></g><g transform="matrix(91.666667,0,0,91.666667,5263.689583,3859.235833)"></g><g transform="matrix(91.666667,0,0,91.666667,5314.564583,3859.235833)"><path d="M0.198,-0l0.095,-0c0.011,-0.278 0.047,-0.441 0.215,-0.657l0,-0.056l-0.459,0l0,0.078l0.355,0c-0.14,0.196 -0.194,0.366 -0.206,0.635Z" style="fill-rule:nonzero;"/></g><g transform="matrix(91.666667,0,0,91.666667,5314.564583,3859.235833)"></g><g transform="matrix(91.666667,0,0,91.666667,5390.922917,3859.235833)"><path d="M0.115,-0.27l0.167,-0.245c0.021,-0.035 0.041,-0.066 0.059,-0.1l0.004,0c-0.002,0.038 -0.005,0.099 -0.005,0.136l0,0.209l-0.225,0Zm0.225,0.27l0.086,-0l0,-0.197l0.097,0l0,-0.073l-0.097,0l0,-0.443l-0.101,0l-0.305,0.456l-0,0.06l0.32,0l0,0.197Z" style="fill-rule:nonzero;"/></g><g transform="matrix(91.666667,0,0,91.666667,5390.922917,3859.235833)"></g><g transform="matrix(91.666667,0,0,91.666667,5441.797917,3859.235833)"><path d="M0.261,0.013c0.124,0 0.24,-0.087 0.24,-0.241c0,-0.154 -0.099,-0.224 -0.221,-0.224c-0.044,0 -0.076,0.012 -0.109,0.03l0.018,-0.213l0.277,0l0,-0.078l-0.357,0l-0.023,0.343l0.049,0.031c0.042,-0.028 0.073,-0.044 0.122,-0.044c0.092,0 0.152,0.059 0.152,0.158c0,0.099 -0.07,0.162 -0.156,0.162c-0.085,0 -0.138,-0.039 -0.18,-0.081l-0.045,0.06c0.049,0.049 0.119,0.097 0.233,0.097Z" style="fill-rule:nonzero;"/></g><g transform="matrix(91.666667,0,0,91.666667,5441.797917,3859.235833)"></g><g transform="matrix(91.666667,0,0,91.666667,5492.672917,3859.235833)"></g><text x="5104.648px" y="3859.236px" style="font-family:'SourceHanSansTW-Regular', 'Source Han Sans TW', sans-serif;font-size:91.667px;"><tspan x="5104.648px 5231.881px 5365.44px " y="3859.236px 3859.236px 3859.236px ">:-:</tspan></text><g transform="matrix(91.666667,0,0,91.666667,5569.85625,3992.569167)"></g><text x="4928.19px" y="3992.569px" style="font-family:'SourceHanSansTW-Regular', 'Source Han Sans TW', sans-serif;font-size:91.667px;">新豐里，集拔河</text></g><path d="M5249.344,2973.328l0,674.125" style="fill:none;fill-rule:nonzero;stroke:#000;stroke-width:4.17px;"/></g><g id="訪"><g><g transform="matrix(91.666667,0,0,91.666667,3317.554167,428.11625)"><path d="M0.088,-0l0.402,-0l0,-0.076l-0.147,0l0,-0.637l-0.07,0c-0.04,0.024 -0.087,0.041 -0.152,0.052l0,0.059l0.13,0l0,0.526l-0.163,-0l0,0.076Z" style="fill-rule:nonzero;"/></g><g transform="matrix(91.666667,0,0,91.666667,3317.554167,428.11625)"></g><g transform="matrix(91.666667,0,0,91.666667,3368.429167,428.11625)"><path d="M0.279,0.013c0.138,0 0.23,-0.083 0.23,-0.19c0,-0.095 -0.061,-0.145 -0.124,-0.183l0,-0.005c0.043,-0.033 0.098,-0.097 0.098,-0.172c0,-0.111 -0.076,-0.189 -0.201,-0.189c-0.114,0 -0.201,0.073 -0.201,0.182c-0,0.076 0.046,0.129 0.099,0.165l0,0.004c-0.067,0.036 -0.135,0.1 -0.135,0.193c0,0.113 0.099,0.195 0.234,0.195Zm0.05,-0.401c-0.086,-0.034 -0.165,-0.07 -0.165,-0.156c0,-0.069 0.049,-0.114 0.117,-0.114c0.079,0 0.124,0.056 0.124,0.126c0,0.053 -0.027,0.1 -0.076,0.144Zm-0.048,0.333c-0.088,-0 -0.153,-0.057 -0.153,-0.135c0,-0.066 0.042,-0.119 0.1,-0.156c0.104,0.041 0.194,0.074 0.194,0.167c0,0.073 -0.057,0.124 -0.141,0.124Z" style="fill-rule:nonzero;"/></g><g transform="matrix(91.666667,0,0,91.666667,3368.429167,428.11625)"></g><g transform="matrix(91.666667,0,0,91.666667,3444.7875,428.11625)"><path d="M0.115,-0.27l0.167,-0.245c0.021,-0.035 0.041,-0.066 0.059,-0.1l0.004,0c-0.002,0.038 -0.005,0.099 -0.005,0.136l0,0.209l-0.225,0Zm0.225,0.27l0.086,-0l0,-0.197l0.097,0l0,-0.073l-0.097,0l0,-0.443l-0.101,0l-0.305,0.456l-0,0.06l0.32,0l0,0.197Z" style="fill-rule:nonzero;"/></g><g transform="matrix(91.666667,0,0,91.666667,3444.7875,428.11625)"></g><g transform="matrix(91.666667,0,0,91.666667,3495.6625,428.11625)"><path d="M0.261,0.013c0.124,0 0.24,-0.087 0.24,-0.241c0,-0.154 -0.099,-0.224 -0.221,-0.224c-0.044,0 -0.076,0.012 -0.109,0.03l0.018,-0.213l0.277,0l0,-0.078l-0.357,0l-0.023,0.343l0.049,0.031c0.042,-0.028 0.073,-0.044 0.122,-0.044c0.092,0 0.152,0.059 0.152,0.158c0,0.099 -0.07,0.162 -0.156,0.162c-0.085,0 -0.138,-0.039 -0.18,-0.081l-0.045,0.06c0.049,0.049 0.119,0.097 0.233,0.097Z" style="fill-rule:nonzero;"/></g><g transform="matrix(91.666667,0,0,91.666667,3495.6625,428.11625)"></g><g transform="matrix(91.666667,0,0,91.666667,3578.345833,428.11625)"><path d="M0.088,-0l0.402,-0l0,-0.076l-0.147,0l0,-0.637l-0.07,0c-0.04,0.024 -0.087,0.041 -0.152,0.052l0,0.059l0.13,0l0,0.526l-0.163,-0l0,0.076Z" style="fill-rule:nonzero;"/></g><g transform="matrix(91.666667,0,0,91.666667,3578.345833,428.11625)"></g><g transform="matrix(91.666667,0,0,91.666667,3629.220833,428.11625)"><path d="M0.13,-0.498c0,-0.094 0.054,-0.156 0.124,-0.156c0.091,0 0.147,0.074 0.159,0.212c-0.046,0.068 -0.104,0.097 -0.15,0.097c-0.089,0 -0.133,-0.06 -0.133,-0.153Zm0.099,0.511c0.142,-0 0.271,-0.11 0.271,-0.396c0,-0.229 -0.105,-0.343 -0.246,-0.343c-0.114,0 -0.21,0.092 -0.21,0.228c0,0.146 0.08,0.221 0.204,0.221c0.058,0 0.121,-0.035 0.167,-0.092c-0.004,0.228 -0.089,0.306 -0.189,0.306c-0.045,0 -0.089,-0.021 -0.117,-0.056l-0.051,0.057c0.039,0.043 0.095,0.075 0.171,0.075Z" style="fill-rule:nonzero;"/></g><g transform="matrix(91.666667,0,0,91.666667,3629.220833,428.11625)"></g><g transform="matrix(91.666667,0,0,91.666667,3705.579167,428.11625)"><path d="M0.088,-0l0.402,-0l0,-0.076l-0.147,0l0,-0.637l-0.07,0c-0.04,0.024 -0.087,0.041 -0.152,0.052l0,0.059l0.13,0l0,0.526l-0.163,-0l0,0.076Z" style="fill-rule:nonzero;"/></g><g transform="matrix(91.666667,0,0,91.666667,3705.579167,428.11625)"></g><g transform="matrix(91.666667,0,0,91.666667,3756.454167,428.11625)"><path d="M0.261,0.013c0.124,0 0.24,-0.087 0.24,-0.241c0,-0.154 -0.099,-0.224 -0.221,-0.224c-0.044,0 -0.076,0.012 -0.109,0.03l0.018,-0.213l0.277,0l0,-0.078l-0.357,0l-0.023,0.343l0.049,0.031c0.042,-0.028 0.073,-0.044 0.122,-0.044c0.092,0 0.152,0.059 0.152,0.158c0,0.099 -0.07,0.162 -0.156,0.162c-0.085,0 -0.138,-0.039 -0.18,-0.081l-0.045,0.06c0.049,0.049 0.119,0.097 0.233,0.097Z" style="fill-rule:nonzero;"/></g><g transform="matrix(91.666667,0,0,91.666667,3756.454167,428.11625)"></g><g transform="matrix(91.666667,0,0,91.666667,3807.329167,428.11625)"></g><text x="3419.304px" y="428.116px" style="font-family:'SourceHanSansTW-Regular', 'Source Han Sans TW', sans-serif;font-size:91.667px;"><tspan x="3419.304px 3546.537px 3680.096px " y="428.116px 428.116px 428.116px ">:-:</tspan></text><g transform="matrix(91.666667,0,0,91.666667,3883.320833,550.11625)"></g><text x="3241.654px" y="550.116px" style="font-family:'SourceHanSansTW-Regular', 'Source Han Sans TW', sans-serif;font-size:91.667px;">陸橋里，造與訪</text></g><clipPath id="_clip1"><rect x="3963.173" y="453.212" width="1922.719" height="12.5" clip-rule="nonzero"/></clipPath><g clip-path="url(#_clip1)"><path d="M5881.725,459.462l-1914.387,0" style="fill:none;fill-rule:nonzero;stroke:#000;stroke-width:4.17px;"/></g></g><g id="承"><g><g transform="matrix(91.666667,0,0,91.666667,6494.91875,2517.303333)"><path d="M0.088,-0l0.402,-0l0,-0.076l-0.147,0l0,-0.637l-0.07,0c-0.04,0.024 -0.087,0.041 -0.152,0.052l0,0.059l0.13,0l0,0.526l-0.163,-0l0,0.076Z" style="fill-rule:nonzero;"/></g><g transform="matrix(91.666667,0,0,91.666667,6494.91875,2517.303333)"></g><g transform="matrix(91.666667,0,0,91.666667,6545.79375,2517.303333)"><path d="M0.279,0.013c0.138,0 0.23,-0.083 0.23,-0.19c0,-0.095 -0.061,-0.145 -0.124,-0.183l0,-0.005c0.043,-0.033 0.098,-0.097 0.098,-0.172c0,-0.111 -0.076,-0.189 -0.201,-0.189c-0.114,0 -0.201,0.073 -0.201,0.182c-0,0.076 0.046,0.129 0.099,0.165l0,0.004c-0.067,0.036 -0.135,0.1 -0.135,0.193c0,0.113 0.099,0.195 0.234,0.195Zm0.05,-0.401c-0.086,-0.034 -0.165,-0.07 -0.165,-0.156c0,-0.069 0.049,-0.114 0.117,-0.114c0.079,0 0.124,0.056 0.124,0.126c0,0.053 -0.027,0.1 -0.076,0.144Zm-0.048,0.333c-0.088,-0 -0.153,-0.057 -0.153,-0.135c0,-0.066 0.042,-0.119 0.1,-0.156c0.104,0.041 0.194,0.074 0.194,0.167c0,0.073 -0.057,0.124 -0.141,0.124Z" style="fill-rule:nonzero;"/></g><g transform="matrix(91.666667,0,0,91.666667,6545.79375,2517.303333)"></g><g transform="matrix(91.666667,0,0,91.666667,6622.152083,2517.303333)"><path d="M0.278,0.013c0.142,0 0.228,-0.133 0.228,-0.372c0,-0.238 -0.086,-0.367 -0.228,-0.367c-0.142,0 -0.229,0.128 -0.229,0.367c0,0.239 0.087,0.372 0.229,0.372Zm0,-0.073c-0.084,0 -0.14,-0.09 -0.14,-0.299c0,-0.209 0.056,-0.294 0.14,-0.294c0.083,0 0.139,0.085 0.139,0.294c0,0.209 -0.056,0.299 -0.139,0.299Z" style="fill-rule:nonzero;"/></g><g transform="matrix(91.666667,0,0,91.666667,6622.152083,2517.303333)"></g><g transform="matrix(91.666667,0,0,91.666667,6673.027083,2517.303333)"><path d="M0.278,0.013c0.142,0 0.228,-0.133 0.228,-0.372c0,-0.238 -0.086,-0.367 -0.228,-0.367c-0.142,0 -0.229,0.128 -0.229,0.367c0,0.239 0.087,0.372 0.229,0.372Zm0,-0.073c-0.084,0 -0.14,-0.09 -0.14,-0.299c0,-0.209 0.056,-0.294 0.14,-0.294c0.083,0 0.139,0.085 0.139,0.294c0,0.209 -0.056,0.299 -0.139,0.299Z" style="fill-rule:nonzero;"/></g><g transform="matrix(91.666667,0,0,91.666667,6673.027083,2517.303333)"></g><g transform="matrix(91.666667,0,0,91.666667,6755.710417,2517.303333)"><path d="M0.088,-0l0.402,-0l0,-0.076l-0.147,0l0,-0.637l-0.07,0c-0.04,0.024 -0.087,0.041 -0.152,0.052l0,0.059l0.13,0l0,0.526l-0.163,-0l0,0.076Z" style="fill-rule:nonzero;"/></g><g transform="matrix(91.666667,0,0,91.666667,6755.710417,2517.303333)"></g><g transform="matrix(91.666667,0,0,91.666667,6806.585417,2517.303333)"><path d="M0.279,0.013c0.138,0 0.23,-0.083 0.23,-0.19c0,-0.095 -0.061,-0.145 -0.124,-0.183l0,-0.005c0.043,-0.033 0.098,-0.097 0.098,-0.172c0,-0.111 -0.076,-0.189 -0.201,-0.189c-0.114,0 -0.201,0.073 -0.201,0.182c-0,0.076 0.046,0.129 0.099,0.165l0,0.004c-0.067,0.036 -0.135,0.1 -0.135,0.193c0,0.113 0.099,0.195 0.234,0.195Zm0.05,-0.401c-0.086,-0.034 -0.165,-0.07 -0.165,-0.156c0,-0.069 0.049,-0.114 0.117,-0.114c0.079,0 0.124,0.056 0.124,0.126c0,0.053 -0.027,0.1 -0.076,0.144Zm-0.048,0.333c-0.088,-0 -0.153,-0.057 -0.153,-0.135c0,-0.066 0.042,-0.119 0.1,-0.156c0.104,0.041 0.194,0.074 0.194,0.167c0,0.073 -0.057,0.124 -0.141,0.124Z" style="fill-rule:nonzero;"/></g><g transform="matrix(91.666667,0,0,91.666667,6806.585417,2517.303333)"></g><g transform="matrix(91.666667,0,0,91.666667,6882.94375,2517.303333)"><path d="M0.264,0.013c0.13,0 0.235,-0.076 0.235,-0.203c0,-0.098 -0.069,-0.161 -0.155,-0.182l0,-0.004c0.077,-0.028 0.13,-0.083 0.13,-0.169c0,-0.116 -0.09,-0.181 -0.213,-0.181c-0.085,0 -0.15,0.037 -0.205,0.089l0.049,0.057c0.041,-0.042 0.093,-0.072 0.152,-0.072c0.076,0 0.124,0.044 0.124,0.113c0,0.075 -0.052,0.134 -0.203,0.134l0,0.07c0.169,0 0.228,0.056 0.228,0.141c0,0.08 -0.062,0.131 -0.149,0.131c-0.083,0 -0.139,-0.039 -0.182,-0.084l-0.046,0.06c0.048,0.052 0.12,0.1 0.235,0.1Z" style="fill-rule:nonzero;"/></g><g transform="matrix(91.666667,0,0,91.666667,6882.94375,2517.303333)"></g><g transform="matrix(91.666667,0,0,91.666667,6933.81875,2517.303333)"><path d="M0.278,0.013c0.142,0 0.228,-0.133 0.228,-0.372c0,-0.238 -0.086,-0.367 -0.228,-0.367c-0.142,0 -0.229,0.128 -0.229,0.367c0,0.239 0.087,0.372 0.229,0.372Zm0,-0.073c-0.084,0 -0.14,-0.09 -0.14,-0.299c0,-0.209 0.056,-0.294 0.14,-0.294c0.083,0 0.139,0.085 0.139,0.294c0,0.209 -0.056,0.299 -0.139,0.299Z" style="fill-rule:nonzero;"/></g><g transform="matrix(91.666667,0,0,91.666667,6933.81875,2517.303333)"></g><g transform="matrix(91.666667,0,0,91.666667,6984.69375,2517.303333)"></g><text x="6596.669px" y="2517.303px" style="font-family:'SourceHanSansTW-Regular', 'Source Han Sans TW', sans-serif;font-size:91.667px;"><tspan x="6596.669px 6723.902px 6857.46px " y="2517.303px 2517.303px 2517.303px ">:-:</tspan></text><g transform="matrix(91.666667,0,0,91.666667,7061.739583,2650.636667)"></g><text x="6420.073px" y="2650.637px" style="font-family:'SourceHanSansTW-Regular', 'Source Han Sans TW', sans-serif;font-size:91.667px;">大溝頂，拜年隊</text></g><path d="M6741.594,1611.68l0,755.298" style="fill:none;fill-rule:nonzero;stroke:#000;stroke-width:4.17px;"/></g><g id="休"><g><g transform="matrix(91.666667,0,0,91.666667,4099.767917,3219.586667)"><path d="M0.044,-0l0.461,-0l0,-0.079l-0.207,0c-0.038,0 -0.082,0.004 -0.12,0.007c0.169,-0.178 0.291,-0.311 0.291,-0.445c0,-0.126 -0.082,-0.209 -0.213,-0.209c-0.093,0 -0.156,0.043 -0.216,0.108l0.053,0.051c0.04,-0.047 0.092,-0.085 0.152,-0.085c0.091,0 0.135,0.058 0.135,0.139c0,0.117 -0.121,0.245 -0.336,0.459l0,0.054Z" style="fill-rule:nonzero;"/></g><g transform="matrix(91.666667,0,0,91.666667,4099.767917,3219.586667)"></g><g transform="matrix(91.666667,0,0,91.666667,4150.642917,3219.586667)"><path d="M0.278,0.013c0.142,0 0.228,-0.133 0.228,-0.372c0,-0.238 -0.086,-0.367 -0.228,-0.367c-0.142,0 -0.229,0.128 -0.229,0.367c0,0.239 0.087,0.372 0.229,0.372Zm0,-0.073c-0.084,0 -0.14,-0.09 -0.14,-0.299c0,-0.209 0.056,-0.294 0.14,-0.294c0.083,0 0.139,0.085 0.139,0.294c0,0.209 -0.056,0.299 -0.139,0.299Z" style="fill-rule:nonzero;"/></g><g transform="matrix(91.666667,0,0,91.666667,4150.642917,3219.586667)"></g><g transform="matrix(91.666667,0,0,91.666667,4227.00125,3219.586667)"><path d="M0.088,-0l0.402,-0l0,-0.076l-0.147,0l0,-0.637l-0.07,0c-0.04,0.024 -0.087,0.041 -0.152,0.052l0,0.059l0.13,0l0,0.526l-0.163,-0l0,0.076Z" style="fill-rule:nonzero;"/></g><g transform="matrix(91.666667,0,0,91.666667,4227.00125,3219.586667)"></g><g transform="matrix(91.666667,0,0,91.666667,4277.87625,3219.586667)"><path d="M0.261,0.013c0.124,0 0.24,-0.087 0.24,-0.241c0,-0.154 -0.099,-0.224 -0.221,-0.224c-0.044,0 -0.076,0.012 -0.109,0.03l0.018,-0.213l0.277,0l0,-0.078l-0.357,0l-0.023,0.343l0.049,0.031c0.042,-0.028 0.073,-0.044 0.122,-0.044c0.092,0 0.152,0.059 0.152,0.158c0,0.099 -0.07,0.162 -0.156,0.162c-0.085,0 -0.138,-0.039 -0.18,-0.081l-0.045,0.06c0.049,0.049 0.119,0.097 0.233,0.097Z" style="fill-rule:nonzero;"/></g><g transform="matrix(91.666667,0,0,91.666667,4277.87625,3219.586667)"></g><g transform="matrix(91.666667,0,0,91.666667,4360.559583,3219.586667)"><path d="M0.044,-0l0.461,-0l0,-0.079l-0.207,0c-0.038,0 -0.082,0.004 -0.12,0.007c0.169,-0.178 0.291,-0.311 0.291,-0.445c0,-0.126 -0.082,-0.209 -0.213,-0.209c-0.093,0 -0.156,0.043 -0.216,0.108l0.053,0.051c0.04,-0.047 0.092,-0.085 0.152,-0.085c0.091,0 0.135,0.058 0.135,0.139c0,0.117 -0.121,0.245 -0.336,0.459l0,0.054Z" style="fill-rule:nonzero;"/></g><g transform="matrix(91.666667,0,0,91.666667,4360.559583,3219.586667)"></g><g transform="matrix(91.666667,0,0,91.666667,4411.434583,3219.586667)"><path d="M0.278,0.013c0.142,0 0.228,-0.133 0.228,-0.372c0,-0.238 -0.086,-0.367 -0.228,-0.367c-0.142,0 -0.229,0.128 -0.229,0.367c0,0.239 0.087,0.372 0.229,0.372Zm0,-0.073c-0.084,0 -0.14,-0.09 -0.14,-0.299c0,-0.209 0.056,-0.294 0.14,-0.294c0.083,0 0.139,0.085 0.139,0.294c0,0.209 -0.056,0.299 -0.139,0.299Z" style="fill-rule:nonzero;"/></g><g transform="matrix(91.666667,0,0,91.666667,4411.434583,3219.586667)"></g><g transform="matrix(91.666667,0,0,91.666667,4487.792917,3219.586667)"><path d="M0.264,0.013c0.13,0 0.235,-0.076 0.235,-0.203c0,-0.098 -0.069,-0.161 -0.155,-0.182l0,-0.004c0.077,-0.028 0.13,-0.083 0.13,-0.169c0,-0.116 -0.09,-0.181 -0.213,-0.181c-0.085,0 -0.15,0.037 -0.205,0.089l0.049,0.057c0.041,-0.042 0.093,-0.072 0.152,-0.072c0.076,0 0.124,0.044 0.124,0.113c0,0.075 -0.052,0.134 -0.203,0.134l0,0.07c0.169,0 0.228,0.056 0.228,0.141c0,0.08 -0.062,0.131 -0.149,0.131c-0.083,0 -0.139,-0.039 -0.182,-0.084l-0.046,0.06c0.048,0.052 0.12,0.1 0.235,0.1Z" style="fill-rule:nonzero;"/></g><g transform="matrix(91.666667,0,0,91.666667,4487.792917,3219.586667)"></g><g transform="matrix(91.666667,0,0,91.666667,4538.667917,3219.586667)"><path d="M0.278,0.013c0.142,0 0.228,-0.133 0.228,-0.372c0,-0.238 -0.086,-0.367 -0.228,-0.367c-0.142,0 -0.229,0.128 -0.229,0.367c0,0.239 0.087,0.372 0.229,0.372Zm0,-0.073c-0.084,0 -0.14,-0.09 -0.14,-0.299c0,-0.209 0.056,-0.294 0.14,-0.294c0.083,0 0.139,0.085 0.139,0.294c0,0.209 -0.056,0.299 -0.139,0.299Z" style="fill-rule:nonzero;"/></g><g transform="matrix(91.666667,0,0,91.666667,4538.667917,3219.586667)"></g><g transform="matrix(91.666667,0,0,91.666667,4589.542917,3219.586667)"></g><text x="4201.518px" y="3219.587px" style="font-family:'SourceHanSansTW-Regular', 'Source Han Sans TW', sans-serif;font-size:91.667px;"><tspan x="4201.518px 4328.751px 4462.31px " y="3219.587px 3219.587px 3219.587px ">:-:</tspan></text><g transform="matrix(91.666667,0,0,91.666667,4711.41375,3352.92)"></g><text x="3978.08px" y="3352.92px" style="font-family:'SourceHanSansTW-Regular', 'Source Han Sans TW', sans-serif;font-size:91.667px;">新濱駅前，小休息</text></g><path d="M4344.243,2333.679l0,674.125" style="fill:none;fill-rule:nonzero;stroke:#000;stroke-width:4.17px;"/></g></svg>